<?xml version="1.0" encoding="UTF-8"?>
<svg version="1.1" xmlns="http://www.w3.org/2000/svg" width="437" height="437">
<path d="M0 0 C2.4654404 -0.00435356 4.93087946 -0.00953885 7.39631653 -0.01548767 C13.3695348 -0.02743934 19.34268698 -0.03003737 25.31591114 -0.02768741 C30.17765096 -0.02589579 35.03937722 -0.02767185 39.90111542 -0.03191185 C40.9437242 -0.03280463 40.9437242 -0.03280463 42.00739579 -0.03371545 C43.41999215 -0.03492736 44.83258851 -0.03614149 46.24518487 -0.03735783 C59.45907466 -0.0482059 72.67293885 -0.04608401 85.88683006 -0.03997298 C97.93711725 -0.03480766 109.98732351 -0.04605399 122.03759471 -0.0650712 C134.4524487 -0.08451144 146.86726453 -0.09269472 159.28213382 -0.08894795 C166.23541095 -0.08704508 173.18861926 -0.08943342 180.14188385 -0.10366249 C186.68539206 -0.11691908 193.22876619 -0.11423286 199.77228355 -0.1012516 C202.16099542 -0.09890091 204.54971886 -0.10156579 206.93841743 -0.10987473 C236.73528281 -0.20597231 263.73591629 4.61608249 286.47167969 25.2746582 C287.41914062 26.10030273 287.41914062 26.10030273 288.38574219 26.94262695 C303.33516396 40.76572243 311.27388106 60.59352075 314.47167969 80.2746582 C314.72577921 81.75527929 314.72577921 81.75527929 314.98501205 83.26581192 C315.65790256 88.03518524 315.61650259 92.78480725 315.61212158 97.59344482 C315.61657827 99.13201578 315.61657827 99.13201578 315.62112498 100.70166898 C315.62978264 104.13193152 315.63131778 107.56215905 315.6328125 110.99243164 C315.63744293 113.45521621 315.64246789 115.91800006 315.64785767 118.38078308 C315.66096627 125.06944884 315.66746155 131.75810097 315.67186832 138.44677639 C315.67463775 142.63152377 315.67887652 146.81626887 315.6833725 151.00101471 C315.69556407 162.60949432 315.70586162 174.21797211 315.70924759 185.82645798 C315.70946716 186.5687381 315.70968672 187.31101822 315.70991294 188.07579167 C315.71013122 188.81976309 315.7103495 189.5637345 315.71057439 190.3302505 C315.71101784 191.83759864 315.7114644 193.34494678 315.71191406 194.85229492 C315.71213549 195.59997805 315.71235692 196.34766118 315.71258506 197.11800137 C315.71652487 209.20685285 315.73395437 221.29564374 315.75727358 233.38447186 C315.78107552 245.82509412 315.79345355 258.26568612 315.79461551 270.70633149 C315.79552765 277.67931306 315.80116207 284.65221581 315.81943512 291.62517548 C315.83659155 298.19484953 315.83802316 304.76440156 315.82929611 311.33410072 C315.82853092 313.73206546 315.83279918 316.13003852 315.84275436 318.52798271 C315.95443181 347.12934626 312.40831489 372.60108169 293.47167969 395.2746582 C292.9625 395.92950195 292.45332031 396.5843457 291.92871094 397.2590332 C277.29639249 415.32362388 253.73231773 425.09680183 231.15216827 427.84663963 C221.5243767 428.84686025 211.78758606 428.5608001 202.12109375 428.54931641 C199.68668462 428.5536709 197.25227685 428.55885649 194.81787109 428.56480408 C188.92400591 428.57674725 183.03018305 428.57935503 177.13631037 428.57700381 C172.33848554 428.57521111 167.54067445 428.57699056 162.74285126 428.58122826 C161.71336792 428.58212104 161.71336792 428.58212104 160.66308694 428.58303186 C159.26820884 428.58424378 157.87333075 428.58545792 156.47845265 428.58667424 C143.43477884 428.59751851 130.39113096 428.59540222 117.34745571 428.58928939 C105.45633712 428.58412423 93.56530055 428.59537065 81.67419818 428.61438761 C69.41863935 428.63383479 57.16311919 428.64200993 44.90754485 428.63826436 C38.04535327 428.63636255 31.18323142 428.63873922 24.32105255 428.6529789 C17.86288999 428.66624633 11.40484975 428.66353997 4.94668579 428.65056801 C2.59064425 428.64821947 0.23459096 428.65087425 -2.12143707 428.65919113 C-32.01096731 428.75700883 -60.78645699 424.78737378 -82.91894531 402.88793945 C-83.78003906 402.02555664 -84.64113281 401.16317383 -85.52832031 400.2746582 C-86.63433594 399.27499023 -86.63433594 399.27499023 -87.76269531 398.25512695 C-107.16816449 380.39156521 -112.14096461 352.79626371 -113.33027077 327.71233559 C-113.72352136 318.0678141 -113.62719443 308.41787777 -113.58178711 298.76757812 C-113.57489896 296.4722506 -113.56845235 294.17692171 -113.56240845 291.8815918 C-113.54465584 285.70632816 -113.52007967 279.53111052 -113.49364829 273.35587859 C-113.47200305 268.18179832 -113.45342428 263.00770862 -113.43471652 257.83361703 C-113.38786203 244.92955977 -113.33401765 232.02554336 -113.2771906 219.12152681 C-113.22824004 207.94835614 -113.1893157 196.77517602 -113.15495601 185.6019518 C-113.11942192 174.08190095 -113.07642119 162.56190206 -113.02620059 151.04190522 C-112.99819636 144.5930021 -112.97311442 138.14412162 -112.95554161 131.69518089 C-112.93874837 125.63503748 -112.91252513 119.57500524 -112.8792305 113.51493073 C-112.86862093 111.30031742 -112.86127815 109.08568549 -112.85756493 106.87104988 C-112.79979052 75.65811754 -106.63824023 49.12624074 -84.52832031 25.8996582 C-74.05717164 15.94894436 -60.78245618 8.5270955 -46.96582031 4.3996582 C-46.33087646 4.20871582 -45.69593262 4.01777344 -45.04174805 3.82104492 C-30.21461869 -0.26396162 -15.24044404 -0.01784177 0 0 Z " fill="#A6E82F" transform="translate(118.5283203125,5.725341796875)"/>
<path d="M0 0 C0.9022934 -0.00004028 1.80458679 -0.00008057 2.73422241 -0.00012207 C4.64905741 0.00523509 6.56389171 0.02282629 8.47851562 0.05175781 C11.34056862 0.09291777 14.20020656 0.09287759 17.0625 0.0859375 C52.16405669 0.20746132 83.43077281 9.38802251 108.9609375 34.34375 C128.11145154 53.69940175 140.02094122 80.34055138 140.7734375 107.59375 C140.80066895 108.50382812 140.82790039 109.41390625 140.85595703 110.3515625 C141.76097662 145.59609875 133.28736301 175.34789744 109.55859375 202.08984375 C88.84937947 223.69783044 59.08925962 235.10648959 29.45417786 236.10006714 C25.15167828 236.18055722 20.85244334 236.19575288 16.54931641 236.17016602 C13.22071304 236.15602603 9.89478554 236.19086428 6.56640625 236.22851562 C4.43749932 236.22946464 2.30858886 236.22761976 0.1796875 236.22265625 C-0.80874146 236.23591446 -1.79717041 236.24917267 -2.81555176 236.26283264 C-9.45955052 236.17194252 -9.45955052 236.17194252 -12.84375 233.62084961 C-14.72732124 229.49754456 -14.80140034 226.01797846 -14.7578125 221.53125 C-14.7616394 220.66234131 -14.76546631 219.79343262 -14.76940918 218.89819336 C-14.77212429 217.06590614 -14.76479117 215.2335799 -14.74804688 213.40136719 C-14.72663048 210.60263353 -14.74786105 207.80646667 -14.7734375 205.0078125 C-14.77079415 203.22395269 -14.76566902 201.44009447 -14.7578125 199.65625 C-14.76590942 198.82279053 -14.77400635 197.98933105 -14.78234863 197.13061523 C-14.72059039 193.28897611 -14.44732212 191.00770765 -12.61132812 187.56494141 C-9.45146669 184.95307396 -7.61202859 184.98062908 -3.5390625 184.9921875 C-2.88827225 184.98545013 -2.23748199 184.97871277 -1.56697083 184.97177124 C-0.17480309 184.95848406 1.21749394 184.95546109 2.60971069 184.96179199 C6.24469632 184.9734812 9.87765572 184.89566733 13.51171875 184.8203125 C14.22870438 184.80669678 14.94569 184.79308105 15.68440247 184.77905273 C32.66490193 184.39822279 53.88280462 181.69084037 66.421875 168.9140625 C67.7734375 167.59375 67.7734375 167.59375 69.7734375 167.59375 C70.04671875 166.995625 70.32 166.3975 70.6015625 165.78125 C71.73504226 163.66542111 72.86516886 162.30551118 74.5234375 160.59375 C86.46368551 146.87702607 89.81360319 127.19814159 88.7734375 109.59375 C87.03678092 93.59914294 79.09977656 77.83378252 67.0234375 67.1640625 C60.45104968 61.94380655 53.77924798 58.13262971 45.7734375 55.59375 C45.02247803 55.33480957 44.27151855 55.07586914 43.49780273 54.80908203 C32.26897522 51.41481095 20.47643944 52.17617546 8.86303711 52.23339844 C5.99021039 52.24195488 3.11879565 52.22034221 0.24609375 52.1953125 C-0.63102768 52.20865631 -1.50814911 52.22200012 -2.41184998 52.23574829 C-6.56549578 52.18540601 -8.71307302 51.92325449 -12.27709961 49.63623047 C-14.95826529 45.45179881 -14.94834978 42.19078954 -14.890625 37.3125 C-14.89540863 36.42139526 -14.90019226 35.53029053 -14.90512085 34.61218262 C-14.90851522 32.73281076 -14.89934512 30.8533795 -14.87841797 28.97412109 C-14.85164406 26.10249802 -14.87817961 23.23478321 -14.91015625 20.36328125 C-14.90685207 18.53384557 -14.90044566 16.70441231 -14.890625 14.875 C-14.90074615 14.01966675 -14.91086731 13.1643335 -14.92129517 12.28308105 C-14.84085316 8.17781473 -14.5330137 6.06835335 -12.26171875 2.55078125 C-8.08412171 -0.14288171 -4.87485637 -0.0934613 0 0 Z " fill="#010200" transform="translate(219.2265625,101.40625)"/>
<path d="M0 0 C0.82638977 -0.00570007 1.65277954 -0.01140015 2.50421143 -0.01727295 C4.25604979 -0.02672851 6.00790598 -0.03325913 7.75976562 -0.03710938 C10.42870582 -0.04678646 13.09686656 -0.07779206 15.765625 -0.109375 C17.46874543 -0.11590804 19.17187137 -0.12115733 20.875 -0.125 C21.66896179 -0.1373468 22.46292358 -0.1496936 23.28094482 -0.16241455 C28.13077646 -0.143108 31.55491162 0.41508481 35.703125 3.203125 C37.77892766 6.39794764 37.95949085 9.0047423 37.97727966 12.76889038 C37.99224236 14.46799812 37.99224236 14.46799812 38.00750732 16.20143127 C38.008172 17.4399736 38.00883667 18.67851593 38.00952148 19.95458984 C38.017845 21.26226822 38.02616852 22.56994659 38.03474426 23.91725159 C38.05667517 27.5020226 38.06548616 31.08670832 38.07057071 34.67153883 C38.07421576 36.91222741 38.08045658 39.15289369 38.0875721 41.39357376 C38.11206111 49.21356435 38.12511743 57.03348865 38.12866211 64.85351562 C38.13229762 72.1381725 38.16219508 79.42240812 38.20406669 86.70693624 C38.23877608 92.96524763 38.25421065 99.22341944 38.25490814 105.48182642 C38.25570071 109.21791262 38.26442928 112.95356954 38.29290581 116.68955612 C38.32396603 120.85762958 38.31502389 125.02470078 38.30249023 129.19287109 C38.31732452 130.42736496 38.33215881 131.66185883 38.34744263 132.9337616 C38.2674613 142.25907306 38.2674613 142.25907306 35.44487 145.97071838 C32.69093423 148.21305107 31.70207128 148.95180887 28.23583984 148.93188477 C27.38500824 148.94111465 26.53417664 148.95034454 25.65756226 148.95985413 C24.29952988 148.9275193 24.29952988 148.9275193 22.9140625 148.89453125 C21.97382233 148.89315659 21.03358215 148.89178192 20.06484985 148.8903656 C18.0828308 148.88132304 16.10083154 148.85773749 14.11914062 148.82055664 C11.08126616 148.76568174 8.04613154 148.75902841 5.0078125 148.75976562 C3.0807054 148.74502211 1.15361689 148.72753799 -0.7734375 148.70703125 C-1.68284088 148.70369278 -2.59224426 148.70035431 -3.52920532 148.69691467 C-4.3737326 148.67777512 -5.21825989 148.65863556 -6.08837891 148.63891602 C-6.83052643 148.62748062 -7.57267395 148.61604523 -8.33731079 148.60426331 C-10.85505322 148.0888615 -11.72785592 147.207778 -13.296875 145.203125 C-14.32917681 142.10621958 -14.4300812 139.95996126 -14.44404602 136.71292114 C-14.45120132 135.571698 -14.45835663 134.43047485 -14.46572876 133.25466919 C-14.46841766 132.0016098 -14.47110657 130.74855042 -14.47387695 129.45751953 C-14.48044815 128.13862732 -14.48701935 126.81973511 -14.49378967 125.46087646 C-14.5148115 121.08590915 -14.52518868 116.71094155 -14.53515625 112.3359375 C-14.53920418 110.8294358 -14.54332111 109.32293428 -14.54750633 107.81643295 C-14.56655203 100.74018285 -14.58078568 93.66394315 -14.5891183 86.58767235 C-14.59889591 78.41931712 -14.62523145 70.2512325 -14.66561919 62.08297265 C-14.69576917 55.76865887 -14.71058601 49.45442274 -14.71389931 43.14003837 C-14.71625065 39.36881174 -14.7252218 35.59787443 -14.75036049 31.82672501 C-14.77362771 28.27913533 -14.77788029 24.73202575 -14.76759911 21.18437958 C-14.76686714 19.26375726 -14.78596688 17.34315939 -14.80566406 15.42263794 C-14.79872025 14.27577515 -14.79177643 13.12891235 -14.78462219 11.94729614 C-14.78701055 10.9528908 -14.7893989 9.95848545 -14.79185963 8.93394661 C-14.15818274 5.43796221 -12.71955003 3.75184701 -10.296875 1.203125 C-7.0716339 -0.40949555 -3.54432146 0.01878034 0 0 Z " fill="#020300" transform="translate(128.296875,188.796875)"/>
<path d="M0 0 C0.91330078 -0.0071553 1.82660156 -0.01431061 2.76757812 -0.02168274 C4.6940005 -0.02944958 6.6205111 -0.02446911 8.546875 -0.00756836 C11.49127426 0.01166176 14.43095493 -0.02774088 17.375 -0.07226562 C19.2500028 -0.07255599 21.12500993 -0.06941585 23 -0.0625 C23.87720703 -0.07778244 24.75441406 -0.09306488 25.65820312 -0.10881042 C30.16331667 -0.0230902 31.96775435 0.26347451 35.55664062 3.20166016 C38.19557064 7.0735593 38.18902526 10.86273749 38.09375 15.421875 C38.09379028 16.24497665 38.09383057 17.06807831 38.09387207 17.91612244 C38.08853259 19.64834266 38.07101717 21.38056356 38.04199219 23.11254883 C38.000068 25.75742896 38.00093367 28.39976474 38.0078125 31.04492188 C37.99732095 32.73309053 37.98438302 34.42124613 37.96875 36.109375 C37.96854858 36.89594986 37.96834717 37.68252472 37.96813965 38.49293518 C37.87035704 43.04685095 37.34612613 46.08625846 34.5 49.69921875 C32.22873736 50.83485007 30.91357158 50.84865172 28.38916016 50.89208984 C27.54132965 50.90815277 26.69349915 50.9242157 25.81997681 50.94076538 C21.94574776 50.98519413 18.07168971 51.02626919 14.19726562 51.04931641 C12.1525536 51.06588988 10.10789984 51.09319813 8.06347656 51.13134766 C5.11753245 51.1860431 2.17294557 51.20797761 -0.7734375 51.22265625 C-1.68709076 51.24532562 -2.60074402 51.267995 -3.54208374 51.29135132 C-7.61840669 51.27774964 -9.77157163 51.25599602 -13.07250977 48.73291016 C-15.0124177 44.61023254 -15.09323176 41.14449378 -15.06640625 36.63671875 C-15.07260483 35.76781006 -15.07880341 34.89890137 -15.08518982 34.00366211 C-15.09227575 32.17139809 -15.08913539 30.33906951 -15.07641602 28.50683594 C-15.06254242 25.70777715 -15.0966452 22.91205829 -15.13476562 20.11328125 C-15.13571683 18.32942627 -15.13385794 16.54556711 -15.12890625 14.76171875 C-15.14216446 13.92825928 -15.15542267 13.0947998 -15.16908264 12.23608398 C-15.10447004 8.19266974 -14.78783951 6.14641927 -12.55444336 2.67651367 C-8.31728254 -0.06641379 -4.95473956 -0.03944838 0 0 Z " fill="#010300" transform="translate(128.5,102.30078125)"/>
<path d="M0 0 C31.92430101 -0.0685797 63.84858089 -0.12160203 95.77293845 -0.15319599 C99.55012315 -0.15694768 103.32730771 -0.16083069 107.10449219 -0.16479492 C107.85639614 -0.16558185 108.60830009 -0.16636878 109.382989 -0.16717956 C121.52468813 -0.18019934 133.66634422 -0.20383408 145.80801789 -0.23145839 C158.28569906 -0.25960837 170.76335783 -0.27619643 183.24106944 -0.28226548 C190.92764939 -0.28636214 198.61410767 -0.29925523 206.30065013 -0.3237494 C212.21527669 -0.341626 218.12984232 -0.34334162 224.04449654 -0.33932304 C226.45577934 -0.34014249 228.86706712 -0.34603044 231.27832222 -0.35761642 C275.09050089 -0.55765143 275.09050089 -0.55765143 289 11 C286.99722415 10.68377223 284.99810662 10.34450114 283 10 C282.14535156 9.85433594 281.29070312 9.70867188 280.41015625 9.55859375 C279.51167969 9.39488281 278.61320312 9.23117187 277.6875 9.0625 C276.82511719 8.90910156 275.96273438 8.75570313 275.07421875 8.59765625 C274.38972656 8.40042969 273.70523437 8.20320312 273 8 C272.67 7.34 272.34 6.68 272 6 C265.66460395 3.74577769 258.65082831 3.47239528 252 3 C252 2.34 252 1.68 252 1 C168.84 1 85.68 1 0 1 C0 0.67 0 0.34 0 0 Z " fill="#A8DA49" transform="translate(94,6)"/>
<path d="M0 0 C0.33 0 0.66 0 1 0 C1.17303612 5.10456549 0.95792436 8.27794713 -1 13 C-2.12057233 19.51692331 -2.15148837 26.094144 -2.15821838 32.68714905 C-2.16315636 33.72797762 -2.16809434 34.76880619 -2.17318195 35.84117502 C-2.18847252 39.30956112 -2.19689458 42.77792884 -2.20532227 46.24633789 C-2.21490743 48.74024617 -2.22491788 51.23415286 -2.23532104 53.72805786 C-2.25672349 59.0874128 -2.27518097 64.44676535 -2.29092598 69.80613899 C-2.31369541 77.55477121 -2.34182817 85.30337677 -2.37124526 93.05198627 C-2.41883479 105.62538463 -2.46212221 118.19879395 -2.50268555 130.7722168 C-2.54208455 142.98186087 -2.58352124 155.19149524 -2.62768555 167.40112305 C-2.63040982 168.15446842 -2.63313409 168.90781379 -2.63594092 169.6839878 C-2.64962112 173.46352224 -2.66334125 177.24305653 -2.67708123 181.02259076 C-2.7909102 212.34837378 -2.89767739 243.67417718 -3 275 C-3.33 275 -3.66 275 -4 275 C-4.92379561 260.81603152 -5.12033227 246.70366546 -5.0534668 232.49291992 C-5.04657864 230.19759239 -5.04013204 227.9022635 -5.03408813 225.60693359 C-5.01633553 219.43166996 -4.99175936 213.25645231 -4.96532798 207.08122039 C-4.94368274 201.90714011 -4.92510397 196.73305042 -4.90639621 191.55895883 C-4.85954172 178.65490157 -4.80569734 165.75088516 -4.74887029 152.84686861 C-4.69991972 141.67369794 -4.66099539 130.50051781 -4.62663569 119.3272936 C-4.59110161 107.80724275 -4.54810088 96.28724386 -4.49788028 84.76724702 C-4.46987605 78.31834389 -4.44479411 71.86946341 -4.4272213 65.42052269 C-4.41042806 59.36037927 -4.38420482 53.30034704 -4.35091019 47.24027252 C-4.34030062 45.02565921 -4.33295783 42.81102729 -4.32924461 40.59639168 C-4.27785628 12.83356883 -4.27785628 12.83356883 0 0 Z " fill="#A4D940" transform="translate(10,72)"/>
<path d="M0 0 C8.00788313 12.0118247 5.4065387 32.54005652 5.34057617 46.26806641 C5.3397282 48.76330047 5.34020836 51.25853529 5.34190369 53.75376892 C5.34258223 59.08847356 5.33418979 64.42304078 5.31719017 69.7577095 C5.29262901 77.47036733 5.28497758 85.18297217 5.2812262 92.89566486 C5.27468828 105.41419763 5.25480001 117.93267118 5.22631836 130.45117188 C5.19870845 142.59928088 5.17750898 154.7473737 5.16479492 166.89550781 C5.16400675 167.64648867 5.16321858 168.39746953 5.16240653 169.17120738 C5.15849092 172.93930589 5.15469992 176.70740451 5.15097082 180.47550321 C5.11995789 211.65037851 5.06696967 242.82518019 5 274 C4.67 274 4.34 274 4 274 C3.99576806 272.70733499 3.99153612 271.41466997 3.98717594 270.08283329 C3.88660156 239.42963992 3.78091183 208.77646897 3.66888306 178.12331549 C3.65511271 174.3542645 3.64138573 170.58521335 3.62768555 166.81616211 C3.62359309 165.69058911 3.62359309 165.69058911 3.61941796 164.54227727 C3.57528697 152.37619188 3.53467267 140.21009715 3.49534739 128.04399539 C3.45494826 115.56976932 3.4107946 103.09556066 3.36312145 90.62136024 C3.3338002 82.91790085 3.30744278 75.21444284 3.28482103 67.51096081 C3.26719106 61.61391276 3.24434923 55.71689233 3.21950912 49.81987 C3.21011733 47.39339743 3.20244978 44.96691753 3.19658089 42.54043388 C3.18835572 39.24331395 3.17408945 35.94627582 3.15821838 32.64918518 C3.15724028 31.67547 3.15626217 30.70175482 3.15525442 29.69853312 C3.14977998 28.82220978 3.14430554 27.94588644 3.1386652 27.04300785 C3.13467814 25.8998598 3.13467814 25.8998598 3.13061053 24.73361784 C3.18718025 22.96985168 3.18718025 22.96985168 2 22 C1.67473295 18.63890715 1.4864054 15.2766601 1.28125 11.90625 C1.3214011 9.10949868 1.3214011 9.10949868 0 8 C-0.14115161 5.32941149 -0.04247107 2.67567762 0 0 Z " fill="#A0D142" transform="translate(429,72)"/>
<path d="M0 0 C0.99 0.33 1.98 0.66 3 1 C1.78055191 1.8356675 1.78055191 1.8356675 0.53646851 2.68821716 C-3.02690734 6.29950096 -2.59811065 10.37548706 -2.63320923 15.20840454 C-2.61680389 16.45584442 -2.60039856 17.7032843 -2.58349609 18.98852539 C-2.58372292 20.32265934 -2.58613927 21.65679443 -2.59057617 22.99092102 C-2.59627553 26.60680146 -2.57101427 30.2218735 -2.53990126 33.83759999 C-2.51232334 37.62334806 -2.5123595 41.40909818 -2.50918579 45.19493103 C-2.49998695 51.55107579 -2.47247083 57.90691921 -2.43212891 64.26293945 C-2.37529678 73.22520949 -2.35297502 82.18732788 -2.33684421 91.14974988 C-2.32438493 97.36023036 -2.30371194 103.5706879 -2.2814641 109.78114009 C-2.27610407 111.28633445 -2.27096737 112.79152963 -2.26605177 114.29672551 C-2.24954273 119.24484315 -2.22354696 124.19281869 -2.19287109 129.14086914 C-2.18861115 130.39033325 -2.1843512 131.63979736 -2.17996216 132.92712402 C-2.17136169 134.06972183 -2.16276123 135.21231964 -2.15390015 136.38954163 C-2.14832785 137.38227113 -2.14275555 138.37500063 -2.13701439 139.39781284 C-2.01318987 141.74949711 -1.66888813 143.75026429 -1 146 C-1.99 145.67 -2.98 145.34 -4 145 C-4.04670284 126.81536006 -4.08198042 108.63073567 -4.10362434 90.44604874 C-4.11394072 82.00274909 -4.12800795 73.55948668 -4.15087891 65.11621094 C-4.17080173 57.75779628 -4.18371381 50.39940859 -4.18817699 43.0409677 C-4.19078625 39.14406098 -4.19692664 35.24723143 -4.21146011 31.35034943 C-4.22502654 27.68308178 -4.22922455 24.01592316 -4.22621536 20.34863281 C-4.22702863 18.3598288 -4.2377952 16.37103669 -4.24884033 14.38226318 C-4.246091 13.19878296 -4.24334167 12.01530273 -4.24050903 10.79595947 C-4.24235262 9.7672385 -4.24419621 8.73851753 -4.24609566 7.6786232 C-3.99337902 4.9279341 -3.50242866 3.30142465 -2 1 C-1.34 0.67 -0.68 0.34 0 0 Z " fill="#9ACC41" transform="translate(117,189)"/>
<path d="M0 0 C0.91330078 -0.00902847 1.82660156 -0.01805695 2.76757812 -0.02735901 C4.6939772 -0.04183293 6.62042511 -0.05074112 8.546875 -0.05444336 C11.49042299 -0.06636745 14.43189227 -0.1156031 17.375 -0.16601562 C19.2499898 -0.17547748 21.12499243 -0.18271365 23 -0.1875 C23.87720703 -0.20703232 24.75441406 -0.22656464 25.65820312 -0.24668884 C30.23318397 -0.21295887 31.92631763 -0.09896181 35.59375 2.90600586 C36.2228125 3.71948486 36.851875 4.53296387 37.5 5.37109375 C36.51 5.37109375 35.52 5.37109375 34.5 5.37109375 C33.84 4.71109375 33.18 4.05109375 32.5 3.37109375 C30.6319837 3.05293193 30.6319837 3.05293193 28.48095703 3.08056641 C27.2392424 3.06142685 27.2392424 3.06142685 25.97244263 3.04190063 C25.07661469 3.03967499 24.18078674 3.03744934 23.2578125 3.03515625 C22.3378952 3.02849945 21.41797791 3.02184265 20.47018433 3.01498413 C18.52164717 3.00484744 16.57307522 3.00016742 14.62451172 3.00048828 C11.64362236 2.99612103 8.66422034 2.95982907 5.68359375 2.921875 C3.79167174 2.91600587 1.89974268 2.91203712 0.0078125 2.91015625 C-0.88396698 2.89578522 -1.77574646 2.88141418 -2.69454956 2.86660767 C-6.37478628 2.89375677 -8.8207443 2.99306982 -12.06982422 4.80126953 C-14.28131463 8.77500597 -13.99341687 12.47782261 -13.890625 16.94921875 C-13.88496521 17.87579285 -13.87930542 18.80236694 -13.87347412 19.75701904 C-13.85110921 22.71223937 -13.80091262 25.6662408 -13.75 28.62109375 C-13.72993515 30.62628455 -13.71168435 32.63149439 -13.6953125 34.63671875 C-13.651244 39.54864569 -13.58221555 44.45966317 -13.5 49.37109375 C-14.16 49.37109375 -14.82 49.37109375 -15.5 49.37109375 C-15.52469492 43.15975231 -15.54285758 36.94843937 -15.55493164 30.73706055 C-15.55996444 28.62344871 -15.5667912 26.50984037 -15.57543945 24.39624023 C-15.58755104 21.36050557 -15.59323881 18.32481689 -15.59765625 15.2890625 C-15.60281754 14.34210007 -15.60797882 13.39513763 -15.61329651 12.41947937 C-15.61337204 11.53879288 -15.61344757 10.65810638 -15.61352539 9.75073242 C-15.615746 8.97573898 -15.61796661 8.20074554 -15.62025452 7.40226746 C-15.5 5.37109375 -15.5 5.37109375 -14.5 2.37109375 C-10.00136051 -0.28937397 -5.0692558 0.0309903 0 0 Z " fill="#99C840" transform="translate(128.5,100.62890625)"/>
<path d="M0 0 C0.33 0 0.66 0 1 0 C1.07419487 3.85813342 1.11112389 7.29625368 0 11 C-0.12375 11.86625 -0.2475 12.7325 -0.375 13.625 C-1 16 -1 16 -4 18 C-4.72382467 20.05925139 -4.72382467 20.05925139 -5 22 C-5.66 22 -6.32 22 -7 22 C-6.896875 22.86625 -6.79375 23.7325 -6.6875 24.625 C-7.1187383 29.28237362 -8.72729512 30.72729512 -12 34 C-12.66 34 -13.32 34 -14 34 C-14.33 35.32 -14.66 36.64 -15 38 C-15.66 38 -16.32 38 -17 38 C-15.65463952 34.34270936 -13.97155388 31.2764749 -11.875 28 C-6.64458172 19.23492011 -3.43534801 9.57537659 0 0 Z " fill="#A4D93D" transform="translate(356,253)"/>
<path d="M0 0 C5.13376039 1.89196773 6.31174479 5.86087543 8.5390625 10.55859375 C11.64907498 17.88458571 14.31176507 24.96605406 14 33 C13.67 33 13.34 33 13 33 C12.8040625 32.175 12.608125 31.35 12.40625 30.5 C10.1448939 21.76648679 6.89571663 14.25448726 2.70703125 6.30078125 C1 3 1 3 0 0 Z " fill="#A4D442" transform="translate(343,155)"/>
<path d="M0 0 C0.8125 1.625 0.8125 1.625 1 4 C-0.46818136 6.24609835 -2.15852858 8.02378677 -4 10 C-5.65 9.67 -7.3 9.34 -9 9 C-9.66 10.65 -10.32 12.3 -11 14 C-11.99 13.67 -12.98 13.34 -14 13 C-10.38671875 8.3125 -10.38671875 8.3125 -9 7 C-8.01 7 -7.02 7 -6 7 C-5.938125 6.401875 -5.87625 5.80375 -5.8125 5.1875 C-4.6763243 2.12856542 -2.82669858 1.44958901 0 0 Z " fill="#A3E136" transform="translate(347,284)"/>
<path d="M0 0 C5.14623653 -0.32848318 8.90175954 0.45212847 13.734375 2.2109375 C15.87607347 2.95683938 17.97700981 3.50221786 20.1875 4 C23.80005827 4.94755627 26.73859175 6.20622546 30 8 C30 8.66 30 9.32 30 10 C28.80375 9.5875 27.6075 9.175 26.375 8.75 C19.98020962 6.61503043 13.48836049 4.82531326 7 3 C4.66607715 2.33537676 2.33300408 1.66784468 0 1 C0 0.67 0 0.34 0 0 Z " fill="#96C43E" transform="translate(265,103)"/>
<path d="M0 0 C1.38986115 0.00636726 1.38986115 0.00636726 2.80780029 0.01286316 C5.76278934 0.02963553 8.71709261 0.0672852 11.671875 0.10546875 C13.67707347 0.12051745 15.68228265 0.13420553 17.6875 0.14648438 C22.59922196 0.17953437 27.51043226 0.23130693 32.421875 0.29296875 C32.421875 0.62296875 32.421875 0.95296875 32.421875 1.29296875 C31.2258667 1.31278809 30.0298584 1.33260742 28.79760742 1.35302734 C24.36379806 1.42905147 19.93031826 1.51777372 15.49682617 1.61035156 C13.57729596 1.64865452 11.65769365 1.68350508 9.73803711 1.71484375 C6.9800437 1.76046577 4.22254723 1.81846455 1.46484375 1.87890625 C0.17564278 1.89623306 0.17564278 1.89623306 -1.13960266 1.91390991 C-1.94020615 1.9337796 -2.74080963 1.95364929 -3.56567383 1.97412109 C-4.2696077 1.98744476 -4.97354156 2.00076843 -5.69880676 2.01449585 C-7.90909964 2.2054106 -7.90909964 2.2054106 -10.578125 4.29296875 C-11.568125 3.96296875 -12.558125 3.63296875 -13.578125 3.29296875 C-9.71500691 -0.79157196 -5.22218501 -0.09003868 0 0 Z " fill="#061700" transform="translate(128.578125,102.70703125)"/>
<path d="M0 0 C4.95258714 3.77339973 8.43679155 7.90789714 12 13 C11.67 13.66 11.34 14.32 11 15 C10.071875 14.360625 9.14375 13.72125 8.1875 13.0625 C5.15780057 10.91377907 5.15780057 10.91377907 2 10 C1.7834375 8.63875 1.7834375 8.63875 1.5625 7.25 C1.13590527 4.78523044 0.64925779 2.41152893 0 0 Z " fill="#A9DF3C" transform="translate(406,33)"/>
<path d="M0 0 C0.66 0 1.32 0 2 0 C2.15855469 0.56847656 2.31710938 1.13695312 2.48046875 1.72265625 C3.74889625 5.92038041 5.00950226 9.29193461 7.75 12.75 C10 16 10 16 9.8125 18.9375 C9.544375 19.618125 9.27625 20.29875 9 21 C4.27112514 15.1096471 0.61509175 7.58613158 0 0 Z " fill="#A9D64B" transform="translate(11,368)"/>
<path d="M0 0 C4.10110762 1.40398279 6.98089159 3.37087038 10.3125 6.125 C11.19550781 6.84945313 12.07851563 7.57390625 12.98828125 8.3203125 C13.65214844 8.87460937 14.31601562 9.42890625 15 10 C14.67 10.66 14.34 11.32 14 12 C13.401875 11.505 12.80375 11.01 12.1875 10.5 C10.02970006 8.71723582 10.02970006 8.71723582 7 9 C7 8.34 7 7.68 7 7 C5.68 6.34 4.36 5.68 3 5 C3 4.34 3 3.68 3 3 C2.01 2.67 1.02 2.34 0 2 C0 1.34 0 0.68 0 0 Z " fill="#A5D543" transform="translate(390,21)"/>
<path d="M0 0 C1.65 0.33 3.3 0.66 5 1 C1.96943208 3.44168979 -1.09018596 5.13027389 -4.625 6.75 C-6.06746094 7.42289062 -6.06746094 7.42289062 -7.5390625 8.109375 C-8.35117187 8.40328125 -9.16328125 8.6971875 -10 9 C-10.66 8.67 -11.32 8.34 -12 8 C-11.67 7.34 -11.34 6.68 -11 6 C-9.68 6 -8.36 6 -7 6 C-7 5.34 -7 4.68 -7 4 C-6.21625 3.896875 -5.4325 3.79375 -4.625 3.6875 C-1.66954819 3.22404978 -1.66954819 3.22404978 0 0 Z " fill="#A9D742" transform="translate(384,419)"/>
<path d="M0 0 C0.6015625 1.87109375 0.6015625 1.87109375 1 4 C-2.32152074 8.21577633 -6.71164517 11.02067503 -12 12 C-8 8 -4 4 0 0 Z " fill="#A6D940" transform="translate(332,299)"/>
<path d="M0 0 C0.33 0 0.66 0 1 0 C1.17303612 5.10456549 0.95792436 8.27794713 -1 13 C-1.46113609 15.98978344 -1.75045912 18.9858089 -2 22 C-2.66 21.67 -3.32 21.34 -4 21 C-2.07289294 6.21867882 -2.07289294 6.21867882 0 0 Z " fill="#AAD84C" transform="translate(10,72)"/>
<path d="M0 0 C0.33 0.99 0.66 1.98 1 3 C0 5 0 5 -2.25 6.1875 C-5.41022073 8.27037275 -6.88375758 10.42298016 -8.88671875 13.57421875 C-9.25410156 14.04472656 -9.62148438 14.51523437 -10 15 C-10.66 15 -11.32 15 -12 15 C-10.58397787 11.85093585 -8.86264918 9.50476328 -6.5625 6.9375 C-5.96566406 6.26589844 -5.36882813 5.59429687 -4.75390625 4.90234375 C-3.20703058 3.2245521 -1.62828434 1.59840757 0 0 Z " fill="#A7D34F" transform="translate(37,29)"/>
<path d="M0 0 C1.9375 0.8125 1.9375 0.8125 4 2 C4.33 2.99 4.66 3.98 5 5 C4.01 5.99 3.02 6.98 2 8 C0.35 6.02 -1.3 4.04 -3 2 C-2.01 2 -1.02 2 0 2 C0 1.34 0 0.68 0 0 Z " fill="#9AD437" transform="translate(328,131)"/>
<path d="M0 0 C-3.64634572 2.33366126 -6.76386422 2.07992709 -11 2 C-11.33 2.33 -11.66 2.66 -12 3 C-13.99958364 3.04080783 -16.00045254 3.04254356 -18 3 C-13.5877825 -1.4122175 -5.76159529 -1.51620929 0 0 Z " fill="#ABDF3D" transform="translate(79,12)"/>
<path d="M0 0 C0.33 0.66 0.66 1.32 1 2 C0.67 2.66 0.34 3.32 0 4 C-0.66 4 -1.32 4 -2 4 C-2 4.99 -2 5.98 -2 7 C-3.98 7.99 -3.98 7.99 -6 9 C-6.99 8.34 -7.98 7.68 -9 7 C-6.03 4.69 -3.06 2.38 0 0 Z " fill="#A4D841" transform="translate(319,311)"/>
<path d="M0 0 C1.2879075 2.12125941 2.05533862 3.42816762 1.8125 5.9375 C0.79701418 8.5152717 -0.41965 10.724296 -2 13 C-2.66 13 -3.32 13 -4 13 C-3.52140759 11.39566191 -3.04210442 9.79153584 -2.5625 8.1875 C-2.29566406 7.29417969 -2.02882813 6.40085938 -1.75390625 5.48046875 C-1.19612127 3.64526945 -0.60655425 1.81966274 0 0 Z " fill="#1B2D06" transform="translate(306,237)"/>
<path d="M0 0 C0 3.72207387 -1.17964568 5.46395589 -3 8.6875 C-3.8353125 10.17830078 -3.8353125 10.17830078 -4.6875 11.69921875 C-5.3371875 12.83810547 -5.3371875 12.83810547 -6 14 C-6.66 14 -7.32 14 -8 14 C-6.6744419 10.37723685 -5.05653045 7.36494652 -2.875 4.1875 C-2.33617187 3.39730469 -1.79734375 2.60710938 -1.2421875 1.79296875 C-0.83226562 1.20128906 -0.42234375 0.60960937 0 0 Z " fill="#A8DB50" transform="translate(24,44)"/>
<path d="M0 0 C-3.96 3.465 -3.96 3.465 -8 7 C-8.33 6.34 -8.66 5.68 -9 5 C-5.70810811 -1.42702703 -5.70810811 -1.42702703 0 0 Z " fill="#ACDB40" transform="translate(403,410)"/>
<path d="M0 0 C4.97306516 0.49730652 8.63799813 1.55302334 13 4 C13 4.66 13 5.32 13 6 C11.58208592 5.54554036 10.16571954 5.08625056 8.75 4.625 C7.96109375 4.36976562 7.1721875 4.11453125 6.359375 3.8515625 C4.13372042 3.04826333 2.09068328 2.10288338 0 1 C0 0.67 0 0.34 0 0 Z " fill="#9ED043" transform="translate(282,107)"/>
<path d="M0 0 C-1.45537568 0.83848804 -2.91440373 1.67063934 -4.375 2.5 C-5.59316406 3.19609375 -5.59316406 3.19609375 -6.8359375 3.90625 C-9 5 -9 5 -11 5 C-11 4.34 -11 3.68 -11 3 C-4.03571429 -1.41964286 -4.03571429 -1.41964286 0 0 Z " fill="#A4D744" transform="translate(279,276)"/>
<path d="M0 0 C2.375 0.5625 2.375 0.5625 5 2 C6.3125 5.625 6.3125 5.625 7 9 C3.26115668 6.34345343 1.35021826 4.41889613 0 0 Z " fill="#A7D841" transform="translate(23,393)"/>
<path d="M0 0 C0 0.99 0 1.98 0 3 C-5.078125 6.22265625 -5.078125 6.22265625 -7 7 C-8.32 6.67 -9.64 6.34 -11 6 C-7.37 4.02 -3.74 2.04 0 0 Z " fill="#9CCB45" transform="translate(308,319)"/>
<path d="M0 0 C2.27795022 2.27795022 3.05219877 3.93787293 4 7 C3.625 9.3125 3.625 9.3125 3 11 C0.39665076 8.28817788 0.00543309 7.10866187 -0.1875 3.25 C-0.125625 2.1775 -0.06375 1.105 0 0 Z " fill="#A7D849" transform="translate(425,61)"/>
<path d="M0 0 C2.475 0.99 2.475 0.99 5 2 C5 2.66 5 3.32 5 4 C5.99 4 6.98 4 8 4 C7.67 4.99 7.34 5.98 7 7 C5.02 6.34 3.04 5.68 1 5 C0.67 3.35 0.34 1.7 0 0 Z " fill="#A9E138" transform="translate(115,151)"/>
<path d="M0 0 C3.92234364 0.54730376 7.45779454 1.17829434 11 3 C11.33 3.99 11.66 4.98 12 6 C8.98782888 5.35550393 6.48344164 4.34977818 3.75 2.9375 C3.04359375 2.57527344 2.3371875 2.21304688 1.609375 1.83984375 C1.07828125 1.56269531 0.5471875 1.28554687 0 1 C0 0.67 0 0.34 0 0 Z " fill="#9FCE43" transform="translate(296,113)"/>
<path d="M0 0 C0 3.99904969 -1.72586967 5.80200422 -4 9 C-5.0625 7.125 -5.0625 7.125 -6 5 C-4.73775586 2.47551173 -3.49988984 2.17182336 -1 1 C-0.67 0.67 -0.34 0.34 0 0 Z " fill="#A7DC47" transform="translate(418,390)"/>
<path d="M0 0 C0.33 0.66 0.66 1.32 1 2 C0.0625 4.625 0.0625 4.625 -1 7 C-1.66 7 -2.32 7 -3 7 C-3.33 8.32 -3.66 9.64 -4 11 C-4.66 11 -5.32 11 -6 11 C-4.54955729 6.89041233 -2.48889248 3.56741255 0 0 Z " fill="#98C63D" transform="translate(345,280)"/>
<path d="M0 0 C3.34998521 1.11666174 3.79340222 1.74694925 5.6875 4.5625 C6.12449219 5.20316406 6.56148438 5.84382812 7.01171875 6.50390625 C7.33785156 6.99761719 7.66398437 7.49132812 8 8 C7.34 8.66 6.68 9.32 6 10 C5.67 8.68 5.34 7.36 5 6 C4.34 6 3.68 6 3 6 C0 2.53846154 0 2.53846154 0 0 Z " fill="#A2D144" transform="translate(290,173)"/>
<path d="M0 0 C0.66 0 1.32 0 2 0 C1.35550393 3.01217112 0.34977818 5.51655836 -1.0625 8.25 C-1.42472656 8.95640625 -1.78695313 9.6628125 -2.16015625 10.390625 C-2.43730469 10.92171875 -2.71445313 11.4528125 -3 12 C-4.21386936 8.35839192 -3.6674695 7.66834531 -2.0625 4.3125 C-1.49208984 3.10013672 -1.49208984 3.10013672 -0.91015625 1.86328125 C-0.60980469 1.24839844 -0.30945313 0.63351563 0 0 Z " fill="#ABD750" transform="translate(15,59)"/>
<path d="M0 0 C0 0.66 0 1.32 0 2 C-7.42857143 4.42857143 -7.42857143 4.42857143 -11 3 C-4.5 0 -4.5 0 0 0 Z " fill="#A9D544" transform="translate(371,427)"/>
<path d="M0 0 C1.47118907 3.82509158 0.45442741 6.28312995 -1 10 C-1.33 10.66 -1.66 11.32 -2 12 C-2.66 12 -3.32 12 -4 12 C-2.66666667 8 -1.33333333 4 0 0 Z " fill="#8EBB39" transform="translate(353,261)"/>
<path d="M0 0 C0.99 0 1.98 0 3 0 C6 3.33333333 6 3.33333333 6 6 C3.97954558 5.39816251 1.97888961 4.72693904 0 4 C-0.33 3.34 -0.66 2.68 -1 2 C-0.67 1.34 -0.34 0.68 0 0 Z " fill="#A7DF3E" transform="translate(419,55)"/>
<path d="M0 0 C2.0625 1.6875 2.0625 1.6875 4 4 C3.75 6.75 3.75 6.75 3 9 C0.90250005 6.64031256 0.03094296 5.45383006 -0.1875 2.25 C-0.125625 1.5075 -0.06375 0.765 0 0 Z " fill="#A7DE43" transform="translate(17,380)"/>
<path d="M0 0 C0.33 0.66 0.66 1.32 1 2 C0.22265625 3.9453125 0.22265625 3.9453125 -0.9375 6.125 C-1.31777344 6.84945313 -1.69804687 7.57390625 -2.08984375 8.3203125 C-2.39019531 8.87460937 -2.69054687 9.42890625 -3 10 C-4.26339822 6.20980534 -3.49719015 4.62477616 -2 1 C-1.34 0.67 -0.68 0.34 0 0 Z " fill="#ABD84B" transform="translate(424,379)"/>
<path d="M0 0 C0.33 1.32 0.66 2.64 1 4 C-0.98 4.99 -2.96 5.98 -5 7 C-5.66 6.34 -6.32 5.68 -7 5 C-6.21625 4.54625 -5.4325 4.0925 -4.625 3.625 C-1.96301969 2.11571258 -1.96301969 2.11571258 0 0 Z " fill="#9ACA3D" transform="translate(165,332)"/>
<path d="M0 0 C5.53846154 0.49230769 5.53846154 0.49230769 7.875 3.0625 C8.431875 4.0215625 8.431875 4.0215625 9 5 C4.98525763 5 3.18024863 3.33218233 0 1 C0 0.67 0 0.34 0 0 Z " fill="#9FD041" transform="translate(157,101)"/>
<path d="M0 0 C0.99 0.33 1.98 0.66 3 1 C-0.465 3.97 -0.465 3.97 -4 7 C-4.33 6.34 -4.66 5.68 -5 5 C-4.67 4.34 -4.34 3.68 -4 3 C-3.01 3 -2.02 3 -1 3 C-0.67 2.01 -0.34 1.02 0 0 Z " fill="#A6D946" transform="translate(285,268)"/>
<path d="M0 0 C1.98 1.65 3.96 3.3 6 5 C5.67 5.66 5.34 6.32 5 7 C3.68 6.67 2.36 6.34 1 6 C0.67 4.02 0.34 2.04 0 0 Z " fill="#A8D746" transform="translate(406,33)"/>
</svg>
