<?xml version="1.0" encoding="UTF-8"?>
<svg version="1.1" xmlns="http://www.w3.org/2000/svg" width="581" height="581">
<path d="M0 0 C3.72012304 2.20369625 7.50782925 4.25854715 11.30834961 6.31958008 C14.22349548 7.9119914 17.12007995 9.53330813 20.01171875 11.16796875 C30.40498896 17.04022225 40.82495095 22.77721144 51.46484375 28.19140625 C63.50448246 34.36427617 73.83458412 41.77322692 84.2890625 50.34765625 C86.39285664 52.08166966 86.39285664 52.08166966 89.27734375 53.94140625 C89.27734375 54.60140625 89.27734375 55.26140625 89.27734375 55.94140625 C89.8695874 56.21291504 90.46183105 56.48442383 91.07202148 56.76416016 C93.23885229 57.92085872 94.77036235 59.11120108 96.5625 60.77734375 C97.17085693 61.34163086 97.77921387 61.90591797 98.40600586 62.48730469 C99.04417236 63.0909082 99.68233887 63.69451172 100.33984375 64.31640625 C100.99799072 64.93547852 101.6561377 65.55455078 102.33422852 66.19238281 C108.25298924 71.81617438 114.14404248 77.58080842 119.27734375 83.94140625 C119.27734375 84.60140625 119.27734375 85.26140625 119.27734375 85.94140625 C119.93734375 85.94140625 120.59734375 85.94140625 121.27734375 85.94140625 C123.05526836 87.98853409 124.70664772 90.03383186 126.33984375 92.19140625 C126.79939453 92.77792969 127.25894531 93.36445312 127.73242188 93.96875 C129.99808181 96.92974462 131.54373605 99.29367696 132.27734375 102.94140625 C132.93734375 102.94140625 133.59734375 102.94140625 134.27734375 102.94140625 C135.91687576 105.11729075 137.42226062 107.28473877 138.90234375 109.56640625 C139.57221313 110.58976074 139.57221313 110.58976074 140.25561523 111.63378906 C152.53349089 130.57266946 161.74283991 150.69812055 169.27734375 171.94140625 C169.68895752 173.09213623 169.68895752 173.09213623 170.10888672 174.26611328 C173.62942612 184.26165836 176.20078583 194.40483401 178.46484375 204.75390625 C178.70283691 205.83099854 178.94083008 206.90809082 179.18603516 208.01782227 C179.94844691 211.64849434 180.62988361 215.28895435 181.27734375 218.94140625 C181.41085236 219.66588959 181.54436096 220.39037292 181.68191528 221.1368103 C184.69402181 237.9766742 184.84014736 254.83091911 184.83325195 271.87963867 C184.83300851 275.03739088 184.85382854 278.19383404 184.89477539 281.35131836 C185.15391187 301.67926737 183.94301039 320.23847414 178.27734375 339.94140625 C177.92870773 341.18662552 177.92870773 341.18662552 177.57302856 342.45700073 C176.20243117 347.29660331 174.67046944 352.06318282 173.02734375 356.81640625 C172.79467804 357.50210693 172.56201233 358.18780762 172.32229614 358.89428711 C166.30126958 376.590352 158.34638344 392.83961503 148.60449219 408.76513672 C147.21337416 411.04630414 145.84103456 413.33793783 144.47265625 415.6328125 C141.96928261 419.83010072 139.45057661 424.01791046 136.92626953 428.20263672 C135.1612279 431.1342679 133.40505205 434.07112523 131.6484375 437.0078125 C130.42092938 439.04839156 129.19307145 441.08876023 127.96484375 443.12890625 C127.40249023 444.07266113 126.84013672 445.01641602 126.26074219 445.98876953 C122.69168614 451.89483256 119.01947867 457.89032229 114.27734375 462.94140625 C113.61734375 462.94140625 112.95734375 462.94140625 112.27734375 462.94140625 C111.81328125 463.86953125 111.81328125 463.86953125 111.33984375 464.81640625 C110.65234375 466.19140625 109.96484375 467.56640625 109.27734375 468.94140625 C108.61734375 468.94140625 107.95734375 468.94140625 107.27734375 468.94140625 C107.0155835 469.52390137 106.75382324 470.10639648 106.48413086 470.70654297 C105.20745323 473.07083733 103.80625834 474.74399542 101.96875 476.69921875 C100.9792334 477.75471924 100.9792334 477.75471924 99.96972656 478.83154297 C99.26686523 479.56904785 98.56400391 480.30655273 97.83984375 481.06640625 C97.12280273 481.82324707 96.40576172 482.58008789 95.66699219 483.35986328 C81.92351953 497.74592783 81.92351953 497.74592783 74.27734375 502.94140625 C73.61734375 502.94140625 72.95734375 502.94140625 72.27734375 502.94140625 C71.94734375 503.93140625 71.61734375 504.92140625 71.27734375 505.94140625 C69.85717773 507.24072266 69.85717773 507.24072266 68.0234375 508.54296875 C67.00068726 509.27181274 67.00068726 509.27181274 65.95727539 510.01538086 C65.21727295 510.52721924 64.47727051 511.03905762 63.71484375 511.56640625 C62.95486084 512.09693604 62.19487793 512.62746582 61.41186523 513.17407227 C53.97649979 518.28449251 46.25150407 522.73491479 38.27734375 526.94140625 C37.24867188 527.49054687 36.22 528.0396875 35.16015625 528.60546875 C28.73055604 531.94140625 28.73055604 531.94140625 25.27734375 531.94140625 C25.60734375 530.29140625 25.93734375 528.64140625 26.27734375 526.94140625 C22.97734375 527.27140625 19.67734375 527.60140625 16.27734375 527.94140625 C17.27734375 523.94140625 17.27734375 523.94140625 18.27734375 522.94140625 C17.40078125 523.40289063 16.52421875 523.864375 15.62109375 524.33984375 C-4.73842873 534.87743902 -25.91076231 543.12379076 -48.03515625 549.06640625 C-48.92340088 549.30842773 -49.81164551 549.55044922 -50.72680664 549.79980469 C-65.48389658 553.64226154 -80.00595053 555.41857395 -95.2265625 555.41015625 C-96.84488675 555.41729769 -98.4632086 555.42500207 -100.08152771 555.43322754 C-103.4470831 555.44653396 -106.81240452 555.44830581 -110.17797852 555.44238281 C-113.57059265 555.43768064 -116.96227042 555.45148283 -120.35473633 555.48339844 C-140.38340467 555.66963774 -159.21970527 555.12848298 -178.72265625 549.94140625 C-180.15895386 549.56853989 -180.15895386 549.56853989 -181.62426758 549.18814087 C-198.90904661 544.67472669 -215.67159987 538.81909576 -231.72265625 530.94140625 C-232.70234375 530.47089844 -233.68203125 530.00039063 -234.69140625 529.515625 C-263.38954056 515.50640417 -288.98141866 496.6895023 -311.66015625 474.25390625 C-312.27012451 473.65328369 -312.88009277 473.05266113 -313.50854492 472.43383789 C-317.72265625 468.18786183 -317.72265625 468.18786183 -317.72265625 465.94140625 C-318.38265625 465.94140625 -319.04265625 465.94140625 -319.72265625 465.94140625 C-321.0546875 464.3671875 -321.0546875 464.3671875 -322.53515625 462.25390625 C-324.34042027 459.75800854 -326.03453891 457.62952359 -328.22265625 455.44140625 C-331.42979466 452.23426784 -334.26844905 448.76187312 -336.72265625 444.94140625 C-336.72265625 444.28140625 -336.72265625 443.62140625 -336.72265625 442.94140625 C-337.38265625 442.94140625 -338.04265625 442.94140625 -338.72265625 442.94140625 C-340.18383789 441.08398438 -340.18383789 441.08398438 -341.8828125 438.47265625 C-342.50704102 437.51746094 -343.13126953 436.56226563 -343.77441406 435.578125 C-344.43795898 434.54300781 -345.10150391 433.50789063 -345.78515625 432.44140625 C-346.46545898 431.38566406 -347.14576172 430.32992188 -347.84667969 429.2421875 C-374.0642829 388.26236411 -390.32620986 343.34136836 -395.72265625 294.94140625 C-395.81836914 294.12671875 -395.91408203 293.31203125 -396.01269531 292.47265625 C-402.54733654 230.63949191 -386.1190834 169.90473183 -354.72265625 116.94140625 C-354.25021484 116.13380859 -353.77777344 115.32621094 -353.29101562 114.49414062 C-352.85080078 113.76001953 -352.41058594 113.02589844 -351.95703125 112.26953125 C-351.57256836 111.6240332 -351.18810547 110.97853516 -350.79199219 110.31347656 C-350.2626709 109.63430176 -350.2626709 109.63430176 -349.72265625 108.94140625 C-349.06265625 108.94140625 -348.40265625 108.94140625 -347.72265625 108.94140625 C-347.58537109 108.09449219 -347.58537109 108.09449219 -347.4453125 107.23046875 C-346.53399587 104.34381176 -345.09518605 102.64147142 -343.16015625 100.31640625 C-342.43441406 99.43597656 -341.70867187 98.55554688 -340.9609375 97.6484375 C-340.22230469 96.75511719 -339.48367188 95.86179687 -338.72265625 94.94140625 C-337.42927135 93.29692285 -336.13757294 91.65111148 -334.84765625 90.00390625 C-331.1143817 85.33181216 -327.13803983 80.91987629 -323.0859375 76.5234375 C-321.12701522 74.38319348 -319.22746125 72.21302016 -317.34765625 70.00390625 C-310.13691232 61.71922174 -302.17092526 53.95346953 -293.72265625 46.94140625 C-292.94341797 46.28350098 -292.94341797 46.28350098 -292.1484375 45.61230469 C-275.5374815 31.61399905 -257.9044938 19.17171961 -238.72265625 8.94140625 C-237.90216797 8.503125 -237.08167969 8.06484375 -236.23632812 7.61328125 C-222.53949648 0.42112255 -208.66088985 -4.17421981 -193.72265625 -8.05859375 C-191.76551951 -8.58684891 -189.80848724 -9.11549128 -187.8515625 -9.64453125 C-172.64111309 -13.6756675 -157.27247212 -16.66870189 -141.72265625 -19.05859375 C-140.41723877 -19.2599292 -140.41723877 -19.2599292 -139.08544922 -19.46533203 C-94.76575258 -25.88180613 -39.05660188 -23.80101289 0 0 Z M-176.72265625 7.94140625 C-177.75648438 8.24691406 -178.7903125 8.55242188 -179.85546875 8.8671875 C-199.88604079 15.19997281 -219.89053988 23.81024747 -237.72265625 34.94140625 C-238.33512207 35.32103516 -238.94758789 35.70066406 -239.57861328 36.09179688 C-248.38099251 41.57305288 -256.90726704 47.39350327 -265.28515625 53.50390625 C-266.12506104 54.11177979 -266.96496582 54.71965332 -267.83032227 55.34594727 C-268.60045654 55.91498779 -269.37059082 56.48402832 -270.1640625 57.0703125 C-270.85185791 57.5763501 -271.53965332 58.0823877 -272.24829102 58.60375977 C-272.73483154 59.04518311 -273.22137207 59.48660645 -273.72265625 59.94140625 C-273.72265625 60.60140625 -273.72265625 61.26140625 -273.72265625 61.94140625 C-275.72265625 62.94140625 -277.72265625 63.94140625 -279.72265625 64.94140625 C-279.72265625 65.60140625 -279.72265625 66.26140625 -279.72265625 66.94140625 C-280.59664062 67.34359375 -280.59664062 67.34359375 -281.48828125 67.75390625 C-283.75052226 68.95621616 -285.52841943 70.27966538 -287.47265625 71.94140625 C-288.08625 72.45703125 -288.69984375 72.97265625 -289.33203125 73.50390625 C-290.95442001 74.84763877 -290.95442001 74.84763877 -290.72265625 76.94140625 C-292.20765625 77.43640625 -292.20765625 77.43640625 -293.72265625 77.94140625 C-293.72265625 78.60140625 -293.72265625 79.26140625 -293.72265625 79.94140625 C-295.20765625 80.43640625 -295.20765625 80.43640625 -296.72265625 80.94140625 C-296.72265625 81.60140625 -296.72265625 82.26140625 -296.72265625 82.94140625 C-298.20765625 83.43640625 -298.20765625 83.43640625 -299.72265625 83.94140625 C-301.23663361 85.35827542 -301.23663361 85.35827542 -302.72265625 87.19140625 C-303.3259375 87.90296875 -303.92921875 88.61453125 -304.55078125 89.34765625 C-305.2675 90.20359375 -305.98421875 91.05953125 -306.72265625 91.94140625 C-307.65406282 93.03591007 -308.58641325 94.12961114 -309.51953125 95.22265625 C-316.88561404 102.40402945 -316.88561404 102.40402945 -320.72265625 110.94140625 C-321.38265625 110.94140625 -322.04265625 110.94140625 -322.72265625 110.94140625 C-324.20544923 112.91033198 -324.20544923 112.91033198 -325.72265625 115.50390625 C-328.19778752 119.51763263 -330.73004076 123.4675142 -333.38037109 127.36621094 C-366.63285305 176.413939 -386.91649205 246.65828094 -375.70605469 306.0534668 C-372.05990331 323.68521308 -367.50907983 341.25325091 -360.72265625 357.94140625 C-359.42343238 354.34211351 -360.0394205 352.42703808 -361.46875 348.94140625 C-380.74197857 298.91549281 -376.38235059 236.43112377 -357.72265625 186.94140625 C-357.43696777 186.16845215 -357.1512793 185.39549805 -356.85693359 184.59912109 C-349.97358495 166.11336956 -341.42314241 148.47753228 -330.62109375 131.9609375 C-328.63011364 129.05917044 -328.63011364 129.05917044 -327.72265625 125.94140625 C-327.06265625 125.94140625 -326.40265625 125.94140625 -325.72265625 125.94140625 C-324.13363663 124.10181046 -322.67211618 122.26222999 -321.22265625 120.31640625 C-320.56160889 119.44375122 -320.56160889 119.44375122 -319.88720703 118.5534668 C-316.27995033 113.76235889 -312.80666583 108.87863662 -309.3449707 103.98193359 C-305.66796062 98.80462203 -301.76048178 93.84255305 -297.72265625 88.94140625 C-297.21605469 88.31105469 -296.70945312 87.68070312 -296.1875 87.03125 C-292.97240774 83.066282 -292.97240774 83.066282 -290.72265625 81.94140625 C-290.72265625 81.28140625 -290.72265625 80.62140625 -290.72265625 79.94140625 C-289.88734375 79.57015625 -289.88734375 79.57015625 -289.03515625 79.19140625 C-286.29854712 77.71215807 -284.04614756 76.00673186 -281.72265625 73.94140625 C-281.72265625 73.28140625 -281.72265625 72.62140625 -281.72265625 71.94140625 C-281.18769531 71.71195312 -280.65273438 71.4825 -280.1015625 71.24609375 C-276.99053402 69.53988109 -274.38859026 67.31120611 -271.66015625 65.06640625 C-263.18096455 58.2430567 -254.01393765 52.58122761 -244.72265625 46.94140625 C-243.90941895 46.44495605 -243.09618164 45.94850586 -242.25830078 45.43701172 C-202.34058855 21.23811095 -159.23019192 5.75203396 -112.4140625 5.75610352 C-109.62354038 5.75392644 -106.8334209 5.73573103 -104.04296875 5.71679688 C-86.31335594 5.66121171 -69.10041317 7.48110908 -51.72265625 10.94140625 C-51.02382324 11.07772461 -50.32499023 11.21404297 -49.60498047 11.35449219 C-36.37367724 13.97353415 -23.54933602 17.79691357 -10.72265625 21.94140625 C-10.01560547 22.16973145 -9.30855469 22.39805664 -8.58007812 22.63330078 C0.03759972 25.45945718 8.23128233 29.04249985 16.36962891 33.01318359 C18.24333891 33.92486077 20.1248774 34.81850215 22.0078125 35.7109375 C39.34432755 44.03950357 55.85517942 53.89757206 70.93359375 65.8359375 C71.57039063 66.33915527 72.2071875 66.84237305 72.86328125 67.36083984 C74.11254511 68.35164631 75.3575595 69.34784135 76.59765625 70.35009766 C79.15035365 72.39210987 81.14864705 73.89850735 84.27734375 74.94140625 C84.27734375 75.60140625 84.27734375 76.26140625 84.27734375 76.94140625 C85.74967451 78.44033712 85.74967451 78.44033712 87.6953125 80 C99.9882772 90.46537637 111.48367684 102.15554821 121.00927734 115.20703125 C122.37890008 117.08030809 123.77391741 118.93294348 125.171875 120.78515625 C130.29903102 127.62051145 135.04681426 134.50810302 139.27734375 141.94140625 C139.81617188 142.82570312 140.355 143.71 140.91015625 144.62109375 C150.65048149 160.73849291 157.50966301 178.05837378 163.27734375 195.94140625 C163.60734375 195.94140625 163.93734375 195.94140625 164.27734375 195.94140625 C163.6972437 189.07825077 161.91087128 182.95451261 159.71484375 176.44140625 C159.35914307 175.38276367 159.00344238 174.32412109 158.63696289 173.23339844 C155.57122407 164.3538856 151.84456452 156.13635838 147.27734375 147.94140625 C146.73722656 146.96042969 146.19710937 145.97945312 145.640625 144.96875 C137.85700568 131.26731841 129.19996662 117.92762674 120.27734375 104.94140625 C119.85646484 104.32797363 119.43558594 103.71454102 119.00195312 103.08251953 C117.64425446 101.11249682 116.27532559 99.1508017 114.90234375 97.19140625 C114.4729248 96.56967529 114.04350586 95.94794434 113.60107422 95.30737305 C112.54382169 93.81484335 111.41632473 92.37254221 110.27734375 90.94140625 C109.61734375 90.94140625 108.95734375 90.94140625 108.27734375 90.94140625 C108.02984375 90.3896875 107.78234375 89.83796875 107.52734375 89.26953125 C106.03499901 86.49003918 104.24061852 84.15993555 102.27734375 81.69140625 C101.57609375 80.799375 100.87484375 79.90734375 100.15234375 78.98828125 C99.53359375 78.3128125 98.91484375 77.63734375 98.27734375 76.94140625 C97.61734375 76.94140625 96.95734375 76.94140625 96.27734375 76.94140625 C96.02984375 76.3690625 95.78234375 75.79671875 95.52734375 75.20703125 C94.08418176 72.59130014 92.39518153 70.79367169 90.27734375 68.69140625 C89.57609375 67.985 88.87484375 67.27859375 88.15234375 66.55078125 C86.43623607 64.72430226 86.43623607 64.72430226 84.27734375 64.94140625 C84.27734375 64.28140625 84.27734375 63.62140625 84.27734375 62.94140625 C82.29427979 61.20889891 80.30510758 59.5987513 78.21484375 58.00390625 C77.27451294 57.2773584 77.27451294 57.2773584 76.31518555 56.53613281 C74.31001415 54.99449713 72.29577343 53.46563528 70.27734375 51.94140625 C69.63120117 51.45333496 68.98505859 50.96526367 68.31933594 50.46240234 C56.22362313 41.370673 43.99272314 33.42476195 30.31396484 26.91455078 C29.01047359 26.2917126 27.71087299 25.66062345 26.41650391 25.01904297 C14.2759999 19.01275742 1.52656856 15.75732485 -11.57049561 12.48095703 C-13.93606537 11.88790418 -16.30037924 11.29000824 -18.66455078 10.69140625 C-27.44139757 8.47004762 -36.22159367 6.26213692 -45.0078125 4.078125 C-45.75382217 3.89193604 -46.49983185 3.70574707 -47.26844788 3.51391602 C-89.60011605 -6.9769356 -135.04426234 -4.51601214 -176.72265625 7.94140625 Z M-156.59765625 45.81640625 C-157.37101318 46.07542725 -158.14437012 46.33444824 -158.94116211 46.60131836 C-161.20742451 47.36563472 -163.46488542 48.15243596 -165.72265625 48.94140625 C-167.038635 49.38408538 -168.35501994 49.8255595 -169.671875 50.265625 C-175.61025162 52.30072272 -181.25758858 54.52783634 -186.80859375 57.45703125 C-189.1298686 58.63945008 -191.44925914 59.73499802 -193.82421875 60.80078125 C-215.06051518 70.39587359 -235.42856682 83.19861565 -253.421875 98.046875 C-255.02716627 99.36871926 -256.65709152 100.66096382 -258.3046875 101.9296875 C-263.78851033 106.16382357 -268.3946985 110.53658697 -272.72265625 115.94140625 C-273.30789063 116.65167969 -273.893125 117.36195313 -274.49609375 118.09375 C-280.02485133 124.96244664 -285.44982123 132.30463317 -287.72265625 140.94140625 C-282.02032083 135.5954668 -277.38484059 129.37473993 -272.60546875 123.2109375 C-271.92226563 122.33824219 -271.2390625 121.46554688 -270.53515625 120.56640625 C-269.92285156 119.77492188 -269.31054688 118.9834375 -268.6796875 118.16796875 C-266.55744424 115.75344049 -264.27412968 113.88858334 -261.72265625 111.94140625 C-259.94988366 110.42132783 -259.94988366 110.42132783 -258.72265625 108.94140625 C-258.72265625 108.28140625 -258.72265625 107.62140625 -258.72265625 106.94140625 C-258.14773438 106.68488281 -257.5728125 106.42835938 -256.98046875 106.1640625 C-254.50770342 104.82500446 -252.67419371 103.26989758 -250.59765625 101.37890625 C-246.91710069 98.03862847 -246.91710069 98.03862847 -244.72265625 96.94140625 C-244.72265625 96.28140625 -244.72265625 95.62140625 -244.72265625 94.94140625 C-244.16191406 94.67457031 -243.60117188 94.40773437 -243.0234375 94.1328125 C-240.54388492 92.84883366 -238.25165013 91.40033776 -235.91015625 89.87890625 C-233.84922716 88.56394093 -231.7865937 87.25164466 -229.72265625 85.94140625 C-229.17174316 85.59126465 -228.62083008 85.24112305 -228.05322266 84.88037109 C-212.94555934 75.34841064 -197.33657272 68.23967991 -180.41015625 62.56640625 C-179.17128662 62.1494751 -177.93241699 61.73254395 -176.65600586 61.30297852 C-168.43162292 58.62057953 -160.21202071 56.58819456 -151.72265625 54.94140625 C-150.50920532 54.68858887 -150.50920532 54.68858887 -149.27124023 54.43066406 C-120.43823152 48.63501956 -87.3775641 49.86000389 -58.72265625 55.94140625 C-57.748125 56.14459473 -56.77359375 56.3477832 -55.76953125 56.55712891 C-38.36464978 60.26555536 -22.11498842 66.08868663 -5.72265625 72.94140625 C-5.02575684 73.22935059 -4.32885742 73.51729492 -3.61083984 73.81396484 C15.68131701 81.90854267 35.07028051 93.57654249 51.00390625 107.1328125 C53.05401971 109.14892658 53.05401971 109.14892658 55.27734375 108.94140625 C55.27734375 109.60140625 55.27734375 110.26140625 55.27734375 110.94140625 C56.83117522 112.47378176 56.83117522 112.47378176 58.83984375 114.06640625 C62.59490988 117.23453487 65.73000032 120.63570861 68.83203125 124.4375 C69.30898438 124.93378906 69.7859375 125.43007812 70.27734375 125.94140625 C70.93734375 125.94140625 71.59734375 125.94140625 72.27734375 125.94140625 C73.27734375 127.94140625 74.27734375 129.94140625 75.27734375 131.94140625 C75.93734375 131.94140625 76.59734375 131.94140625 77.27734375 131.94140625 C77.67759766 132.79798828 77.67759766 132.79798828 78.0859375 133.671875 C79.33144564 136.04446591 80.75945558 138.09067988 82.33984375 140.25390625 C94.96958047 158.15040039 103.91829819 177.37381739 111.27734375 197.94140625 C111.55320312 198.70710937 111.8290625 199.4728125 112.11328125 200.26171875 C116.63648448 212.93564463 120.17347922 225.85212994 123.27734375 238.94140625 C123.45958496 239.68229492 123.64182617 240.42318359 123.82958984 241.18652344 C129.74073204 265.99567548 126.38747423 292.1535692 123.08984375 317.06640625 C122.87113617 318.73529404 122.87113617 318.73529404 122.64801025 320.43789673 C118.59852984 350.86174351 113.2560577 376.3171893 96.18261719 402.01074219 C92.35706451 407.89515203 88.80739863 413.95427492 85.24804688 420.00244141 C81.83169914 425.70906086 78.08932351 430.85401741 73.79443359 435.93652344 C72.07620621 437.78818544 72.07620621 437.78818544 72.27734375 439.94140625 C71.28734375 440.27140625 70.29734375 440.60140625 69.27734375 440.94140625 C69.27734375 441.60140625 69.27734375 442.26140625 69.27734375 442.94140625 C68.61734375 442.94140625 67.95734375 442.94140625 67.27734375 442.94140625 C65.74277008 444.45860608 65.74277008 444.45860608 64.15234375 446.44140625 C59.66044717 451.72267378 55.07194816 457.07833664 49.27734375 460.94140625 C49.27734375 461.60140625 49.27734375 462.26140625 49.27734375 462.94140625 C48.74882812 463.15796875 48.2203125 463.37453125 47.67578125 463.59765625 C44.37471094 465.44711584 41.71288484 467.93803026 38.90234375 470.44140625 C32.55874107 475.97718753 25.99004963 480.97673891 19.04394531 485.72802734 C17.28497309 486.93616608 15.5427589 488.16596145 13.80078125 489.3984375 C-0.36476223 499.27829559 -15.93657321 507.00021575 -31.72265625 513.94140625 C-27.8860046 515.410044 -25.63465099 514.42519265 -21.91796875 512.9140625 C-20.21640625 512.22606567 -20.21640625 512.22606567 -18.48046875 511.52416992 C-17.28164063 511.02248291 -16.0828125 510.5207959 -14.84765625 510.00390625 C-14.23728516 509.75186432 -13.62691406 509.49982239 -12.99804688 509.24014282 C-3.75412153 505.41859182 4.77760586 501.1819343 13.27734375 495.94140625 C15.04351047 495.01578019 16.81429635 494.09890826 18.58984375 493.19140625 C25.94454517 489.22949864 32.61358439 484.18560809 39.36572266 479.29199219 C41.14257396 478.03662291 42.9516338 476.86315688 44.7890625 475.69921875 C45.61019531 475.11914062 46.43132812 474.5390625 47.27734375 473.94140625 C47.27734375 473.28140625 47.27734375 472.62140625 47.27734375 471.94140625 C49.27734375 470.94140625 51.27734375 469.94140625 53.27734375 468.94140625 C53.27734375 468.28140625 53.27734375 467.62140625 53.27734375 466.94140625 C53.81359375 466.72097656 54.34984375 466.50054687 54.90234375 466.2734375 C58.09168066 464.48468111 60.6241282 462.11200829 63.27734375 459.62890625 C63.83897217 459.10635254 64.40060059 458.58379883 64.97924805 458.04541016 C69.16110441 454.10370232 73.17274678 450.02065438 77.08984375 445.81640625 C77.61126953 445.26041748 78.13269531 444.70442871 78.66992188 444.1315918 C81.41826832 441.46533901 81.41826832 441.46533901 82.27734375 437.94140625 C82.93734375 437.94140625 83.59734375 437.94140625 84.27734375 437.94140625 C85.72456785 436.3985527 85.72456785 436.3985527 87.18359375 434.34765625 C87.75754883 433.57292969 88.33150391 432.79820312 88.92285156 432 C89.8408252 430.73349609 89.8408252 430.73349609 90.77734375 429.44140625 C91.40737305 428.57644531 92.03740234 427.71148437 92.68652344 426.8203125 C113.48289867 397.99113889 129.04097254 365.65504644 135.58984375 330.56640625 C135.7494458 329.71175781 135.90904785 328.85710937 136.07348633 327.9765625 C138.54171954 313.69324717 138.43602572 299.3302005 138.40771484 284.8840332 C138.40237187 281.64594809 138.40767914 278.4080027 138.4140625 275.16992188 C138.5737991 251.8668246 138.5737991 251.8668246 135.21484375 228.87890625 C134.89265869 227.44998047 134.89265869 227.44998047 134.56396484 225.9921875 C130.6348124 209.3062234 125.01580607 193.2308351 117.27734375 177.94140625 C116.64187827 176.61845856 116.00915459 175.29419105 115.37890625 173.96875 C107.53566995 157.62313261 97.12519314 143.39687101 86.27734375 128.94140625 C85.50269775 127.82596436 85.50269775 127.82596436 84.71240234 126.68798828 C84.00204834 125.82343018 84.00204834 125.82343018 83.27734375 124.94140625 C82.61734375 124.94140625 81.95734375 124.94140625 81.27734375 124.94140625 C80.90609375 124.10609375 80.90609375 124.10609375 80.52734375 123.25390625 C79.04809557 120.51729712 77.34266936 118.26489756 75.27734375 115.94140625 C74.61734375 115.94140625 73.95734375 115.94140625 73.27734375 115.94140625 C72.92542969 115.10029297 72.92542969 115.10029297 72.56640625 114.2421875 C63.38841585 97.86086524 40.63005556 84.2523123 25.27734375 73.94140625 C24.53613281 73.41160156 23.79492188 72.88179687 23.03125 72.3359375 C-4.37184299 53.01390785 -39.05166888 45.07966143 -71.72265625 40.94140625 C-72.38313461 40.85478729 -73.04361298 40.76816833 -73.72410583 40.67892456 C-79.48121223 39.97196221 -85.1638151 39.76574728 -90.9609375 39.73828125 C-91.92178757 39.73258118 -92.88263763 39.7268811 -93.87260437 39.7210083 C-95.90049153 39.71161067 -97.9283936 39.70504531 -99.95629883 39.70117188 C-102.98873255 39.6915535 -106.02046165 39.66051558 -109.05273438 39.62890625 C-125.1052482 39.54063904 -141.32699976 40.42030647 -156.59765625 45.81640625 Z M164.27734375 195.94140625 C164.60734375 198.25140625 164.93734375 200.56140625 165.27734375 202.94140625 C165.96893776 201.09415573 165.96893776 201.09415573 166.27734375 198.94140625 C165.61734375 197.95140625 164.95734375 196.96140625 164.27734375 195.94140625 Z M166.27734375 202.94140625 C167.27734375 205.94140625 167.27734375 205.94140625 167.27734375 205.94140625 Z M167.27734375 207.94140625 C168.27734375 210.94140625 168.27734375 210.94140625 168.27734375 210.94140625 Z M168.27734375 210.94140625 C169.27734375 214.94140625 169.27734375 214.94140625 169.27734375 214.94140625 Z M169.27734375 214.94140625 C169.27734375 216.59140625 169.27734375 218.24140625 169.27734375 219.94140625 C169.60734375 219.94140625 169.93734375 219.94140625 170.27734375 219.94140625 C170.27734375 218.29140625 170.27734375 216.64140625 170.27734375 214.94140625 C169.94734375 214.94140625 169.61734375 214.94140625 169.27734375 214.94140625 Z M170.27734375 219.94140625 C170.85649042 225.95467376 171.5007232 231.95033347 172.27734375 237.94140625 C172.60734375 237.94140625 172.93734375 237.94140625 173.27734375 237.94140625 C173.47924464 231.58152821 172.90512705 226.08919496 171.27734375 219.94140625 C170.94734375 219.94140625 170.61734375 219.94140625 170.27734375 219.94140625 Z M-359.72265625 357.94140625 C-359.27561639 362.42024321 -359.27561639 362.42024321 -356.72265625 365.94140625 C-357.16969611 361.46256929 -357.16969611 361.46256929 -359.72265625 357.94140625 Z M-356.72265625 365.94140625 C-356.14812879 369.87216269 -356.14812879 369.87216269 -353.72265625 372.94140625 C-354.29718371 369.01064981 -354.29718371 369.01064981 -356.72265625 365.94140625 Z M-353.72265625 372.94140625 C-353.1373452 378.02755741 -350.75924585 382.02270252 -348.34765625 386.44140625 C-347.94804687 387.18777344 -347.5484375 387.93414062 -347.13671875 388.703125 C-345.08961762 392.50777019 -342.98687445 396.26022569 -340.72265625 399.94140625 C-339.31374534 396.8851617 -339.31374534 396.8851617 -341.19921875 393.9375 C-341.90612453 392.74577244 -342.62286826 391.55984347 -343.34765625 390.37890625 C-344.09198914 389.12627234 -344.83416646 387.87235513 -345.57421875 386.6171875 C-345.94063477 385.9979541 -346.30705078 385.3787207 -346.68457031 384.74072266 C-348.89469686 380.90990594 -350.81213075 376.92779119 -352.72265625 372.94140625 C-353.05265625 372.94140625 -353.38265625 372.94140625 -353.72265625 372.94140625 Z M-339.72265625 399.94140625 C-339.06265625 401.59140625 -338.40265625 403.24140625 -337.72265625 404.94140625 C-337.39265625 404.28140625 -337.06265625 403.62140625 -336.72265625 402.94140625 C-337.71265625 401.95140625 -338.70265625 400.96140625 -339.72265625 399.94140625 Z M-336.72265625 404.94140625 C-335.41041077 408.87814269 -333.80355298 411.16859919 -330.72265625 413.94140625 C-332.03490173 410.00466981 -333.64175952 407.71421331 -336.72265625 404.94140625 Z M-330.72265625 413.94140625 C-330.06265625 415.26140625 -329.40265625 416.58140625 -328.72265625 417.94140625 C-328.72265625 416.95140625 -328.72265625 415.96140625 -328.72265625 414.94140625 C-329.38265625 414.61140625 -330.04265625 414.28140625 -330.72265625 413.94140625 Z M-327.72265625 417.94140625 C-326.31398124 422.2290127 -324.2405859 424.86058523 -321.16015625 428.12890625 C-316.80498901 432.77674073 -316.80498901 432.77674073 -315.72265625 434.94140625 C-315.06265625 434.94140625 -314.40265625 434.94140625 -313.72265625 434.94140625 C-315.45502362 430.75052949 -318.36595955 427.59277501 -321.28515625 424.19140625 C-322.04602539 423.28841797 -322.04602539 423.28841797 -322.82226562 422.3671875 C-324.09708262 420.86999897 -325.40697017 419.40281037 -326.72265625 417.94140625 C-327.05265625 417.94140625 -327.38265625 417.94140625 -327.72265625 417.94140625 Z M-313.72265625 434.94140625 C-312.40144797 437.87370818 -310.97627428 439.92805524 -308.68359375 442.17578125 C-308.10351562 442.74941406 -307.5234375 443.32304687 -306.92578125 443.9140625 C-306.02085937 444.79384766 -306.02085937 444.79384766 -305.09765625 445.69140625 C-304.48664063 446.29339844 -303.875625 446.89539063 -303.24609375 447.515625 C-301.74277001 448.9954593 -300.23330769 450.46905301 -298.72265625 451.94140625 C-298.06265625 451.61140625 -297.40265625 451.28140625 -296.72265625 450.94140625 C-299.36447295 448.27073422 -302.01176045 445.60555292 -304.66015625 442.94140625 C-305.41490234 442.17828125 -306.16964844 441.41515625 -306.94726562 440.62890625 C-307.66591797 439.90703125 -308.38457031 439.18515625 -309.125 438.44140625 C-309.79007568 437.77109375 -310.45515137 437.10078125 -311.14038086 436.41015625 C-312.48499235 434.8280187 -312.48499235 434.8280187 -313.72265625 434.94140625 Z M-293.72265625 454.94140625 C-292.73265625 456.42640625 -292.73265625 456.42640625 -291.72265625 457.94140625 C-291.06265625 457.61140625 -290.40265625 457.28140625 -289.72265625 456.94140625 C-291.04265625 456.28140625 -292.36265625 455.62140625 -293.72265625 454.94140625 Z M-34.72265625 514.94140625 C-35.38265625 515.60140625 -36.04265625 516.26140625 -36.72265625 516.94140625 C-35.07265625 516.61140625 -33.42265625 516.28140625 -31.72265625 515.94140625 C-32.71265625 515.61140625 -33.70265625 515.28140625 -34.72265625 514.94140625 Z M23.27734375 518.94140625 C22.94734375 519.60140625 22.61734375 520.26140625 22.27734375 520.94140625 C23.26734375 520.61140625 24.25734375 520.28140625 25.27734375 519.94140625 C24.61734375 519.61140625 23.95734375 519.28140625 23.27734375 518.94140625 Z " fill="#080808" transform="translate(396.72265625,26.05859375)"/>
<path d="M0 0 C0.76441406 -0.00173218 1.52882813 -0.00346436 2.31640625 -0.00524902 C15.43091835 0.00775055 27.5019109 1.47746702 40.0625 5.4375 C41.12210938 5.74816406 42.18171875 6.05882812 43.2734375 6.37890625 C78.01670544 17.73924166 106.5791513 45.37131809 123.0625 77.4375 C126.70079382 85.09283747 129.02832745 93.22788663 131.0625 101.4375 C131.3419043 102.54883301 131.3419043 102.54883301 131.62695312 103.68261719 C136.43998782 123.4976363 136.82750052 144.38419934 133.0625 164.4375 C132.95292969 165.23027344 132.84335937 166.02304687 132.73046875 166.83984375 C131.70384975 173.07852847 128.74131746 178.42110222 125.85546875 183.96875 C124.34516228 186.8906501 122.92006696 189.81773436 121.5625 192.8125 C121.16546875 193.68519531 120.7684375 194.55789063 120.359375 195.45703125 C119.36799228 197.73541985 118.42969618 200.01501571 117.515625 202.32421875 C113.92156618 211.23588913 109.97702245 217.59719425 103.0625 224.4375 C101.9057635 225.78236507 100.7593064 227.13616336 99.625 228.5 C75.91026552 255.50994815 40.99505097 269.94167908 5.63134766 272.28808594 C-22.09319817 273.90065218 -44.98265441 267.07046879 -68.9375 253.4375 C-69.68322266 253.01839355 -70.42894531 252.59928711 -71.19726562 252.16748047 C-89.45004043 241.82138373 -105.39162624 228.69331225 -117.0625 211.0625 C-117.45356934 210.47927979 -117.84463867 209.89605957 -118.24755859 209.29516602 C-120.41009982 205.88106759 -121.4079218 203.48919743 -120.9375 199.4375 C-120.31875 199.7675 -119.7 200.0975 -119.0625 200.4375 C-117.02731656 201.57943235 -117.02731656 201.57943235 -114.9375 201.4375 C-115.2778125 200.93605469 -115.618125 200.43460938 -115.96875 199.91796875 C-129.10504316 179.40997916 -135.34780142 155.64301467 -135.1875 131.4375 C-135.19910156 129.68566406 -135.19910156 129.68566406 -135.2109375 127.8984375 C-135.14271197 97.12872367 -122.72904846 67.68339602 -101.6875 45.36328125 C-99.88081742 43.54959415 -99.88081742 43.54959415 -98.9375 41.4375 C-98.2775 41.4375 -97.6175 41.4375 -96.9375 41.4375 C-96.6075 40.4475 -96.2775 39.4575 -95.9375 38.4375 C-72.18442139 12.63084111 -33.97982767 -0.00184073 0 0 Z " fill="#D6DE23" transform="translate(293.9375,162.5625)"/>
<path d="M0 0 C19.95846567 4.84098955 31.23726832 19.28781979 41.5625 36.125 C44.82715162 41.61616538 47.70911996 47.25835268 50.375 53.0625 C50.69670166 53.74521973 51.01840332 54.42793945 51.34985352 55.13134766 C56.40801577 66.58474915 57.51388606 78.48380914 57.375 90.875 C57.36484863 92.19274414 57.35469727 93.51048828 57.34423828 94.86816406 C57.19463872 104.25466706 56.56679583 112.92871018 54 122 C53.70996094 123.06468506 53.70996094 123.06468506 53.4140625 124.15087891 C48.87009863 140.48600828 41.08010007 153.22196711 30 166 C29.14375863 167.08169428 28.28919858 168.16472522 27.4375 169.25 C24.22660812 172.87254468 20.74368361 175.9386935 17 179 C15.71996094 180.05380859 15.71996094 180.05380859 14.4140625 181.12890625 C-0.73333921 193.06007883 -21.14656562 204.30309066 -40.875 204.0625 C-41.84179688 204.05347656 -42.80859375 204.04445313 -43.8046875 204.03515625 C-44.52914063 204.02355469 -45.25359375 204.01195312 -46 204 C-43.10956884 201.69563157 -40.23182074 200.02334646 -36.89453125 198.44140625 C-35.91033203 197.97283203 -34.92613281 197.50425781 -33.91210938 197.02148438 C-32.88923828 196.54001953 -31.86636719 196.05855469 -30.8125 195.5625 C-29.30719727 194.84610352 -29.30719727 194.84610352 -27.77148438 194.11523438 C-23.21712276 191.955098 -18.65316254 189.83323393 -14.03515625 187.8125 C12.08619998 176.26982321 33.7113073 141.66329045 43.85253906 115.828125 C51.87187134 93.50647921 50.31776295 72.54823064 40.375 51.3125 C34.5050655 39.26219654 27.23158073 29.04089739 18.08203125 19.234375 C16.15266256 17.16383299 14.32371759 15.03830638 12.5 12.875 C9.21124078 9.07551582 5.54144364 5.82416978 1.72265625 2.56640625 C1.15417969 2.04949219 0.58570313 1.53257812 0 1 C0 0.67 0 0.34 0 0 Z " fill="#FDFDF7" transform="translate(344,209)"/>
<path d="M0 0 C1.22847656 0.31453125 2.45695312 0.6290625 3.72265625 0.953125 C19.51820181 5.24509363 33.39786842 13.66928065 46 24 C46.5563916 24.44569336 47.1127832 24.89138672 47.68603516 25.35058594 C69.75311726 43.07969464 85.30184451 66.70653963 93 94 C93.3196875 95.0621875 93.639375 96.124375 93.96875 97.21875 C100.98189221 125.01157285 95.74368385 161.67584365 82.8581543 187.26782227 C81.81257368 188.92950351 80.62799308 190.50136272 79.4375 192.0625 C79.01404297 192.62283936 78.59058594 193.18317871 78.15429688 193.76049805 C76.79694208 195.53082164 75.40589721 197.26803482 74 199 C73.51547363 199.60263672 73.03094727 200.20527344 72.53173828 200.82617188 C60.58737799 215.55690006 45.04264142 230.94261282 27 238 C26.01 237.67 25.02 237.34 24 237 C24.57105469 236.68289063 25.14210938 236.36578125 25.73046875 236.0390625 C33.35257726 231.65241182 40.15617425 226.48913531 47 221 C47.75539063 220.401875 48.51078125 219.80375 49.2890625 219.1875 C72.62843961 199.84650224 85.6019269 169.12019422 91 140 C91.1757959 139.05439209 91.3515918 138.10878418 91.53271484 137.13452148 C96.53867059 103.55486329 84.96705465 74.11425713 65.37109375 47.3515625 C63.86768086 45.33680072 62.33343253 43.35817294 60.77734375 41.3828125 C59 39 59 39 58.00390625 36.8046875 C56.69873484 34.45842606 55.42086614 34.09442411 53 33 C51.45303889 31.82530226 49.93434851 30.61292084 48.4375 29.375 C35.29289742 18.75967955 22.3870158 10.56828003 6.375 5.125 C5.5411377 4.83874756 4.70727539 4.55249512 3.84814453 4.25756836 C-7.52594545 0.58005647 -18.93027708 -0.35405556 -30.82861328 -0.31567383 C-32.86675598 -0.31251279 -34.9034411 -0.33609244 -36.94140625 -0.36132812 C-48.81796853 -0.41866787 -60.03026825 1.40802019 -71.3125 5.25 C-73.1907645 5.88763961 -75.08382309 6.48743013 -77 7 C-77.66 6.67 -78.32 6.34 -79 6 C-70.50179802 2.20226871 -61.98530703 -0.59875415 -53 -3 C-52.28328125 -3.22816406 -51.5665625 -3.45632812 -50.828125 -3.69140625 C-35.51808217 -8.36947489 -15.10383115 -4.13406183 0 0 Z " fill="#FAFAEF" transform="translate(325,175)"/>
<path d="M0 0 C2.24984436 2.24984436 3.16366857 4.51659713 4.40917969 7.40722656 C19.90439566 42.98825333 53.5208799 66.4107199 88.625 80.375 C91.06484705 81.32985287 93.50768422 82.27598693 95.95410156 83.21386719 C98.31198431 84.11987941 100.65803365 85.05365441 103 86 C88.94401492 90.1321632 70.00758433 81.26298772 57.77539062 74.83007812 C30.5138833 59.6404551 11.12363461 35.46388228 0.59375 6.234375 C0 4 0 4 0 0 Z " fill="#FCFDF2" transform="translate(176,327)"/>
<path d="M0 0 C0.495 0.99 0.495 0.99 1 2 C-11.8299043 27.05093178 -40.22414435 49.32205954 -66.9453125 58.09375 C-67.95335937 58.3928125 -68.96140625 58.691875 -70 59 C-70.69448242 59.21140625 -71.38896484 59.4228125 -72.10449219 59.640625 C-74.48196789 60.35955927 -76.86441225 61.05848336 -79.25 61.75 C-80.00716309 61.97333008 -80.76432617 62.19666016 -81.54443359 62.42675781 C-88.05240602 64.24366812 -93.79242606 64.45645456 -100.4375 63 C-101.73494141 62.7215625 -101.73494141 62.7215625 -103.05859375 62.4375 C-103.69925781 62.293125 -104.33992188 62.14875 -105 62 C-104.67 61.34 -104.34 60.68 -104 60 C-101.90893555 59.5168457 -101.90893555 59.5168457 -99.13671875 59.17578125 C-98.11441162 59.03817383 -97.09210449 58.90056641 -96.03881836 58.75878906 C-94.9328833 58.61151367 -93.82694824 58.46423828 -92.6875 58.3125 C-57.62834017 53.14225522 -26.69257873 35.05422816 -5 7 C-3.30228589 4.68659988 -1.64713869 2.35007671 0 0 Z " fill="#2D2D22" transform="translate(404,366)"/>
<path d="M0 0 C1.22847656 0.31453125 2.45695312 0.6290625 3.72265625 0.953125 C22.98697788 6.18763012 38.57761585 17.63047306 53.625 30.375 C54.22989258 30.88724121 54.83478516 31.39948242 55.45800781 31.92724609 C58.05309678 34.16508326 60.08771505 36.13157257 62 39 C61.01 39 60.02 39 59 39 C58.7525 38.38125 58.505 37.7625 58.25 37.125 C56.73621479 34.55156514 55.63738281 34.30702157 53 33 C51.45303889 31.82530226 49.93434851 30.61292084 48.4375 29.375 C35.29289742 18.75967955 22.3870158 10.56828003 6.375 5.125 C5.5411377 4.83874756 4.70727539 4.55249512 3.84814453 4.25756836 C-7.52594545 0.58005647 -18.93027708 -0.35405556 -30.82861328 -0.31567383 C-32.86675598 -0.31251279 -34.9034411 -0.33609244 -36.94140625 -0.36132812 C-48.81796853 -0.41866787 -60.03026825 1.40802019 -71.3125 5.25 C-73.1907645 5.88763961 -75.08382309 6.48743013 -77 7 C-77.66 6.67 -78.32 6.34 -79 6 C-70.50179802 2.20226871 -61.98530703 -0.59875415 -53 -3 C-52.28328125 -3.22816406 -51.5665625 -3.45632812 -50.828125 -3.69140625 C-35.51808217 -8.36947489 -15.10383115 -4.13406183 0 0 Z " fill="#F7F8D1" transform="translate(325,175)"/>
<path d="M0 0 C6.95105302 5.17631608 11.4303392 11.75322218 16 19 C16.57717773 19.90951416 16.57717773 19.90951416 17.16601562 20.83740234 C27.88679105 38.01316566 36.30431535 59.46911026 35 80 C34.67 80 34.34 80 34 80 C33.67 83.63 33.34 87.26 33 91 C32.67 91 32.34 91 32 91 C31.9906543 90.36199463 31.98130859 89.72398926 31.97167969 89.06665039 C31.36459037 55.92374011 20.89331569 30.39004646 1.14453125 3.75 C0 2 0 2 0 0 Z " fill="#FAFBE4" transform="translate(386,214)"/>
<path d="M0 0 C0.495 0.99 0.495 0.99 1 2 C-9.20767318 21.93091441 -28.70863011 39.58582212 -49 49 C-48.9453125 46.78125 -48.9453125 46.78125 -48 44 C-45.63618532 42.29179805 -43.40967114 40.90163444 -40.875 39.5 C-24.05703756 29.56039523 -11.15196288 15.90261854 0 0 Z " fill="#313129" transform="translate(404,366)"/>
<path d="M0 0 C0.66 0.33 1.32 0.66 2 1 C1.01 2.485 1.01 2.485 0 4 C0.99 4.66 1.98 5.32 3 6 C3 7.32 3 8.64 3 10 C3.50450684 9.75241943 4.00901367 9.50483887 4.52880859 9.24975586 C6.80696246 8.13744369 9.0908114 7.03736252 11.375 5.9375 C12.1690625 5.54755859 12.963125 5.15761719 13.78125 4.75585938 C14.92207031 4.20961914 14.92207031 4.20961914 16.0859375 3.65234375 C16.7876709 3.31195068 17.4894043 2.97155762 18.21240234 2.62084961 C18.80230957 2.41596924 19.3922168 2.21108887 20 2 C20.66 2.33 21.32 2.66 22 3 C5.31506849 13 5.31506849 13 0 13 C0.33 11.35 0.66 9.7 1 8 C-2.3 8.33 -5.6 8.66 -9 9 C-8 5 -8 5 -6.22265625 3.48046875 C-5.50980469 3.05378906 -4.79695313 2.62710938 -4.0625 2.1875 C-3.35222656 1.74792969 -2.64195312 1.30835938 -1.91015625 0.85546875 C-1.27980469 0.57316406 -0.64945312 0.29085937 0 0 Z " fill="#9E9E9E" transform="translate(422,545)"/>
<path d="M0 0 C2.58653889 3.87980833 3.19113595 7.54174905 4.125 12.0625 C4.30385742 12.91561768 4.48271484 13.76873535 4.66699219 14.64770508 C5.84504497 20.53740803 6.39457764 25.98269093 6 32 C5.67 32 5.34 32 5 32 C4.67 35.63 4.34 39.26 4 43 C3.67 43 3.34 43 3 43 C2.98541748 42.34628418 2.97083496 41.69256836 2.95581055 41.01904297 C2.60547865 24.19109803 2.60547865 24.19109803 -0.4765625 7.70703125 C-1.04094471 4.78824862 -0.78021956 2.84520065 0 0 Z " fill="#F7F8D2" transform="translate(415,262)"/>
<path d="M0 0 C1.86328004 0.00502888 3.7265614 0.00958931 5.58984375 0.01367188 C10.10159595 0.02455869 14.61328285 0.04174546 19.125 0.0625 C19.125 0.3925 19.125 0.7225 19.125 1.0625 C18.11824219 1.08755615 17.11148438 1.1126123 16.07421875 1.13842773 C12.25708121 1.23422961 8.44005483 1.33399207 4.62304688 1.43481445 C2.98635499 1.47752328 1.3496365 1.51922713 -0.28710938 1.55981445 C-18.1725658 0.47320909 -18.1725658 0.47320909 -33.875 4.0625 C-36.06139453 4.13508946 -38.25000389 4.14623783 -40.4375 4.125 C-42.23380859 4.11146484 -42.23380859 4.11146484 -44.06640625 4.09765625 C-44.99324219 4.08605469 -45.92007813 4.07445312 -46.875 4.0625 C-46.875 3.7325 -46.875 3.4025 -46.875 3.0625 C-31.24605663 0.11418284 -15.83968957 -0.0751032 0 0 Z " fill="#E2E2E2" transform="translate(296.875,4.9375)"/>
<path d="M0 0 C0.66 0.33 1.32 0.66 2 1 C-17.38202247 22.19101124 -17.38202247 22.19101124 -23 25 C-21.32598022 21.04322598 -18.86850715 18.15535787 -16 15 C-15.34 15 -14.68 15 -14 15 C-13.67 14.01 -13.34 13.02 -13 12 C-12.34 12 -11.68 12 -11 12 C-10.67 11.01 -10.34 10.02 -10 9 C-9.34 9 -8.68 9 -8 9 C-8 8.34 -8 7.68 -8 7 C-6.25 5.2734375 -6.25 5.2734375 -4 3.375 C-3.2575 2.74335938 -2.515 2.11171875 -1.75 1.4609375 C-0.88375 0.73777344 -0.88375 0.73777344 0 0 Z " fill="#8A8A8A" transform="translate(146,126)"/>
<path d="M0 0 C0.66 0.33 1.32 0.66 2 1 C-2.54013558 7.45177162 -7.90179493 11.46269125 -14.625 15.375 C-15.7696875 16.06916016 -15.7696875 16.06916016 -16.9375 16.77734375 C-17.67226563 17.20917969 -18.40703125 17.64101563 -19.1640625 18.0859375 C-19.82873535 18.4782959 -20.4934082 18.8706543 -21.17822266 19.27490234 C-23 20 -23 20 -26 19 C-25.42894531 18.68289063 -24.85789062 18.36578125 -24.26953125 18.0390625 C-18.91873438 14.95958958 -13.94390136 11.5780148 -9.0625 7.8125 C-8.50731689 7.38469238 -7.95213379 6.95688477 -7.38012695 6.51611328 C-4.76864512 4.47505615 -2.2657642 2.42365718 0 0 Z " fill="#EBECD8" transform="translate(375,393)"/>
<path d="M0 0 C8.59599799 -0.22588024 16.60182604 0.08041738 25 2 C25 2.33 25 2.66 25 3 C16.42 3 7.84 3 -1 3 C-0.67 2.01 -0.34 1.02 0 0 Z " fill="#FAFBE4" transform="translate(280,170)"/>
<path d="M0 0 C0.66 0.33 1.32 0.66 2 1 C-4.01651793 7.73540335 -9.97462506 14.28307598 -17 20 C-17 16.07290865 -15.72099538 15.1810287 -13.125 12.3125 C-12.40570313 11.50425781 -11.68640625 10.69601563 -10.9453125 9.86328125 C-9 8 -9 8 -7 8 C-7 7.34 -7 6.68 -7 6 C-5.46875 4.4921875 -5.46875 4.4921875 -3.5 2.875 C-2.8503125 2.33617188 -2.200625 1.79734375 -1.53125 1.2421875 C-1.0259375 0.83226563 -0.520625 0.42234375 0 0 Z " fill="#838383" transform="translate(113,100)"/>
<path d="M0 0 C0.33 0.66 0.66 1.32 1 2 C-2.56487195 8.76528415 -7.29594136 14.98638658 -12 21 C-12.66 20.01 -13.32 19.02 -14 18 C-13.24074219 17.03578125 -12.48148437 16.0715625 -11.69921875 15.078125 C-10.69528885 13.80210194 -9.69138391 12.52605924 -8.6875 11.25 C-8.18798828 10.61578125 -7.68847656 9.9815625 -7.17382812 9.328125 C-4.74794301 6.24355585 -2.33433646 3.15493938 0 0 Z " fill="#414137" transform="translate(404,366)"/>
<path d="M0 0 C10.55808656 0.96355353 10.55808656 0.96355353 15 2 C11.36627467 4.42248355 8.87919158 4.17281207 4.70703125 3.9765625 C4.00100266 3.95153656 3.29497406 3.92651062 2.56755066 3.90072632 C0.31537051 3.81863741 -1.93591791 3.72200748 -4.1875 3.625 C-5.71545852 3.56674891 -7.24345349 3.50944586 -8.77148438 3.453125 C-12.51483461 3.3130757 -16.25745088 3.15998394 -20 3 C-20 2.67 -20 2.34 -20 2 C-10.1 1.505 -10.1 1.505 0 1 C0 0.67 0 0.34 0 0 Z " fill="#F1F4B2" transform="translate(302,171)"/>
<path d="M0 0 C0.66 0.33 1.32 0.66 2 1 C-12.33160147 13.11949878 -12.33160147 13.11949878 -17 16 C-17.99 15.67 -18.98 15.34 -20 15 C-17.11266663 11.90206114 -14.17215434 9.70284037 -10.5625 7.5 C-6.82140181 5.2105936 -3.38056814 2.79771157 0 0 Z " fill="#C0C0BF" transform="translate(449,525)"/>
<path d="M0 0 C0 0.66 0 1.32 0 2 C-4.60035001 3.65325078 -9.20256557 4.74126208 -14 5.625 C-15.02867187 5.82609375 -15.02867187 5.82609375 -16.078125 6.03125 C-20.10548793 6.7844591 -23.90571228 7.14074114 -28 7 C-28 6.67 -28 6.34 -28 6 C-24.08527676 4.99228484 -20.167929 3.9951719 -16.25 3 C-15.13882812 2.71382812 -14.02765625 2.42765625 -12.8828125 2.1328125 C-11.81289063 1.86210938 -10.74296875 1.59140625 -9.640625 1.3125 C-8.65610352 1.06113281 -7.67158203 0.80976562 -6.65722656 0.55078125 C-4 0 -4 0 0 0 Z " fill="#7E7E7E" transform="translate(348,546)"/>
<path d="M0 0 C0.66 0.33 1.32 0.66 2 1 C-4.6 7.6 -11.2 14.2 -18 21 C-18 17.45595664 -17.39010515 16.89732095 -15.125 14.3125 C-14.32449219 13.37857422 -14.32449219 13.37857422 -13.5078125 12.42578125 C-12 11 -12 11 -10 11 C-9.67 10.01 -9.34 9.02 -9 8 C-7.1875 6.2109375 -7.1875 6.2109375 -5 4.375 C-3.9171875 3.45847656 -3.9171875 3.45847656 -2.8125 2.5234375 C-2.214375 2.02070313 -1.61625 1.51796875 -1 1 C-0.67 0.67 -0.34 0.34 0 0 Z " fill="#BEC61E" transform="translate(207,193)"/>
<path d="M0 0 C0.66 0 1.32 0 2 0 C1.53730015 4.29227942 -0.90159458 6.02922065 -4.0625 8.75 C-4.98160156 9.54921875 -5.90070313 10.3484375 -6.84765625 11.171875 C-7.55792969 11.77515625 -8.26820313 12.3784375 -9 13 C-9.66 12.67 -10.32 12.34 -11 12 C-9.21479439 9.99388266 -7.42241288 7.9951283 -5.625 6 C-5.11710937 5.42765625 -4.60921875 4.8553125 -4.0859375 4.265625 C-2.76495095 2.80558723 -1.38599201 1.39847843 0 0 Z " fill="#2F2F23" transform="translate(389,385)"/>
<path d="M0 0 C2.55993768 2.55993768 3.61847135 5.21038188 5.125 8.5 C5.93324219 10.24796875 5.93324219 10.24796875 6.7578125 12.03125 C8 15 8 15 8 17 C7.01 17.33 6.02 17.66 5 18 C4.15875684 15.75267898 3.32685168 13.50261215 2.5 11.25 C2.26152344 10.61578125 2.02304688 9.9815625 1.77734375 9.328125 C0.55198242 5.96713393 0 3.63128413 0 0 Z " fill="#F8F9D8" transform="translate(176,327)"/>
<path d="M0 0 C3.9374409 2.2242582 7.3373337 4.79850633 10.8125 7.6875 C11.78832031 8.49574219 12.76414062 9.30398438 13.76953125 10.13671875 C14.50558594 10.75160156 15.24164063 11.36648438 16 12 C12.71752569 12 12.17433033 11.66923327 9.64453125 9.8125 C8.71157227 9.13574219 8.71157227 9.13574219 7.75976562 8.4453125 C7.11716797 7.96835937 6.47457031 7.49140625 5.8125 7 C5.15830078 6.52304687 4.50410156 6.04609375 3.83007812 5.5546875 C2.21542318 4.37610725 0.60709503 3.18886818 -1 2 C-0.67 1.34 -0.34 0.68 0 0 Z " fill="#C3C3C3" transform="translate(112,488)"/>
<path d="M0 0 C3.23861303 1.44424635 5.61969163 3.25772247 8.25 5.625 C8.95640625 6.25664062 9.6628125 6.88828125 10.390625 7.5390625 C10.92171875 8.02117187 11.4528125 8.50328125 12 9 C11.34 9.66 10.68 10.32 10 11 C8.5 9.625 8.5 9.625 7 8 C7 7.34 7 6.68 7 6 C6.401875 5.7525 5.80375 5.505 5.1875 5.25 C2.71352479 3.83629988 1.56629745 2.34944617 0 0 Z " fill="#F1F4B5" transform="translate(375,204)"/>
<path d="M0 0 C0.33 0 0.66 0 1 0 C1.36263859 5.8022175 0.25684543 9.63999211 -2 15 C-3.31534494 11.34142468 -2.65468309 8.91973519 -1.5625 5.25 C-1.27503906 4.26515625 -0.98757812 3.2803125 -0.69140625 2.265625 C-0.46324219 1.51796875 -0.23507813 0.7703125 0 0 Z " fill="#B8B8B8" transform="translate(34,225)"/>
<path d="M0 0 C0.99 0.33 1.98 0.66 3 1 C-1.39453125 5.00390625 -1.39453125 5.00390625 -3 6 C-3.99 5.67 -4.98 5.34 -6 5 C-2.25 1.125 -2.25 1.125 0 0 Z " fill="#DCDCDC" transform="translate(435,535)"/>
<path d="M0 0 C0.66 0.33 1.32 0.66 2 1 C1.67 1.33 1.34 1.66 1 2 C1.99 2.66 2.98 3.32 4 4 C1.69 4.33 -0.62 4.66 -3 5 C-2.625 3.0625 -2.625 3.0625 -2 1 C-1.34 0.67 -0.68 0.34 0 0 Z " fill="#C3C3C3" transform="translate(416,549)"/>
<path d="M0 0 C0.33 0.66 0.66 1.32 1 2 C0.00390625 3.9453125 0.00390625 3.9453125 -1.4375 6.125 C-1.91058594 6.84945313 -2.38367188 7.57390625 -2.87109375 8.3203125 C-3.24363281 8.87460937 -3.61617188 9.42890625 -4 10 C-4.66 9.34 -5.32 8.68 -6 8 C-4.02 5.36 -2.04 2.72 0 0 Z " fill="#4B4B36" transform="translate(404,366)"/>
<path d="M0 0 C0 0.66 0 1.32 0 2 C-2.95664519 3.4783226 -5.74229737 3.06032783 -9 3 C-6.01800145 0.01800145 -4.21244839 0 0 0 Z " fill="#C2C2C2" transform="translate(348,546)"/>
<path d="M0 0 C0.99 0 1.98 0 3 0 C3 3.52032428 2.29648649 4.4385343 0 7 C-0.66 7 -1.32 7 -2 7 C-1.34 4.69 -0.68 2.38 0 0 Z " fill="#C2C2C2" transform="translate(108,165)"/>
<path d="M0 0 C0.66 0.33 1.32 0.66 2 1 C0.07423885 3.43929746 -1.80090595 5.80090595 -4 8 C-4.66 7.01 -5.32 6.02 -6 5 C-4.02 3.35 -2.04 1.7 0 0 Z " fill="#41413C" transform="translate(381,392)"/>
<path d="M0 0 C-2.71182212 2.60334924 -3.89133813 2.99456691 -7.75 3.1875 C-8.8225 3.125625 -9.895 3.06375 -11 3 C-7.11595442 0.41063628 -4.5725325 -0.12358196 0 0 Z " fill="#C8C8C8" transform="translate(236,83)"/>
<path d="" fill="#FFFFFF" transform="translate(0,0)"/>
</svg>
