<?xml version="1.0" encoding="UTF-8"?>
<svg version="1.1" xmlns="http://www.w3.org/2000/svg" width="437" height="437">
<path d="M0 0 C2.53647079 -0.00407283 5.07293981 -0.00941867 7.60940552 -0.01593018 C13.74433307 -0.02811831 19.87911579 -0.02643333 26.014045 -0.01769225 C31.00635125 -0.0108777 35.9986267 -0.01001515 40.99093628 -0.0132637 C41.70531858 -0.0137234 42.41970089 -0.0141831 43.15573114 -0.01465673 C44.60762764 -0.01561604 46.05952413 -0.01658869 47.51142061 -0.0175745 C61.08059429 -0.02610012 74.64970687 -0.0163389 88.21887052 -0.0001734 C99.82595726 0.0132272 111.43295394 0.01089831 123.04003906 -0.00292969 C136.56536748 -0.01903575 150.09064253 -0.02527642 163.61597919 -0.0160929 C165.06211153 -0.01513739 166.50824387 -0.01419428 167.95437622 -0.0132637 C168.66563799 -0.01280088 169.37689977 -0.01233805 170.10971493 -0.0118612 C175.08779474 -0.00928633 180.06584029 -0.01360958 185.04391479 -0.02070236 C191.76148983 -0.03006451 198.47887029 -0.02326463 205.19643784 -0.00601959 C207.65007117 -0.00207978 210.10371889 -0.00314537 212.55734634 -0.00980759 C244.3916415 -0.08822395 269.64954396 6.21147757 293.22265625 28.82568359 C316.50196245 52.89061469 319.95189026 84.3443212 319.86083984 116.24633789 C319.86491538 118.67487828 319.87026271 121.10341681 319.87677002 123.5319519 C319.88892952 129.39173811 319.88728912 135.25139407 319.8785321 141.11118396 C319.87170579 145.87982998 319.87085995 150.64844376 319.87410355 155.41709328 C319.87456325 156.10054014 319.87502294 156.783987 319.87549657 157.48814437 C319.87645592 158.87730927 319.87742856 160.26647415 319.87841435 161.65563903 C319.88692952 174.62251125 319.87719436 187.5893194 319.86101325 200.55618111 C319.84760451 211.6441755 319.84995027 222.73207565 319.86376953 233.82006836 C319.87987857 246.75102131 319.88611538 259.68191846 319.87693274 272.61288005 C319.87597726 273.99549376 319.87503414 275.37810748 319.87410355 276.76072121 C319.87364072 277.4406928 319.87317789 278.1206644 319.87270104 278.8212412 C319.87012774 283.57693897 319.87444578 288.33260086 319.88154221 293.08829308 C319.8902623 299.50468094 319.88409841 305.92089224 319.86685944 312.3372612 C319.86292191 314.67963049 319.8639812 317.02201486 319.87064743 319.36437798 C319.9464363 348.7201529 314.85789329 376.0731909 294.47265625 398.38818359 C293.77527344 399.16677734 293.07789063 399.94537109 292.359375 400.74755859 C274.48773842 419.69737435 249.54437435 428.31746244 223.93777418 429.50582337 C216.86130799 429.6971811 209.78305491 429.67147801 202.70458984 429.6628418 C200.33253826 429.66719665 197.96048807 429.67238236 195.58843994 429.67832947 C189.18314776 429.69164961 182.77791484 429.69230579 176.37261152 429.68976617 C172.36000313 429.68847606 168.34740352 429.69111812 164.33479691 429.69475365 C163.66570429 429.69534884 162.99661168 429.69594402 162.30724353 429.69655725 C160.9473189 429.69776919 159.58739427 429.69898332 158.22746964 429.70019963 C145.51088361 429.71104344 132.79432419 429.7089281 120.07773669 429.70281478 C108.49189509 429.69765226 96.90613773 429.70888914 85.32031278 429.727913 C73.37436749 429.74737507 61.42846189 429.75553258 49.48250067 429.75178975 C42.79574012 429.74988984 36.10906638 429.75251715 29.42231369 429.76650429 C23.12664237 429.77918194 16.83113814 429.77704553 10.53546906 429.7640934 C8.24154476 429.76174929 5.94760833 429.76438324 3.65369797 429.77271652 C-29.74456691 429.88517519 -58.75604664 424.33178822 -83.71484375 400.63818359 C-101.07263387 382.61171456 -109.88441357 358.94288776 -109.78804016 334.09953308 C-109.79186571 333.02997275 -109.79569126 331.96041242 -109.79963273 330.85844117 C-109.80986975 327.30995426 -109.80598835 323.76163198 -109.80200195 320.21313477 C-109.80635358 317.65445304 -109.81153823 315.09577262 -109.81748962 312.53709412 C-109.82945831 306.32932443 -109.83203687 300.12161445 -109.82968936 293.91383549 C-109.82790009 288.86323502 -109.82966885 283.81264763 -109.8339138 278.76204872 C-109.83450899 278.0408608 -109.83510418 277.31967288 -109.83571741 276.57663077 C-109.83692927 275.11112115 -109.8381434 273.64561153 -109.83935978 272.18010191 C-109.85021526 258.46223626 -109.84808235 244.74439524 -109.84197494 231.02652822 C-109.83680809 218.50526524 -109.84805865 205.98408012 -109.86707316 193.46283253 C-109.8864934 180.57458142 -109.8947002 167.68636707 -109.8909499 154.79810125 C-109.88904413 147.57493578 -109.89146419 140.35183654 -109.90566444 133.12868309 C-109.91888983 126.33321692 -109.91626164 119.53793102 -109.90325356 112.74245644 C-109.90089672 110.25734529 -109.90359019 107.77222308 -109.91187668 105.28712463 C-110.00206468 76.12304789 -104.5717994 49.75893754 -83.46484375 28.29052734 C-82.4879154 27.32081922 -81.50891461 26.35319213 -80.52734375 25.38818359 C-79.76421875 24.62634766 -79.00109375 23.86451172 -78.21484375 23.07958984 C-56.23498569 2.35226046 -28.75720836 -0.0780831 0 0 Z M-0.90234375 62.70068359 C-4.2390437 67.04657617 -5.81088317 70.86766367 -5.40234375 76.38818359 C-4.57716358 81.25581945 -2.63044481 84.62766914 1.19921875 87.83349609 C6.08226962 91.23801363 10.5327334 92.57331187 16.47265625 92.38818359 C18.08239516 91.94166005 19.68659036 91.47475098 21.28515625 90.98974609 C24.26852691 90.36736179 25.80200381 90.05537095 28.55712891 91.42260742 C30.56917129 93.10986722 32.32677636 94.88713377 34.09765625 96.82568359 C35.38863767 98.13625478 36.68029737 99.4461582 37.97265625 100.75537109 C38.57722656 101.38797852 39.18179688 102.02058594 39.8046875 102.67236328 C41.80102751 104.72597534 43.910387 106.60310388 46.09765625 108.45068359 C49.04616756 110.94930468 51.74663279 113.64908902 54.47265625 116.38818359 C53.28712158 116.37247314 52.10158691 116.3567627 50.88012695 116.34057617 C46.47264425 116.28618795 42.0651911 116.25180114 37.6574707 116.22338867 C35.75149544 116.20832231 33.84555473 116.18786535 31.93969727 116.16186523 C29.19669049 116.12538718 26.45414297 116.10843568 23.7109375 116.09521484 C22.86179276 116.07973099 22.01264801 116.06424713 21.13777161 116.04829407 C16.42292014 116.04695938 13.28934969 116.29799337 9.47265625 119.38818359 C7.72938212 122.32005372 7.45833205 124.03724075 7.59765625 127.45068359 C8.60128847 130.82002034 9.7779107 132.18339178 12.47265625 134.38818359 C14.92389024 135.61380059 16.56102055 135.53474767 19.30200195 135.56518555 C20.30677078 135.57802078 21.31153961 135.59085602 22.34675598 135.6040802 C23.43631088 135.61146713 24.52586578 135.61885406 25.6484375 135.62646484 C27.32440254 135.63857246 27.32440254 135.63857246 29.03422546 135.65092468 C31.40227706 135.66477306 33.77034868 135.67549183 36.13842773 135.68334961 C39.75998763 135.70056396 43.38063525 135.74444488 47.00195312 135.78857422 C49.30077453 135.79870074 51.5996037 135.80721697 53.8984375 135.81396484 C54.98191971 135.83147293 56.06540192 135.84898102 57.18171692 135.86701965 C63.18213192 135.86152967 63.18213192 135.86152967 68.63354492 133.57641602 C71.20676061 130.51472317 71.47265625 128.35336873 71.47265625 124.38818359 C69.41931243 120.12140475 66.41330485 117.22397355 62.91015625 114.13818359 C62.37712891 113.65929687 61.84410156 113.18041016 61.29492188 112.68701172 C59.69226505 111.248632 58.08273789 109.81824036 56.47265625 108.38818359 C54.80511443 106.88915656 53.13838291 105.38922739 51.47265625 103.88818359 C50.67730469 103.17533203 49.88195312 102.46248047 49.0625 101.72802734 C47.12791454 99.9801892 45.20437737 98.22332157 43.2890625 96.45458984 C42.74830078 95.95572266 42.20753906 95.45685547 41.65039062 94.94287109 C40.59664912 93.96940252 39.54448827 92.99421934 38.49414062 92.01708984 C36.22816632 89.92448539 34.04729618 88.10461021 31.47265625 86.38818359 C32.04850057 84.00254282 32.6949322 81.72135575 33.47265625 79.38818359 C34.0730988 73.75780426 34.06872371 68.75359232 30.8828125 63.92333984 C26.60997554 59.27174725 21.03680133 56.56202394 14.78515625 56.13818359 C8.38967881 56.26726662 3.46292545 57.91160185 -0.90234375 62.70068359 Z M178.47265625 64.38818359 C176.42836953 67.59964753 176.2281689 70.11665688 176.28515625 73.88818359 C176.29482422 75.29583984 176.29482422 75.29583984 176.3046875 76.73193359 C176.35223551 79.3146261 176.35223551 79.3146261 177.14123535 81.3616333 C177.25060425 82.0303949 177.35997314 82.69915649 177.47265625 83.38818359 C175.47609455 85.82028868 173.51739466 87.89902822 171.25390625 90.06005859 C170.60321167 90.70130676 169.95251709 91.34255493 169.28210449 92.00323486 C167.19038878 94.06028229 165.08237679 96.09962045 162.97265625 98.13818359 C160.89490465 100.1656826 158.82072659 102.19673169 156.74890137 104.23028564 C155.45856102 105.49461075 154.16429519 106.75494735 152.86535645 108.01043701 C144.59184853 115.55114617 144.59184853 115.55114617 139.34765625 125.07568359 C139.49012125 128.85100605 140.07359115 130.4927602 142.47265625 133.38818359 C145.55049491 135.30374195 147.93316776 135.64763141 151.52905273 135.67871094 C152.5336705 135.69147064 153.53828827 135.70423035 154.573349 135.71737671 C156.19219749 135.72071518 156.19219749 135.72071518 157.84375 135.72412109 C159.5154702 135.73410629 159.5154702 135.73410629 161.22096252 135.74429321 C163.57706044 135.75441473 165.933187 135.75911039 168.28930664 135.75878906 C171.893221 135.76316304 175.4959116 135.799492 179.09960938 135.83740234 C181.38931873 135.84327039 183.6790339 135.84723986 185.96875 135.84912109 C187.58456215 135.87067764 187.58456215 135.87067764 189.23301697 135.89266968 C195.20575039 135.86354452 195.20575039 135.86354452 200.62915039 133.57421875 C203.20897324 130.51505655 203.47265625 128.35525558 203.47265625 124.38818359 C201.86432601 120.66362936 200.01059531 118.34934176 196.47265625 116.38818359 C193.27817457 115.9699008 190.11132582 116.03975225 186.89453125 116.09521484 C185.96795715 116.09945969 185.04138306 116.10370453 184.08673096 116.108078 C181.13174191 116.12485037 178.17743864 116.16250004 175.22265625 116.20068359 C173.21745778 116.21573229 171.2122486 116.22942037 169.20703125 116.24169922 C164.29530929 116.27474922 159.38409899 116.32652178 154.47265625 116.38818359 C159.45387088 110.54639729 164.67235479 105.00577772 170.09765625 99.57568359 C170.835 98.82609375 171.57234375 98.07650391 172.33203125 97.30419922 C173.05132812 96.58296875 173.770625 95.86173828 174.51171875 95.11865234 C175.15318848 94.47307373 175.7946582 93.82749512 176.45556641 93.16235352 C178.68901274 91.19788311 180.79759394 89.69563976 183.47265625 88.38818359 C186.34765625 89.63818359 186.34765625 89.63818359 189.47265625 91.38818359 C195.70098334 92.88759567 200.79957856 92.33836057 206.4296875 89.34912109 C210.53540053 86.66960312 212.93938688 84.16837632 214.47265625 79.38818359 C215.21909651 73.75255964 215.07380946 68.76130298 211.8828125 63.92333984 C207.58708968 59.24683273 202.00487955 56.55699848 195.72265625 56.13818359 C188.58380728 56.25585693 183.47585192 59.6176947 178.47265625 64.38818359 Z M82.47265625 91.38818359 C78.2293279 96.77219161 77.79366197 102.41203135 78.02734375 109.13427734 C78.94893438 115.86835627 81.83297558 121.19153288 86.78515625 125.82568359 C94.66213743 131.76708179 102.7550553 132.38999812 112.47265625 131.38818359 C120.21972395 129.29681263 126.30903867 124.8598754 130.34765625 117.88818359 C133.43504587 111.19384363 133.69883535 104.1880294 131.87890625 97.06396484 C129.1275209 90.58037622 123.40158647 85.44194257 117.23828125 82.22021484 C103.89791763 77.18209879 91.80271533 81.08779837 82.47265625 91.38818359 Z M48.19921875 160.81396484 C43.54070448 167.75957775 43.03178235 174.20116198 43.06860352 182.32714844 C43.06174026 183.39490005 43.05487701 184.46265167 43.04780579 185.5627594 C43.02957888 189.07501715 43.03336988 192.58682642 43.0390625 196.09912109 C43.0344985 198.55237981 43.02919227 201.00563724 43.0231781 203.45889282 C43.01425484 208.5948812 43.01666104 213.73071401 43.02661133 218.86669922 C43.03809519 225.43252199 43.01789369 231.99780649 42.98869419 238.56355858 C42.97030412 243.62864567 42.97063039 248.69360447 42.97633171 253.75871658 C42.9764846 256.17870463 42.9704668 258.59870154 42.95804024 261.01865768 C42.94308096 264.4095868 42.95384494 267.79953036 42.97094727 271.19042969 C42.9612793 272.17984055 42.95161133 273.1692514 42.94165039 274.18864441 C43.02280968 281.91456808 44.78628449 288.55805093 49.26171875 294.93896484 C54.97988351 300.42596975 61.28387335 305.38818359 69.47265625 305.38818359 C69.48200195 304.1379541 69.49134766 302.88772461 69.50097656 301.59960938 C69.54111855 296.92136167 69.60694302 292.24375496 69.68017578 287.56591797 C69.70824578 285.5487497 69.72952917 283.53147429 69.74365234 281.51416016 C69.76527653 278.59921974 69.81202443 275.68554869 69.86328125 272.77099609 C69.86512421 271.43755661 69.86512421 271.43755661 69.86700439 270.07717896 C70.07639919 260.94326655 72.9577227 252.76731507 79.4140625 246.14990234 C89.02837129 237.92209729 100.76334576 238.16248404 112.85058594 239.05419922 C120.12783199 239.98113335 125.88365458 243.39987136 130.97265625 248.63818359 C136.32432094 256.07221383 138.06956578 263.7518169 138.08203125 272.77099609 C138.0985675 273.71127655 138.11510376 274.65155701 138.13214111 275.62033081 C138.18021354 278.58468419 138.20190075 281.54852623 138.22265625 284.51318359 C138.25085008 286.53925043 138.28078221 288.56529386 138.3125 290.59130859 C138.38596112 295.52355807 138.43578373 300.45553043 138.47265625 305.38818359 C148.03600668 304.16209515 153.6120315 299.79786629 159.96484375 292.70849609 C164.44871239 285.80844953 164.91596465 279.35995412 164.89257812 271.35742188 C164.90104767 270.27991669 164.90951721 269.2024115 164.91824341 268.09225464 C164.94154933 264.54754678 164.94263704 261.00327463 164.94140625 257.45849609 C164.94851166 254.98281686 164.95621122 252.50713926 164.96447754 250.03146362 C164.97790768 244.84840311 164.97949762 239.66549489 164.97363281 234.48242188 C164.9677383 227.85597634 164.99832619 221.23026385 165.03874969 214.60396004 C165.06465808 209.49254451 165.0675012 204.38130475 165.06385803 199.26983261 C165.06554632 196.82750481 165.07516054 194.38516864 165.09300232 191.94290543 C165.11525294 188.52068921 165.10545744 185.09994756 165.08789062 181.67773438 C165.10115387 180.67897278 165.11441711 179.68021118 165.12808228 178.65118408 C165.02878894 170.28369131 162.47678346 163.84292989 156.97265625 157.51318359 C156.14765625 156.81193359 155.32265625 156.11068359 154.47265625 155.38818359 C153.70953125 154.68693359 152.94640625 153.98568359 152.16015625 153.26318359 C142.7490093 146.69726712 131.81911396 147.22989735 120.796875 147.22021484 C119.46320054 147.21699481 118.12952642 147.2136302 116.79585266 147.21012878 C114.00785505 147.20416353 111.21988831 147.20228618 108.43188477 147.20288086 C104.88501434 147.20298229 101.33834493 147.18933803 97.79152203 147.17210865 C95.03832618 147.16090982 92.28517772 147.15896406 89.53196144 147.15949059 C87.59678788 147.15775949 85.66162911 147.14696989 83.72648621 147.13594055 C68.87415467 147.17408604 58.36620509 149.49639363 48.19921875 160.81396484 Z " fill="#F4D515" transform="translate(115.52734375,5.61181640625)"/>
<path d="M0 0 C5.92470653 2.60328014 9.97683471 6.33156509 13 12 C14.2609135 15.78274049 14.16371821 19.333892 14.17700195 23.27587891 C14.18685875 24.54232239 14.18685875 24.54232239 14.19691467 25.83435059 C14.21664218 28.63175548 14.22831102 31.42910661 14.23828125 34.2265625 C14.24235678 35.18344341 14.2464323 36.14032433 14.25063133 37.12620163 C14.2714929 42.1939955 14.28579246 47.26176232 14.29516602 52.32958984 C14.30621148 57.55156248 14.34058968 62.77310678 14.38033772 67.99492836 C14.40655143 72.02026127 14.41486223 76.04549303 14.41844749 80.07090378 C14.42330364 81.99492653 14.43488979 83.91894505 14.45348549 85.84288406 C14.47797114 88.54484659 14.47689452 91.24571319 14.4699707 93.94775391 C14.48918579 95.12644547 14.48918579 95.12644547 14.50878906 96.32894897 C14.44684203 103.00629084 12.52906885 108.99775053 8.18359375 114.15625 C7.60738281 114.5996875 7.03117187 115.043125 6.4375 115.5 C5.56931641 116.19609375 5.56931641 116.19609375 4.68359375 116.90625 C-0.22989507 120.0983077 -6.3881674 119.52843517 -12 119 C-17.41822282 116.4386583 -21.35003037 112.16515951 -24.12246704 106.84675598 C-25.30044608 103.02533953 -25.29500439 99.34927916 -25.29052734 95.3894043 C-25.29724457 94.53345673 -25.30396179 93.67750916 -25.31088257 92.79562378 C-25.32984791 89.9717627 -25.33378614 87.14813952 -25.3359375 84.32421875 C-25.34236685 82.35512699 -25.34909532 80.38603618 -25.35610962 78.41694641 C-25.36807902 74.29039293 -25.37179083 70.16392313 -25.37060547 66.03735352 C-25.3704024 60.76150243 -25.39769422 55.48619071 -25.43214989 50.21046734 C-25.45443885 46.14312803 -25.45844238 42.07591806 -25.45738602 38.00852394 C-25.45973936 36.0641475 -25.46854779 34.11976734 -25.48405075 32.17545128 C-25.50374946 29.4495151 -25.49785745 26.72473596 -25.48583984 23.9987793 C-25.49707886 23.203181 -25.50831787 22.4075827 -25.51989746 21.58787537 C-25.45112268 15.41762995 -23.87684337 10.04270829 -19.55267906 5.46923351 C-13.41235879 0.15324485 -8.00915542 -1.23384286 0 0 Z " fill="#020100" transform="translate(226,260)"/>
<path d="M0 0 C0.12375 0.639375 0.2475 1.27875 0.375 1.9375 C0.58125 2.618125 0.7875 3.29875 1 4 C1.66 4.33 2.32 4.66 3 5 C2.67 6.65 2.34 8.3 2 10 C2.7425 10.0825 3.485 10.165 4.25 10.25 C7.53523197 11.14597236 8.74598154 12.51280722 11 15 C11.66 15.33 12.32 15.66 13 16 C13 16.66 13 17.32 13 18 C13.99 18.33 14.98 18.66 16 19 C17.6875 20.4375 17.6875 20.4375 19 22 C19 22.66 19 23.32 19 24 C19.928125 24.4640625 19.928125 24.4640625 20.875 24.9375 C22.25 25.625 23.625 26.3125 25 27 C25 27.99 25 28.98 25 30 C25.66 30 26.32 30 27 30 C27 30.66 27 31.32 27 32 C27.57621094 32.2578125 28.15242188 32.515625 28.74609375 32.78125 C31.19393785 34.1048676 33.00637727 35.6300772 35.0625 37.5 C37.33432007 39.55815561 39.43707257 41.29138171 42 43 C42 43.66 42 44.32 42 45 C43.485 45.495 43.485 45.495 45 46 C45.66 43.36 46.32 40.72 47 38 C48.11518311 41.34554934 47.93386224 43.55658134 47.75 47.0625 C47.7200384 53.78887938 48.94055546 58.59066788 53 64 C59.01807316 69.94392852 65.35790513 72.28011117 73.8125 72.375 C80.09997765 72.28214695 84.65057751 71.27609172 90 68 C90.9075 67.46375 91.815 66.9275 92.75 66.375 C98.04329108 60.7876372 100.31351109 54.9998127 100.4375 47.3125 C100.25205527 42.55837143 99.65679326 38.4526319 98 34 C98.66 34 99.32 34 100 34 C100 34.99 100 35.98 100 37 C100.66 37 101.32 37 102 37 C102 37.99 102 38.98 102 40 C102.556875 40.20625 103.11375 40.4125 103.6875 40.625 C106.97012371 42.57683032 108.70673246 44.94230994 111 48 C111 48.66 111 49.32 111 50 C112.32 50.66 113.64 51.32 115 52 C115 52.66 115 53.32 115 54 C115.66 54.33 116.32 54.66 117 55 C115.71937515 56.7074998 114.38232443 58.37373596 113 60 C112.34 60 111.68 60 111 60 C109.20682577 64.43019517 108.66137995 67.3663152 110 72 C111.58066894 73.99301736 112.73086702 74.86543351 115 76 C116.61252706 76.10534545 118.22929798 76.14872872 119.84521484 76.16113281 C120.85321136 76.17074036 121.86120789 76.1803479 122.89974976 76.19024658 C123.99244171 76.19449646 125.08513367 76.19874634 126.2109375 76.203125 C127.3306192 76.20882507 128.4503009 76.21452515 129.60391235 76.22039795 C131.9761663 76.22985665 134.34843344 76.23638537 136.72070312 76.24023438 C140.3530973 76.24994147 143.98492618 76.28095798 147.6171875 76.3125 C149.91926746 76.3190297 152.22135149 76.3242803 154.5234375 76.328125 C155.61208099 76.3404718 156.70072449 76.3528186 157.82235718 76.36553955 C159.34380844 76.3610379 159.34380844 76.3610379 160.89599609 76.35644531 C161.78709076 76.36009094 162.67818542 76.36373657 163.59628296 76.36749268 C166.54143476 75.91722266 167.87245006 75.06594869 170 73 C171.28842537 69.40932038 171.28842537 69.40932038 172 66 C172.66 66 173.32 66 174 66 C173.67 70.62 173.34 75.24 173 80 C171.35 79.67 169.7 79.34 168 79 C168 79.33 168 79.66 168 80 C148.86 80 129.72 80 110 80 C109.01 77.36 108.02 74.72 107 72 C106.01 71.34 105.02 70.68 104 70 C104.66 70 105.32 70 106 70 C105.34 69.34 104.68 68.68 104 68 C103.34 68.66 102.68 69.32 102 70 C101.34 70 100.68 70 100 70 C100 71.32 100 72.64 100 74 C99.13375 73.67 98.2675 73.34 97.375 73 C93.86169606 71.95902105 91.61685223 71.38436558 88 72 C87.175 73.010625 86.35 74.02125 85.5 75.0625 C84.2625 76.5165625 84.2625 76.5165625 83 78 C79.6875 77.875 79.6875 77.875 77 77 C77 76.34 77 75.68 77 75 C72.03088634 76.12697043 72.03088634 76.12697043 68 79 C68 78.34 68 77.68 68 77 C67.01 77 66.02 77 65 77 C64.67 77.66 64.34 78.32 64 79 C63.01 79 62.02 79 61 79 C61 78.01 61 77.02 61 76 C60.34 76 59.68 76 59 76 C58.9071875 75.071875 58.9071875 75.071875 58.8125 74.125 C58.171081 71.72238859 58.171081 71.72238859 55.4375 70.75 C54.633125 70.5025 53.82875 70.255 53 70 C53 69.01 53 68.02 53 67 C52.401875 66.71125 51.80375 66.4225 51.1875 66.125 C49 65 49 65 46 63 C44.515 63.495 44.515 63.495 43 64 C42.34 67.3 41.68 70.6 41 74 C41.99 74.66 42.98 75.32 44 76 C43.505 77.98 43.505 77.98 43 80 C38.78014754 80 34.56396247 79.99869088 30.3449707 79.90820312 C29.40422195 79.88818237 28.46347321 79.86816162 27.49421692 79.84753418 C26.48163315 79.8256604 25.46904938 79.80378662 24.42578125 79.78125 C23.38681198 79.75905396 22.34784271 79.73685791 21.27738953 79.71398926 C17.9557532 79.64295857 14.63412659 79.57148442 11.3125 79.5 C9.06184958 79.45179373 6.81119855 79.40361629 4.56054688 79.35546875 C-0.95964263 79.23731376 -6.47982422 79.11879458 -12 79 C-11.67 79.99 -11.34 80.98 -11 82 C-11.66 82 -12.32 82 -13 82 C-13.33 81.34 -13.66 80.68 -14 80 C-15.88013106 78.87775145 -15.88013106 78.87775145 -18.0625 77.875 C-18.79597656 77.52179688 -19.52945313 77.16859375 -20.28515625 76.8046875 C-20.85105469 76.53914063 -21.41695313 76.27359375 -22 76 C-21.505 75.01 -21.505 75.01 -21 74 C-20.44461548 74.32433517 -19.88923096 74.64867035 -19.3170166 74.98283386 C-16.66508669 76.14702634 -14.81589006 76.25962326 -11.92773438 76.2746582 C-10.91988892 76.28419022 -9.91204346 76.29372223 -8.87365723 76.30354309 C-7.25010315 76.30217598 -7.25010315 76.30217598 -5.59375 76.30078125 C-3.91847229 76.30720894 -3.91847229 76.30720894 -2.20935059 76.31376648 C0.15095339 76.31950708 2.51127506 76.32001204 4.87158203 76.31567383 C8.48630858 76.31251198 12.10021828 76.33598392 15.71484375 76.36132812 C18.00781147 76.36360091 20.30078139 76.36430471 22.59375 76.36328125 C23.67611938 76.372491 24.75848877 76.38170074 25.87365723 76.39118958 C26.88150269 76.38496078 27.88934814 76.37873199 28.92773438 76.37231445 C29.81279663 76.37294388 30.69785889 76.3735733 31.60974121 76.3742218 C34.5329391 75.91656241 35.8855687 75.04898056 38 73 C39.03789834 69.26356599 39.52468333 67.06282007 37.78125 63.53125 C35.91787686 60.8832987 34.01015471 58.9890663 31.5625 56.875 C27.66494489 53.45967514 23.80963936 50.01239433 20 46.5 C16.19833155 43.00883367 12.38967773 39.5257262 8.5625 36.0625 C7.80066406 35.37285156 7.03882813 34.68320313 6.25390625 33.97265625 C3.89202775 31.90550089 1.46460359 29.94299437 -1 28 C-0.42415568 25.61435923 0.22227595 23.33317216 1 21 C1.74095906 14.05199042 0.95224567 9.74872097 -3 4 C-3.33 3.34 -3.66 2.68 -4 2 C-2.68 1.34 -1.36 0.68 0 0 Z " fill="#E3C617" transform="translate(147,64)"/>
<path d="M0 0 C0.33 0 0.66 0 1 0 C1.00173625 0.54478101 1.0034725 1.08956202 1.00526136 1.65085155 C1.10822146 33.91719827 1.21631922 66.18352308 1.33111694 98.44982975 C1.34488702 102.32145212 1.35861404 106.19307464 1.37231445 110.06469727 C1.37504276 110.83548895 1.37777106 111.60628063 1.38058204 112.40042963 C1.42469363 124.89172375 1.46531466 137.38302692 1.50465261 149.87433688 C1.54507471 162.68531582 1.5892319 175.49627794 1.63687855 188.30723208 C1.66617618 196.2164393 1.69253751 204.12564523 1.71517897 212.03487434 C1.73283284 218.09296964 1.75567566 224.15103387 1.78049088 230.20910454 C1.78986963 232.69923952 1.79754193 235.18938157 1.80341911 237.67952728 C1.81166626 241.06790667 1.82593909 244.45620761 1.84178162 247.84455872 C1.84275972 248.83968485 1.84373783 249.83481099 1.84474558 250.86009246 C1.85022002 251.76478167 1.85569446 252.66947087 1.8613348 253.6015749 C1.86399284 254.3841785 1.86665089 255.1667821 1.86938947 255.97310096 C1.92684331 258.20480988 1.92684331 258.20480988 3 261 C3.06802967 262.72795352 3.08495645 264.45835365 3.0625 266.1875 C3.05347656 267.08855469 3.04445313 267.98960937 3.03515625 268.91796875 C3.02355469 269.60503906 3.01195312 270.29210937 3 271 C3.66 271 4.32 271 5 271 C7.0962712 275.84762716 7 279.76520228 7 285 C4.8253976 281.7380964 3.99974114 279.01429181 2.9375 275.25 C2.59589844 274.05890625 2.25429687 272.8678125 1.90234375 271.640625 C0.12279593 264.46080435 -0.14176943 257.60003571 -0.12025452 250.24964905 C-0.12110894 249.17786091 -0.12196337 248.10607277 -0.12284368 247.0018062 C-0.12448854 243.416633 -0.11899337 239.83150677 -0.11352539 236.24633789 C-0.11324328 233.67390952 -0.11340172 231.10148106 -0.1139679 228.52905273 C-0.11449146 222.99394814 -0.11136219 217.45885536 -0.10573006 211.92375374 C-0.09759232 203.9209926 -0.0949975 195.91823715 -0.09374207 187.91547232 C-0.09155512 174.93054276 -0.08490472 161.9456195 -0.07543945 148.96069336 C-0.06625609 136.34936555 -0.05917978 123.73803946 -0.05493164 111.12670898 C-0.05466892 110.3489422 -0.05440619 109.57117542 -0.05413551 108.76983995 C-0.05283044 104.8678918 -0.05156674 100.96594365 -0.05032361 97.06399548 C-0.03996213 64.70932575 -0.02235353 32.35466375 0 0 Z " fill="#DECA42" transform="translate(6,90)"/>
<path d="M0 0 C2.78553424 2.40568867 4.15653472 4.39610288 5 8 C4.56779213 11.3951751 3.83717459 14.68350065 3 18 C3.99 18.66 4.98 19.32 6 20 C5.67 21.32 5.34 22.64 5 24 C0.78014754 24 -3.43603753 23.99869088 -7.6550293 23.90820312 C-9.06615242 23.878172 -9.06615242 23.878172 -10.50578308 23.84753418 C-11.51836685 23.8256604 -12.53095062 23.80378662 -13.57421875 23.78125 C-15.13267265 23.74795593 -15.13267265 23.74795593 -16.72261047 23.71398926 C-20.0442468 23.64295857 -23.36587341 23.57148442 -26.6875 23.5 C-28.93815042 23.45179373 -31.18880145 23.40361629 -33.43945312 23.35546875 C-38.95964263 23.23731376 -44.47982422 23.11879458 -50 23 C-49.67 23.99 -49.34 24.98 -49 26 C-49.66 26 -50.32 26 -51 26 C-51.33 25.34 -51.66 24.68 -52 24 C-53.88013106 22.87775145 -53.88013106 22.87775145 -56.0625 21.875 C-57.16271484 21.34519531 -57.16271484 21.34519531 -58.28515625 20.8046875 C-58.85105469 20.53914063 -59.41695313 20.27359375 -60 20 C-59.67 19.34 -59.34 18.68 -59 18 C-58.44461548 18.32433517 -57.88923096 18.64867035 -57.3170166 18.98283386 C-54.66508669 20.14702634 -52.81589006 20.25962326 -49.92773438 20.2746582 C-48.41596619 20.28895622 -48.41596619 20.28895622 -46.87365723 20.30354309 C-45.25010315 20.30217598 -45.25010315 20.30217598 -43.59375 20.30078125 C-41.91847229 20.30720894 -41.91847229 20.30720894 -40.20935059 20.31376648 C-37.84904661 20.31950708 -35.48872494 20.32001204 -33.12841797 20.31567383 C-29.51369142 20.31251198 -25.89978172 20.33598392 -22.28515625 20.36132812 C-19.99218853 20.36360091 -17.69921861 20.36430471 -15.40625 20.36328125 C-14.32388062 20.372491 -13.24151123 20.38170074 -12.12634277 20.39118958 C-11.11849731 20.38496078 -10.11065186 20.37873199 -9.07226562 20.37231445 C-8.18720337 20.37294388 -7.30214111 20.3735733 -6.39025879 20.3742218 C-3.4670609 19.91656241 -2.1144313 19.04898056 0 17 C1.10487092 13.0224647 1.45776618 10.93633992 -0.375 7.1875 C-0.91125 6.465625 -1.4475 5.74375 -2 5 C-2.495 4.01 -2.495 4.01 -3 3 C-2.01 2.67 -1.02 2.34 0 2 C0 1.34 0 0.68 0 0 Z M3 1 C5 2 5 2 5 2 Z " fill="#D9C233" transform="translate(185,120)"/>
<path d="M0 0 C0.66 0 1.32 0 2 0 C1.67 4.62 1.34 9.24 1 14 C-0.65 13.67 -2.3 13.34 -4 13 C-4 13.33 -4 13.66 -4 14 C-23.14 14 -42.28 14 -62 14 C-62.99 11.36 -63.98 8.72 -65 6 C-65.99 5.34 -66.98 4.68 -68 4 C-67.34 4 -66.68 4 -66 4 C-66 3.01 -66 2.02 -66 1 C-65.34 1 -64.68 1 -64 1 C-63.34895833 2.7578125 -62.69791667 4.515625 -62.046875 6.2734375 C-60.66485573 8.55273794 -59.46117087 9.00610795 -57 10 C-54.56610266 10.30707626 -54.56610266 10.30707626 -51.92773438 10.2746582 C-50.41596619 10.28895622 -50.41596619 10.28895622 -48.87365723 10.30354309 C-47.79128784 10.30263168 -46.70891846 10.30172028 -45.59375 10.30078125 C-43.91847229 10.30720894 -43.91847229 10.30720894 -42.20935059 10.31376648 C-39.84904661 10.31950708 -37.48872494 10.32001204 -35.12841797 10.31567383 C-31.51369142 10.31251198 -27.89978172 10.33598392 -24.28515625 10.36132812 C-21.99218853 10.36360091 -19.69921861 10.36430471 -17.40625 10.36328125 C-16.32388062 10.372491 -15.24151123 10.38170074 -14.12634277 10.39118958 C-13.11849731 10.38496078 -12.11065186 10.37873199 -11.07226562 10.37231445 C-10.18720337 10.37294388 -9.30214111 10.3735733 -8.39025879 10.3742218 C-5.45776348 9.9151068 -4.12153888 9.05659644 -2 7 C-0.71157463 3.40932038 -0.71157463 3.40932038 0 0 Z " fill="#DCC33F" transform="translate(319,130)"/>
<path d="M0 0 C0.66 0.33 1.32 0.66 2 1 C2 3.31 2 5.62 2 8 C1.34 8 0.68 8 0 8 C0 7.34 0 6.68 0 6 C-1.65 6.33 -3.3 6.66 -5 7 C-5.309375 8.11375 -5.61875 9.2275 -5.9375 10.375 C-7 14 -7 14 -8 16 C-9.2375 16.4640625 -9.2375 16.4640625 -10.5 16.9375 C-11.325 17.288125 -12.15 17.63875 -13 18 C-13.33 18.99 -13.66 19.98 -14 21 C-13.34 21.99 -12.68 22.98 -12 24 C-9.23371085 24.2667616 -6.69380369 24.34804189 -3.9296875 24.29296875 C-3.13345978 24.28872391 -2.33723206 24.28447906 -1.51687622 24.28010559 C1.03075729 24.26328834 3.57760489 24.22563179 6.125 24.1875 C7.85024901 24.17245705 9.57551039 24.15876796 11.30078125 24.14648438 C15.53415782 24.11337501 19.76694559 24.06157285 24 24 C24.495 28.95 24.495 28.95 25 34 C24.401875 33.21625 23.80375 32.4325 23.1875 31.625 C21.04674247 29.05609097 19.46545095 27.2087146 16.04475403 26.7215271 C15.30529037 26.70820343 14.56582672 26.69487976 13.80395508 26.68115234 C12.96331009 26.66128265 12.1226651 26.64141296 11.25654602 26.62094116 C10.35333115 26.60938995 9.45011627 26.59783875 8.51953125 26.5859375 C7.59154221 26.56657135 6.66355316 26.5472052 5.70744324 26.5272522 C2.74255575 26.46745756 -0.22237057 26.42107145 -3.1875 26.375 C-5.19728259 26.33682012 -7.20704881 26.29776838 -9.21679688 26.2578125 C-14.14439842 26.16175607 -19.07207658 26.07772451 -24 26 C-22.2241334 22.18750121 -19.99634812 19.76650504 -16.9921875 16.796875 C-16.50670441 16.3142218 -16.02122131 15.8315686 -15.52102661 15.33428955 C-13.97700134 13.80141438 -12.42615176 12.27565996 -10.875 10.75 C-9.82375991 9.70879639 -8.77297343 8.66713459 -7.72265625 7.625 C-5.15366996 5.07800536 -2.57851839 2.53734823 0 0 Z " fill="#E1C41D" transform="translate(294,96)"/>
<path d="M0 0 C0.495 0.99 0.495 0.99 1 2 C-0.65 2.66 -2.3 3.32 -4 4 C-4 5.32 -4 6.64 -4 8 C-5.65 8.33 -7.3 8.66 -9 9 C-9.33 9.99 -9.66 10.98 -10 12 C-11.65532623 13.01866229 -13.32260138 14.01810813 -15 15 C-15.99 16.485 -15.99 16.485 -17 18 C-16.01 18 -15.02 18 -14 18 C-14 17.34 -14 16.68 -14 16 C-13.01 15.67 -12.02 15.34 -11 15 C-11 16.32 -11 17.64 -11 19 C-16.22727273 24 -16.22727273 24 -19 24 C-19.33 24.99 -19.66 25.98 -20 27 C-22.0625 27.6875 -22.0625 27.6875 -24 28 C-24.33 29.65 -24.66 31.3 -25 33 C-26.485 33.495 -26.485 33.495 -28 34 C-28.309375 34.639375 -28.61875 35.27875 -28.9375 35.9375 C-30.2342338 38.45468915 -31.4221737 38.96886948 -34 40 C-29.13612786 24.03532877 -14.32624387 8.21138368 0 0 Z " fill="#F8D819" transform="translate(49,20)"/>
<path d="M0 0 C0.66 0 1.32 0 2 0 C1.67 29.37 1.34 58.74 1 89 C0.34 88.67 -0.32 88.34 -1 88 C-1.02312255 76.6738837 -1.04091464 65.34777297 -1.05181217 54.02163792 C-1.05704119 48.76303336 -1.06413918 43.5044449 -1.07543945 38.24584961 C-1.08626766 33.17546873 -1.09227669 28.10510338 -1.09487724 23.03471184 C-1.09673161 21.09573052 -1.10035245 19.15675009 -1.10573006 17.21777534 C-1.1129396 14.5117824 -1.11399098 11.80585444 -1.11352539 9.09985352 C-1.11712067 8.28993454 -1.12071594 7.48001556 -1.12442017 6.64555359 C-1.11405216 1.11405216 -1.11405216 1.11405216 0 0 Z " fill="#DCC339" transform="translate(200,272)"/>
<path d="M0 0 C0.12375 0.639375 0.2475 1.27875 0.375 1.9375 C0.684375 2.9584375 0.684375 2.9584375 1 4 C1.66 4.33 2.32 4.66 3 5 C2.67 6.65 2.34 8.3 2 10 C2.7425 10.0825 3.485 10.165 4.25 10.25 C7.53523197 11.14597236 8.74598154 12.51280722 11 15 C11.66 15.33 12.32 15.66 13 16 C13 16.66 13 17.32 13 18 C12.34 18 11.68 18 11 18 C11 18.66 11 19.32 11 20 C10.38125 20.185625 9.7625 20.37125 9.125 20.5625 C5.94397134 22.71437233 5.80548053 25.37533763 5 29 C3.125 29.625 3.125 29.625 1 30 C0.34 29.34 -0.32 28.68 -1 28 C-0.60467975 25.54901444 0.21301426 23.36095721 1 21 C1.74095906 14.05199042 0.95224567 9.74872097 -3 4 C-3.33 3.34 -3.66 2.68 -4 2 C-2.68 1.34 -1.36 0.68 0 0 Z " fill="#ECCB11" transform="translate(147,64)"/>
<path d="M0 0 C0 0.66 0 1.32 0 2 C-2 3.33333333 -4 4.66666667 -6 6 C-7.72520185 7.88347363 -7.72520185 7.88347363 -9 10 C-9.51504593 10.6835405 -10.03009186 11.36708099 -10.56074524 12.07133484 C-12.53909876 16.09698421 -12.39788948 19.49509428 -12.34057617 23.92114258 C-12.34101425 24.80944763 -12.34145233 25.69775269 -12.34190369 26.61297607 C-12.33981865 29.54038703 -12.31650091 32.46722071 -12.29296875 35.39453125 C-12.28737179 37.42762438 -12.28310216 39.46072156 -12.28010559 41.49382019 C-12.26866475 46.83848286 -12.23920396 52.1829 -12.20599365 57.52746582 C-12.17527646 62.98377155 -12.16159672 68.44011705 -12.14648438 73.89648438 C-12.11433367 84.59776398 -12.06314637 95.29886155 -12 106 C-14.55128278 102.17307582 -14.29549891 99.05316582 -14.29052734 94.61645508 C-14.29724457 93.76079956 -14.30396179 92.90514404 -14.31088257 92.02355957 C-14.32991157 89.18882467 -14.33378978 86.35432609 -14.3359375 83.51953125 C-14.342364 81.547581 -14.34909225 79.57563171 -14.35610962 77.60368347 C-14.36809604 73.46517732 -14.37178924 69.32675471 -14.37060547 65.18823242 C-14.37040266 59.89662986 -14.3976598 54.60556664 -14.43214989 49.31409168 C-14.45444316 45.23817001 -14.4584422 41.16237738 -14.45738602 37.08640099 C-14.45974005 35.13644242 -14.46855238 33.1864802 -14.48405075 31.2365818 C-14.50375176 28.50084962 -14.49785581 25.76627022 -14.48583984 23.03051758 C-14.49707886 22.23177719 -14.50831787 21.4330368 -14.51989746 20.61009216 C-14.45104569 14.40921715 -12.89078812 8.98203902 -8.48187828 4.4339571 C-3.28679827 0 -3.28679827 0 0 0 Z " fill="#130800" transform="translate(215,261)"/>
<path d="M0 0 C2 2 2 2 2.1953125 4.6015625 C2.17210937 5.59929687 2.14890625 6.59703125 2.125 7.625 C2.10695313 8.62789062 2.08890625 9.63078125 2.0703125 10.6640625 C2.04710937 11.43492188 2.02390625 12.20578125 2 13 C2.99 13.33 3.98 13.66 5 14 C4 17 4 17 2.0625 18.4375 C-0.13642925 19.82185881 -0.13642925 19.82185881 -0.8125 22.0625 C-2.6908279 25.12714026 -5.65147148 25.10307272 -9 26 C-9.66 26.99 -10.32 27.98 -11 29 C-14.08479509 29.72197332 -16.83319205 30 -20 30 C-20 29.34 -20 28.68 -20 28 C-21.65 27.67 -23.3 27.34 -25 27 C-25 26.34 -25 25.68 -25 25 C-25.66 24.67 -26.32 24.34 -27 24 C-26.05640625 24.14308594 -26.05640625 24.14308594 -25.09375 24.2890625 C-17.62814873 25.25599279 -12.4734932 24.83505301 -5.6875 21.25 C-2.4223397 18.51637742 -1.29082409 17.08760962 0 13 C0.23309565 8.65406118 0.17414762 4.34724052 0 0 Z " fill="#E1C827" transform="translate(329,72)"/>
<path d="M0 0 C1.46726798 3.81489674 0.43336419 6.29011622 -1 10 C-0.34 10 0.32 10 1 10 C1 10.66 1 11.32 1 12 C0.01 12 -0.98 12 -2 12 C-2.33 25.86 -2.66 39.72 -3 54 C-5.475 54.495 -5.475 54.495 -8 55 C-6.515 54.505 -6.515 54.505 -5 54 C-5.0314209 52.12465576 -5.0314209 52.12465576 -5.06347656 50.21142578 C-5.13636165 45.53364705 -5.18197492 40.85591761 -5.21972656 36.17773438 C-5.23973216 34.16039565 -5.2669456 32.1431141 -5.30175781 30.12597656 C-5.35076577 27.21144427 -5.37307964 24.29768441 -5.390625 21.3828125 C-5.41127014 20.49385284 -5.43191528 19.60489319 -5.45318604 18.68899536 C-5.45549343 12.11992246 -3.93537264 6.87775162 -1 1 C-0.67 0.67 -0.34 0.34 0 0 Z " fill="#EDD33B" transform="translate(190,257)"/>
<path d="M0 0 C0.67740234 -0.01224609 1.35480469 -0.02449219 2.05273438 -0.03710938 C5.77191947 -0.04801608 8.53094986 0.13452523 11.6875 2.1875 C10.388125 2.414375 9.08875 2.64125 7.75 2.875 C-1.70266363 5.02670522 -7.37256073 9.7337812 -13.3125 17.1875 C-13.9725 17.8475 -14.6325 18.5075 -15.3125 19.1875 C-15.6425 17.2075 -15.9725 15.2275 -16.3125 13.1875 C-15.3225 13.1875 -14.3325 13.1875 -13.3125 13.1875 C-13.9725 11.5375 -14.6325 9.8875 -15.3125 8.1875 C-14.3225 8.1875 -13.3325 8.1875 -12.3125 8.1875 C-12.3125 8.8475 -12.3125 9.5075 -12.3125 10.1875 C-10.20834109 8.50127147 -10.20834109 8.50127147 -8.3125 6.1875 C-8.06180087 3.56179296 -8.06180087 3.56179296 -8.3125 1.1875 C-6.34773763 -0.77726237 -2.67718224 0.00250438 0 0 Z " fill="#DBC122" transform="translate(176.3125,151.8125)"/>
<path d="M0 0 C3.61625569 2.04899745 6.70456567 4.30504583 9.8125 7.0625 C10.60269531 7.75472656 11.39289063 8.44695312 12.20703125 9.16015625 C14 11 14 11 14 13 C-6.79 13.495 -6.79 13.495 -28 14 C-27.67 13.34 -27.34 12.68 -27 12 C-16.77 12 -6.54 12 4 12 C4 11.01 4 10.02 4 9 C4.66 9 5.32 9 6 9 C5.505 7.515 5.505 7.515 5 6 C4.34 5.67 3.68 5.34 3 5 C3 4.34 3 3.68 3 3 C2.01 2.67 1.02 2.34 0 2 C0 1.34 0 0.68 0 0 Z " fill="#E5CC40" transform="translate(156,109)"/>
<path d="M0 0 C2.25 2.5625 2.25 2.5625 4 5 C0.79937313 6.60031344 -1.72271806 5.03173691 -5 4 C-5.66 4.66 -6.32 5.32 -7 6 C-12.2912759 6.43371114 -15.71048613 6.48523002 -20 3 C-20 2.34 -20 1.68 -20 1 C-19.14728516 1.03480469 -19.14728516 1.03480469 -18.27734375 1.0703125 C-12.56011804 1.20393714 -4.89359296 -2.53116877 0 0 Z " fill="#E7CC10" transform="translate(143,96)"/>
<path d="M0 0 C1.32 0.33 2.64 0.66 4 1 C3.505 1.61875 3.01 2.2375 2.5 2.875 C0.80777227 4.83880904 0.80777227 4.83880904 1 7 C1.66 7.33 2.32 7.66 3 8 C3 8.99 3 9.98 3 11 C2.0925 11.226875 1.185 11.45375 0.25 11.6875 C-3.13431704 12.71976775 -3.13431704 12.71976775 -4.8125 15.5 C-7.95954393 19.09662163 -11.40648827 19.34238187 -16 20 C-15.319375 19.484375 -14.63875 18.96875 -13.9375 18.4375 C-7.28537013 12.91764756 -3.00248538 8.22419908 0 0 Z " fill="#EACC10" transform="translate(279,289)"/>
<path d="M0 0 C0 0.99 0 1.98 0 3 C14.85 3 29.7 3 45 3 C45.495 7.95 45.495 7.95 46 13 C45.401875 12.21625 44.80375 11.4325 44.1875 10.625 C42.04674247 8.05609097 40.46545095 6.2087146 37.04475403 5.7215271 C36.30529037 5.70820343 35.56582672 5.69487976 34.80395508 5.68115234 C33.96331009 5.66128265 33.1226651 5.64141296 32.25654602 5.62094116 C31.35333115 5.60938995 30.45011627 5.59783875 29.51953125 5.5859375 C28.59154221 5.56657135 27.66355316 5.5472052 26.70744324 5.5272522 C23.74255575 5.46745756 20.77762943 5.42107145 17.8125 5.375 C15.80271741 5.33682012 13.79295119 5.29776838 11.78320312 5.2578125 C6.85560158 5.16175607 1.92792342 5.07772451 -3 5 C-1.125 1.125 -1.125 1.125 0 0 Z " fill="#DFC842" transform="translate(273,117)"/>
<path d="M0 0 C1.3046801 1.95702015 2.57742367 3.93582457 3.8125 5.9375 C6.37451317 9.52431844 9.05004551 12.02502276 13 14 C20.03269384 14.55493184 25.7606639 14.40327424 32 11 C31.67 12.32 31.34 13.64 31 15 C29.35 15 27.7 15 26 15 C26 15.66 26 16.32 26 17 C21.05 17 16.1 17 11 17 C10.67 16.34 10.34 15.68 10 15 C9.175 14.525625 8.35 14.05125 7.5 13.5625 C5 12 5 12 4 9 C3.01 8.67 2.02 8.34 1 8 C0.67 5.36 0.34 2.72 0 0 Z " fill="#DBC630" transform="translate(201,364)"/>
<path d="M0 0 C2.76276177 0.52268466 5.3260876 1.10869587 8 2 C8.33 2.66 8.66 3.32 9 4 C10.65 3.67 12.3 3.34 14 3 C15.69199389 6.58304588 16.10392959 8.2466394 15 12 C14.96111651 14.33300933 14.9551365 16.66709801 15 19 C13 16 13 16 11.73828125 13.6953125 C8.49752461 7.85307176 5.67161149 4.51639913 0 1 C0 0.67 0 0.34 0 0 Z " fill="#E6C811" transform="translate(265,157)"/>
<path d="M0 0 C2.07538624 3.11307936 2.24772151 3.76348195 2.22705078 7.2878418 C2.22689972 8.14850754 2.22674866 9.00917328 2.22659302 9.8959198 C2.21627045 10.82100845 2.20594788 11.74609711 2.1953125 12.69921875 C2.1924826 13.64940384 2.18965271 14.59958893 2.18673706 15.5785675 C2.17553715 18.61500615 2.15043288 21.65115042 2.125 24.6875 C2.11496996 26.74543845 2.10584415 28.80338152 2.09765625 30.86132812 C2.07559842 35.9076656 2.04106982 40.95378288 2 46 C4.97 45.34 7.94 44.68 11 44 C9.515 46.475 9.515 46.475 8 49 C1.125 47.125 1.125 47.125 0 46 C-0.09295815 44.55710213 -0.11746513 43.10970215 -0.11352539 41.66381836 C-0.11344986 40.7429393 -0.11337433 39.82206024 -0.11329651 38.87327576 C-0.10813522 37.87224319 -0.10297394 36.87121063 -0.09765625 35.83984375 C-0.0962413 34.82024063 -0.09482635 33.80063751 -0.09336853 32.75013733 C-0.08775097 29.47922893 -0.0751955 26.20838787 -0.0625 22.9375 C-0.05748726 20.72591244 -0.05292396 18.51432382 -0.04882812 16.30273438 C-0.03777584 10.86846643 -0.02102063 5.43423803 0 0 Z " fill="#E5CB3A" transform="translate(252,265)"/>
<path d="M0 0 C0.33 0 0.66 0 1 0 C1.06058594 0.83144531 1.12117187 1.66289062 1.18359375 2.51953125 C1.26738281 3.60621094 1.35117188 4.69289063 1.4375 5.8125 C1.51871094 6.89144531 1.59992187 7.97039062 1.68359375 9.08203125 C1.90212461 12.05989905 1.90212461 12.05989905 3 15 C3.06802967 16.72795352 3.08495645 18.45835365 3.0625 20.1875 C3.05347656 21.08855469 3.04445313 21.98960937 3.03515625 22.91796875 C3.02355469 23.60503906 3.01195312 24.29210937 3 25 C3.66 25 4.32 25 5 25 C7.0962712 29.84762716 7 33.76520228 7 39 C4.8253976 35.7380964 3.99974114 33.01429181 2.9375 29.25 C2.59589844 28.05890625 2.25429687 26.8678125 1.90234375 25.640625 C0.35070405 19.38032977 -0.11951005 13.50463562 -0.0625 7.0625 C-0.05798828 6.37865234 -0.05347656 5.69480469 -0.04882812 4.99023438 C-0.0371956 3.32678396 -0.01926694 1.6633795 0 0 Z " fill="#EFD53F" transform="translate(6,336)"/>
<path d="M0 0 C0.12375 0.639375 0.2475 1.27875 0.375 1.9375 C0.684375 2.9584375 0.684375 2.9584375 1 4 C1.66 4.33 2.32 4.66 3 5 C2.67 6.65 2.34 8.3 2 10 C2.66 10 3.32 10 4 10 C4.34975147 20.00677813 4.34975147 20.00677813 2 25 C2 26.32 2 27.64 2 29 C1.01 28.67 0.02 28.34 -1 28 C-0.42415568 25.61435923 0.22227595 23.33317216 1 21 C1.74095906 14.05199042 0.95224567 9.74872097 -3 4 C-3.33 3.34 -3.66 2.68 -4 2 C-2.68 1.34 -1.36 0.68 0 0 Z " fill="#E5CC33" transform="translate(147,64)"/>
<path d="M0 0 C2 3 2 3 2.97265625 4.83203125 C6.19960633 10.69605882 10.25253442 13.69426816 16 17 C12.06204091 18.22419163 9.83887763 17.48320272 6 16 C6 15.01 6 14.02 6 13 C5.401875 12.773125 4.80375 12.54625 4.1875 12.3125 C1.43648112 10.66188867 0.47515363 8.8027919 -1 6 C-0.34 6 0.32 6 1 6 C0.67 4.02 0.34 2.04 0 0 Z M-3 7 C-2.34 7 -1.68 7 -1 7 C-1 7.66 -1 8.32 -1 9 C-1.66 9 -2.32 9 -3 9 C-3 8.34 -3 7.68 -3 7 Z " fill="#D7C029" transform="translate(194,118)"/>
<path d="M0 0 C1.32 0 2.64 0 4 0 C2.92902493 2.22433284 1.91018254 4.11399909 0.375 6.0625 C-2.26158333 11.69520074 -1.4763692 18.09452319 0 24 C-2.31 25.98 -4.62 27.96 -7 30 C-7 29.01 -7 28.02 -7 27 C-6.34 27 -5.68 27 -5 27 C-4.24722485 24.26750659 -3.83358297 21.71899317 -3.68359375 18.890625 C-3.62075195 17.75947266 -3.62075195 17.75947266 -3.55664062 16.60546875 C-3.49766602 15.43951172 -3.49766602 15.43951172 -3.4375 14.25 C-3.39431641 13.45722656 -3.35113281 12.66445312 -3.30664062 11.84765625 C-3.20097009 9.89862185 -3.10002034 7.94933252 -3 6 C-2.34 6 -1.68 6 -1 6 C-1 5.01 -1 4.02 -1 3 C-0.34 3 0.32 3 1 3 C0.67 2.01 0.34 1.02 0 0 Z " fill="#EED438" transform="translate(294,65)"/>
<path d="M0 0 C0.33 0.66 0.66 1.32 1 2 C-0.65 2.66 -2.3 3.32 -4 4 C-4 5.32 -4 6.64 -4 8 C-5.65 8.33 -7.3 8.66 -9 9 C-9.33 9.99 -9.66 10.98 -10 12 C-11.65071396 13.02611949 -13.31970006 14.02308143 -15 15 C-17.75815754 17.44293953 -19.54696249 19.60957914 -21 23 C-21.99 22.67 -22.98 22.34 -24 22 C-16.88206617 13.76451617 -9.56764993 5.41148995 0 0 Z " fill="#F1D53B" transform="translate(49,20)"/>
<path d="M0 0 C15.18 0 30.36 0 46 0 C46 1.32 46 2.64 46 4 C45.33967773 3.86287598 44.67935547 3.72575195 43.99902344 3.58447266 C34.74280282 1.83739621 25.63494067 1.56475449 16.25 1.375 C14.6666477 1.33671402 13.08331386 1.29765662 11.5 1.2578125 C7.66682089 1.16299979 3.83354519 1.07856149 0 1 C0 0.67 0 0.34 0 0 Z " fill="#E9C516" transform="translate(216,152)"/>
<path d="M0 0 C0.66 0 1.32 0 2 0 C1.67 4.62 1.34 9.24 1 14 C-0.65 13.67 -2.3 13.34 -4 13 C-4 13.33 -4 13.66 -4 14 C-5.65 14 -7.3 14 -9 14 C-8.34 13.67 -7.68 13.34 -7 13 C-6.67 12.01 -6.34 11.02 -6 10 C-5.0409375 9.38125 -5.0409375 9.38125 -4.0625 8.75 C-1.14638821 6.27572333 -0.82569538 3.64682127 0 0 Z " fill="#E2C823" transform="translate(319,130)"/>
<path d="M0 0 C1.65 0 3.3 0 5 0 C1.04760898 3.45547532 -2.95454879 5.61076114 -7.6875 7.75 C-8.70166992 8.22373047 -8.70166992 8.22373047 -9.73632812 8.70703125 C-14.72427963 11 -14.72427963 11 -17 11 C-16.67 10.01 -16.34 9.02 -16 8 C-15.34 8 -14.68 8 -14 8 C-13.67 7.34 -13.34 6.68 -13 6 C-12.01 6.33 -11.02 6.66 -10 7 C-10 6.34 -10 5.68 -10 5 C-6.535 4.505 -6.535 4.505 -3 4 C-3 3.34 -3 2.68 -3 2 C-2.01 2 -1.02 2 0 2 C0 1.34 0 0.68 0 0 Z " fill="#ECD237" transform="translate(388,418)"/>
<path d="M0 0 C3 1 3 1 4.8125 2.5 C6.69462627 6.46237109 5.20785662 9.93325972 4 14 C2.015625 12.85546875 2.015625 12.85546875 0 11 C-0.390625 8.30078125 -0.390625 8.30078125 -0.25 5.3125 C-0.21390625 4.31863281 -0.1778125 3.32476562 -0.140625 2.30078125 C-0.09421875 1.54152344 -0.0478125 0.78226562 0 0 Z " fill="#E8C912" transform="translate(331,74)"/>
<path d="M0 0 C4.75991185 2.4520758 8.57829431 5.90775833 12 10 C12 10.66 12 11.32 12 12 C9.36 12 6.72 12 4 12 C4 11.01 4 10.02 4 9 C4.66 9 5.32 9 6 9 C5.67 8.01 5.34 7.02 5 6 C4.34 5.67 3.68 5.34 3 5 C3 4.34 3 3.68 3 3 C2.01 2.67 1.02 2.34 0 2 C0 1.34 0 0.68 0 0 Z " fill="#DEC324" transform="translate(156,109)"/>
<path d="M0 0 C-2.41339796 1.00858422 -4.83018675 2.00702673 -7.25 3 C-7.93191406 3.28617188 -8.61382812 3.57234375 -9.31640625 3.8671875 C-12.81415735 5.29345494 -15.16900189 6 -19 6 C-19.33 6.99 -19.66 7.98 -20 9 C-23.0625 10.1875 -23.0625 10.1875 -26 11 C-25 8 -25 8 -23.1015625 6.75390625 C-5.19489829 -1.86049846 -5.19489829 -1.86049846 0 0 Z " fill="#EED541" transform="translate(77,10)"/>
<path d="M0 0 C0 0.66 0 1.32 0 2 C-2 3.33333333 -4 4.66666667 -6 6 C-9.18665664 9.43178408 -10.99528548 13.80739907 -13 18 C-13.77947781 15.71251282 -14.1114843 14.38673518 -13.43359375 12.03515625 C-10.80925088 6.83792822 -6.58017143 0 0 0 Z " fill="#281C00" transform="translate(215,261)"/>
<path d="M0 0 C0.66 0.33 1.32 0.66 2 1 C-1.96 4.96 -5.92 8.92 -10 13 C-10.33 12.01 -10.66 11.02 -11 10 C-10.34 10 -9.68 10 -9 10 C-9 9.34 -9 8.68 -9 8 C-9.66 7.67 -10.32 7.34 -11 7 C-10.34 7 -9.68 7 -9 7 C-8.67 6.01 -8.34 5.02 -8 4 C-8 4.66 -8 5.32 -8 6 C-7.34 6 -6.68 6 -6 6 C-5.67 5.01 -5.34 4.02 -5 3 C-2.5625 1.25 -2.5625 1.25 0 0 Z " fill="#F2D132" transform="translate(282,98)"/>
<path d="M0 0 C0.33 0.66 0.66 1.32 1 2 C0.03685937 4.01800895 -0.96958573 6.01549844 -2 8 C-2.33 9.051875 -2.66 10.10375 -3 11.1875 C-3.98264434 13.9511872 -4.67802631 15.25851973 -7 17 C-7.66 17 -8.32 17 -9 17 C-7.68925635 12.53817564 -5.92933989 9.00381243 -3.375 5.125 C-2.74335938 4.15820312 -2.11171875 3.19140625 -1.4609375 2.1953125 C-0.73777344 1.10863281 -0.73777344 1.10863281 0 0 Z " fill="#EFD839" transform="translate(24,43)"/>
<path d="M0 0 C0.43570313 0.38671875 0.87140625 0.7734375 1.3203125 1.171875 C5.05744652 4.43984501 8.8076016 7.34140589 13 10 C10 11 10 11 7.8125 10.0625 C7.214375 9.711875 6.61625 9.36125 6 9 C5.67 9.66 5.34 10.32 5 11 C4.34 10.67 3.68 10.34 3 10 C3 9.34 3 8.68 3 8 C3.66 7.67 4.32 7.34 5 7 C3.02 6.01 1.04 5.02 -1 4 C-0.67 2.68 -0.34 1.36 0 0 Z " fill="#ECD533" transform="translate(163,298)"/>
<path d="M0 0 C2.72977064 -0.08126109 5.4571017 -0.14061663 8.1875 -0.1875 C9.34088867 -0.22520508 9.34088867 -0.22520508 10.51757812 -0.26367188 C15.2197028 -0.32421425 18.11834041 0.03624789 22 3 C21.67 3.66 21.34 4.32 21 5 C20.1028125 4.2575 20.1028125 4.2575 19.1875 3.5 C14.00898161 1.06305017 8.22204032 1.03505161 2.73046875 2.6796875 C0.63081893 3.54529927 0.63081893 3.54529927 -2 5 C-2 3 -2 3 0 1 C0 0.67 0 0.34 0 0 Z " fill="#E1CD30" transform="translate(210,259)"/>
<path d="M0 0 C0.66 0.33 1.32 0.66 2 1 C2 3.31 2 5.62 2 8 C1.34 8 0.68 8 0 8 C0 7.34 0 6.68 0 6 C-0.928125 6.495 -1.85625 6.99 -2.8125 7.5 C-6 9 -6 9 -9 9 C-6.03 6.03 -3.06 3.06 0 0 Z " fill="#DDC22A" transform="translate(294,96)"/>
<path d="M0 0 C6.13602988 1.41600689 10.26698362 5.0663375 15 9 C11.20525059 9 9.18416424 7.60359238 5.9375 5.77734375 C3.84093629 4.69372255 3.84093629 4.69372255 1 6 C0.67 4.02 0.34 2.04 0 0 Z " fill="#EED634" transform="translate(384,17)"/>
<path d="M0 0 C0.86625 0.556875 0.86625 0.556875 1.75 1.125 C1.42 2.445 1.09 3.765 0.75 5.125 C-1.91666667 5.125 -4.58333333 5.125 -7.25 5.125 C-7 3.25 -7 3.25 -6.25 1.125 C-3.78477471 -0.74517091 -2.92889069 -1.13901305 0 0 Z " fill="#DFC412" transform="translate(189.25,138.875)"/>
<path d="M0 0 C0.33 3.3 0.66 6.6 1 10 C0.401875 9.21625 -0.19625 8.4325 -0.8125 7.625 C-3.91067324 3.90719211 -6.33222827 2.75693596 -11 2 C-11 1.67 -11 1.34 -11 1 C-9.54182203 0.83197949 -8.0834516 0.66562857 -6.625 0.5 C-5.81289063 0.4071875 -5.00078125 0.314375 -4.1640625 0.21875 C-2 0 -2 0 0 0 Z " fill="#DFC82E" transform="translate(318,120)"/>
<path d="M0 0 C2.35418843 2.35418843 2.99608031 4.25583671 4.125 7.375 C4.47820312 8.33148438 4.83140625 9.28796875 5.1953125 10.2734375 C6 13 6 13 6 17 C5.34 17 4.68 17 4 17 C3 13 2 9 1 5 C0.34 5 -0.32 5 -1 5 C-0.67 3.35 -0.34 1.7 0 0 Z " fill="#F2D342" transform="translate(425,60)"/>
<path d="M0 0 C5.4042243 -0.2248832 9.81275243 0.5113589 14.9375 2 C15.96327148 2.28617188 15.96327148 2.28617188 17.00976562 2.578125 C18.67544526 3.04404937 20.33806675 3.52088411 22 4 C22 4.33 22 4.66 22 5 C19.69 5.33 17.38 5.66 15 6 C15 5.34 15 4.68 15 4 C10.01716284 2.85948394 5.05531868 1.77774134 0 1 C0 0.67 0 0.34 0 0 Z " fill="#EDD544" transform="translate(351,7)"/>
<path d="M0 0 C0 3.95738678 -0.71710724 5.74860728 -3 9 C-5.94853027 10.11354069 -8.87855742 10.62045352 -12 11 C-11.319375 10.484375 -10.63875 9.96875 -9.9375 9.4375 C-6.39657527 6.49928587 -3.20890181 3.29212981 0 0 Z " fill="#DFC430" transform="translate(275,298)"/>
<path d="M0 0 C2.125 0.9375 2.125 0.9375 4 2 C2.71937515 3.7074998 1.38232443 5.37373596 0 7 C-0.66 7 -1.32 7 -2 7 C-2.33 7.66 -2.66 8.32 -3 9 C-2.4140625 2.84765625 -2.4140625 2.84765625 -2 1 C-1.34 0.67 -0.68 0.34 0 0 Z " fill="#DFC226" transform="translate(260,117)"/>
<path d="M0 0 C0 1.98 0 3.96 0 6 C-1.98 6.66 -3.96 7.32 -6 8 C-6 7.34 -6 6.68 -6 6 C-5.34 6 -4.68 6 -4 6 C-4.50603992 3.83125748 -4.99983813 2.00032373 -6 0 C-3.50907189 -1.24546405 -2.58919267 -0.7767578 0 0 Z " fill="#ECCC15" transform="translate(272,308)"/>
<path d="M0 0 C0.66 1.32 1.32 2.64 2 4 C4.97 4 7.94 4 11 4 C11.33 4.66 11.66 5.32 12 6 C5.74892565 5.57045059 -0.04204521 4.98598493 -6 3 C-6 2.67 -6 2.34 -6 2 C-4.02 2 -2.04 2 0 2 C0 1.34 0 0.68 0 0 Z " fill="#EFD646" transform="translate(76,427)"/>
<path d="M0 0 C2.76276177 0.52268466 5.3260876 1.10869587 8 2 C8.33 2.99 8.66 3.98 9 5 C9.66 5.33 10.32 5.66 11 6 C10.67 7.32 10.34 8.64 10 10 C6.66666667 6.66666667 3.33333333 3.33333333 0 0 Z " fill="#DDC231" transform="translate(265,157)"/>
<path d="M0 0 C0.66 0 1.32 0 2 0 C2.61875 1.670625 2.61875 1.670625 3.25 3.375 C4.35546516 5.99320695 4.74880787 6.83493089 7.1875 8.4375 C7.785625 8.623125 8.38375 8.80875 9 9 C8.67 9.66 8.34 10.32 8 11 C7.01 11 6.02 11 5 11 C5 10.34 5 9.68 5 9 C4.01 8.67 3.02 8.34 2 8 C1.34 7.01 0.68 6.02 0 5 C-0.66 4.34 -1.32 3.68 -2 3 C-1.34 3 -0.68 3 0 3 C0 2.01 0 1.02 0 0 Z " fill="#DBC228" transform="translate(253,131)"/>
<path d="M0 0 C4.29 0 8.58 0 13 0 C12.67 0.66 12.34 1.32 12 2 C9.4375 2.625 9.4375 2.625 7 3 C7 3.66 7 4.32 7 5 C6.401875 4.690625 5.80375 4.38125 5.1875 4.0625 C2.91043228 2.89790296 2.91043228 2.89790296 0 2 C0 1.34 0 0.68 0 0 Z " fill="#E7CB2E" transform="translate(123,97)"/>
<path d="M0 0 C0.66 1.32 1.32 2.64 2 4 C6.455 3.505 6.455 3.505 11 3 C9.515 5.475 9.515 5.475 8 8 C1.125 6.125 1.125 6.125 0 5 C-0.04063832 3.33382885 -0.042721 1.66611905 0 0 Z " fill="#E3C920" transform="translate(252,306)"/>
<path d="M0 0 C0.66 0 1.32 0 2 0 C2.75 1.6875 2.75 1.6875 3 4 C1.19552853 6.61337248 -0.7582981 8.7582981 -3 11 C-3.3227506 6.37390802 -2.84450614 3.71973879 0 0 Z " fill="#F3D725" transform="translate(126,118)"/>
<path d="M0 0 C3.98175544 2.10148204 6.35039045 4.36905358 9 8 C7.68 8.33 6.36 8.66 5 9 C5 7.68 5 6.36 5 5 C3.68 5.33 2.36 5.66 1 6 C0.4465236 3.92446352 0 2.15634036 0 0 Z " fill="#DFC224" transform="translate(147,101)"/>
<path d="M0 0 C1.17539996 0.92652701 2.34010577 1.86663387 3.5 2.8125 C4.1496875 3.33457031 4.799375 3.85664062 5.46875 4.39453125 C7 6 7 6 7 9 C5.02 8.34 3.04 7.68 1 7 C0.67 4.69 0.34 2.38 0 0 Z " fill="#F2D532" transform="translate(405,32)"/>
<path d="M0 0 C0 3 0 3 -1.4609375 4.68359375 C-2.09257813 5.26238281 -2.72421875 5.84117188 -3.375 6.4375 C-5.94582115 8.80202068 -7.60084869 10.78477855 -9 14 C-9.99 13.67 -10.98 13.34 -12 13 C-10.56354149 11.39490066 -9.12579294 9.79095576 -7.6875 8.1875 C-6.88699219 7.29417969 -6.08648437 6.40085937 -5.26171875 5.48046875 C-3.54775419 3.60073214 -1.82122396 1.77407253 0 0 Z " fill="#ECD34A" transform="translate(37,29)"/>
<path d="M0 0 C2.046875 3.71875 2.046875 3.71875 1.625 6.25 C1.41875 6.8275 1.2125 7.405 1 8 C0.67 7.34 0.34 6.68 0 6 C-0.66 6 -1.32 6 -2 6 C-2.268125 6.61875 -2.53625 7.2375 -2.8125 7.875 C-4 10 -4 10 -7 12 C-5.61735163 9.13132769 -4.07851447 6.43975968 -2.375 3.75 C-1.92898437 3.04359375 -1.48296875 2.3371875 -1.0234375 1.609375 C-0.68570313 1.07828125 -0.34796875 0.5471875 0 0 Z " fill="#DBC330" transform="translate(246,121)"/>
<path d="M0 0 C0.66 0 1.32 0 2 0 C1.67 1.155 1.34 2.31 1 3.5 C-0.08401934 7.77500587 -0.15701377 11.60361453 0 16 C-0.66 15.67 -1.32 15.34 -2 15 C-2.05429959 13.25034642 -2.09292823 11.50020213 -2.125 9.75 C-2.15980469 8.28820312 -2.15980469 8.28820312 -2.1953125 6.796875 C-1.99862781 3.9803502 -1.44568916 2.39050964 0 0 Z " fill="#EBD237" transform="translate(111,70)"/>
<path d="M0 0 C2.475 0.495 2.475 0.495 5 1 C5 1.66 5 2.32 5 3 C5.99 3 6.98 3 8 3 C8 4.65 8 6.3 8 8 C6.85073734 7.04578192 5.70569459 6.08647955 4.5625 5.125 C3.92441406 4.59132813 3.28632813 4.05765625 2.62890625 3.5078125 C1 2 1 2 0 0 Z " fill="#EFD338" transform="translate(28,401)"/>
<path d="M0 0 C1.98 0 3.96 0 6 0 C6.625 2.3125 6.625 2.3125 7 5 C6.01 6.485 6.01 6.485 5 8 C2.525 4.04 2.525 4.04 0 0 Z " fill="#F5D936" transform="translate(19,389)"/>
<path d="M0 0 C2.99329122 1.23253168 4.26881368 3.28959763 6.125 5.875 C5.135 6.37 5.135 6.37 4.125 6.875 C3.135 6.545 2.145 6.215 1.125 5.875 C0.795 4.885 0.465 3.895 0.125 2.875 C-1.87516466 1.66617904 -1.87516466 1.66617904 -3.875 0.875 C-1.875 -0.125 -1.875 -0.125 0 0 Z " fill="#DEC52E" transform="translate(140.875,95.125)"/>
<path d="M0 0 C1.32 0.33 2.64 0.66 4 1 C3.54625 1.5775 3.0925 2.155 2.625 2.75 C1.15886484 4.7800333 0.05142216 6.73539843 -1 9 C-1.66 9 -2.32 9 -3 9 C-2.01 6.03 -1.02 3.06 0 0 Z " fill="#E5CA2A" transform="translate(279,289)"/>
<path d="M0 0 C0.99 0.33 1.98 0.66 3 1 C1.5140084 5.59306496 -0.85014682 8.43569245 -4 12 C-4.33 11.34 -4.66 10.68 -5 10 C-4.360625 9.278125 -3.72125 8.55625 -3.0625 7.8125 C-1.01326465 5.01808816 -0.38667054 3.38336726 0 0 Z " fill="#ECD33D" transform="translate(416,390)"/>
<path d="M0 0 C1.32 0 2.64 0 4 0 C3.40138258 2.35171131 2.73075648 4.6859378 2 7 C1.01 7.495 1.01 7.495 0 8 C-1.125 2.25 -1.125 2.25 0 0 Z " fill="#ECCB10" transform="translate(249,304)"/>
<path d="M0 0 C2.25 0.125 2.25 0.125 5 1 C7.3125 4.0625 7.3125 4.0625 9 7 C5.18315774 5.44499019 2.80804268 2.96404505 0 0 Z " fill="#EED43B" transform="translate(36,409)"/>
<path d="M0 0 C0.598125 0.350625 1.19625 0.70125 1.8125 1.0625 C1.4825 1.7225 1.1525 2.3825 0.8125 3.0625 C1.8025 3.0625 2.7925 3.0625 3.8125 3.0625 C3.8125 3.7225 3.8125 4.3825 3.8125 5.0625 C0.35324837 3.8133258 -2.33443203 2.38722205 -5.1875 0.0625 C-2.1875 -0.9375 -2.1875 -0.9375 0 0 Z " fill="#F2D53E" transform="translate(52.1875,417.9375)"/>
<path d="M0 0 C4.29 0.33 8.58 0.66 13 1 C13 1.33 13 1.66 13 2 C7.06 2.495 7.06 2.495 1 3 C0.67 2.01 0.34 1.02 0 0 Z " fill="#D2BB2C" transform="translate(211,378)"/>
<path d="M0 0 C0 1.32 0 2.64 0 4 C-5.94 3.01 -5.94 3.01 -12 2 C-12 1.67 -12 1.34 -12 1 C-7.95858806 0.36605303 -4.0934693 -0.12404452 0 0 Z " fill="#E2C431" transform="translate(262,152)"/>
<path d="M0 0 C0.66 0.99 1.32 1.98 2 3 C-0.31 4.98 -2.62 6.96 -5 9 C-5 8.01 -5 7.02 -5 6 C-4.34 6 -3.68 6 -3 6 C-3 5.01 -3 4.02 -3 3 C-2.34 3 -1.68 3 -1 3 C-0.67 2.01 -0.34 1.02 0 0 Z " fill="#F0D234" transform="translate(269,109)"/>
<path d="M0 0 C4.54805635 -0.17835515 7.8794254 0.00214565 12 2 C7.74302431 3.4189919 4.28156357 3.26861143 0 2 C0 1.34 0 0.68 0 0 Z " fill="#F4D22F" transform="translate(368,12)"/>
<path d="M0 0 C2.3125 -0.3125 2.3125 -0.3125 5 0 C6.8125 2.5 6.8125 2.5 8 5 C5.03 4.01 2.06 3.02 -1 2 C-0.67 1.34 -0.34 0.68 0 0 Z " fill="#F3D736" transform="translate(61,424)"/>
<path d="M0 0 C2.0625 0.4375 2.0625 0.4375 4 1 C0.47320901 3.35119399 -1.02879485 3.21443452 -5.1875 3.125 C-6.27417969 3.10695313 -7.36085937 3.08890625 -8.48046875 3.0703125 C-9.72763672 3.03550781 -9.72763672 3.03550781 -11 3 C-11 2.67 -11 2.34 -11 2 C-10.28972656 1.93941406 -9.57945312 1.87882812 -8.84765625 1.81640625 C-7.46900391 1.69072266 -7.46900391 1.69072266 -6.0625 1.5625 C-5.14597656 1.48128906 -4.22945312 1.40007812 -3.28515625 1.31640625 C-1.03840268 1.23955024 -1.03840268 1.23955024 0 0 Z " fill="#201300" transform="translate(225,376)"/>
<path d="M0 0 C0.33 1.32 0.66 2.64 1 4 C1.66 4 2.32 4 3 4 C3 4.66 3 5.32 3 6 C3.66 6 4.32 6 5 6 C5 6.66 5 7.32 5 8 C1.2047869 6.50902342 -0.61042731 4.24299151 -3 1 C-2.01 0.67 -1.02 0.34 0 0 Z " fill="#DAC337" transform="translate(177,115)"/>
<path d="M0 0 C0 0.66 0 1.32 0 2 C-2.59240819 3.8597711 -5.14410847 5.57205423 -8 7 C-7.8125 5.1875 -7.8125 5.1875 -7 3 C-2.82142857 0 -2.82142857 0 0 0 Z " fill="#201200" transform="translate(215,261)"/>
<path d="M0 0 C0.99 0 1.98 0 3 0 C4.4783226 2.95664519 4.06032783 5.74229737 4 9 C2.00902154 6.01353231 1.05875074 3.40312738 0 0 Z " fill="#DEC732" transform="translate(276,167)"/>
<path d="M0 0 C2.35171131 0.59861742 4.6859378 1.26924352 7 2 C7.33 2.66 7.66 3.32 8 4 C5.69 4 3.38 4 1 4 C0.67 2.68 0.34 1.36 0 0 Z " fill="#E3C614" transform="translate(256,140)"/>
<path d="M0 0 C0.66 0 1.32 0 2 0 C1.34 3.63 0.68 7.26 0 11 C-0.33 11 -0.66 11 -1 11 C-1.02688151 9.35425434 -1.04634123 7.70838587 -1.0625 6.0625 C-1.07410156 5.14597656 -1.08570313 4.22945313 -1.09765625 3.28515625 C-1 1 -1 1 0 0 Z " fill="#EED728" transform="translate(200,272)"/>
<path d="M0 0 C0.66 1.32 1.32 2.64 2 4 C-1.63 4.33 -5.26 4.66 -9 5 C-6.08596738 3.05731159 -3.14191424 1.53604696 0 0 Z " fill="#DBBF2D" transform="translate(237,132)"/>
<path d="M0 0 C1.32 0.33 2.64 0.66 4 1 C2.02 3.97 2.02 3.97 0 7 C-0.66 6.01 -1.32 5.02 -2 4 C-1.34 2.68 -0.68 1.36 0 0 Z " fill="#E9D22F" transform="translate(203,265)"/>
<path d="M0 0 C3.16115776 1.36983503 3.9927092 1.9890638 6 5 C3.69 4.34 1.38 3.68 -1 3 C-0.67 2.01 -0.34 1.02 0 0 Z " fill="#EFD434" transform="translate(399,27)"/>
</svg>
