<?xml version="1.0" encoding="UTF-8"?>
<svg version="1.1" xmlns="http://www.w3.org/2000/svg" width="438" height="438">
<path d="M0 0 C1.52927058 -0.00551503 1.52927058 -0.00551503 3.08943552 -0.01114148 C6.49887343 -0.02213649 9.90828081 -0.02601514 13.31773376 -0.02983093 C15.76579891 -0.03609904 18.2138631 -0.04274615 20.66192627 -0.04974365 C28.00512086 -0.06894063 35.34830735 -0.07957013 42.69151965 -0.08847144 C46.15992184 -0.09286528 49.62832254 -0.09822944 53.09672356 -0.10346031 C64.64600463 -0.12047161 76.19528479 -0.13496017 87.74457645 -0.14220905 C90.73803776 -0.14411859 93.73149905 -0.14603897 96.72496033 -0.147995 C97.8408187 -0.14872061 97.8408187 -0.14872061 98.97921967 -0.14946087 C110.99816589 -0.15774017 123.01701191 -0.18304183 135.03591449 -0.21557567 C147.40988007 -0.24879391 159.78379503 -0.26667128 172.15780538 -0.26985329 C179.09122937 -0.27200542 186.0245075 -0.28056084 192.95788765 -0.30631447 C199.4939374 -0.3305376 206.02979737 -0.33375548 212.56588554 -0.32355309 C214.94808194 -0.32306194 217.33029196 -0.329256 219.71244812 -0.34310913 C250.09937013 -0.50974567 278.14065636 4.16413269 300.73936462 26.14717102 C301.58498962 26.91931946 302.43061462 27.6914679 303.30186462 28.48701477 C319.93525281 44.13152775 328.9209495 67.81965307 329.83480787 90.51775813 C329.8733899 93.197246 329.88226379 95.87521028 329.87980652 98.55497742 C329.8842632 100.08976303 329.8842632 100.08976303 329.88880992 101.65555441 C329.89745521 105.07122537 329.89900165 108.4868611 329.90049744 111.90254211 C329.90512867 114.35724461 329.91015375 116.81194639 329.9155426 119.26664734 C329.92864178 125.9283281 329.93514449 132.58999518 329.93955326 139.25168562 C329.94232381 143.41951212 329.9465627 147.58733633 329.95105743 151.75516129 C329.96324634 163.31736035 329.97354525 174.87955758 329.97693253 186.44176292 C329.97715209 187.18079187 329.97737166 187.91982082 329.97759788 188.68124459 C329.97781616 189.42194841 329.97803443 190.16265224 329.97825933 190.92580163 C329.97870278 192.426512 329.97914934 193.92722237 329.979599 195.42793274 C329.97982043 196.17232206 329.98004186 196.91671138 329.98027 197.68365796 C329.98421152 209.72462256 330.00164747 221.76552641 330.02495852 233.80646758 C330.04875355 246.19852614 330.06113813 258.59055434 330.06230044 270.98263609 C330.06321283 277.92818427 330.06885383 284.87365333 330.08712006 291.81917953 C330.1042649 298.3609575 330.10571319 304.90261289 330.09698105 311.44441605 C330.09621535 313.83312634 330.10049105 316.22184496 330.1104393 318.61053467 C330.23699735 350.91773531 324.30928164 378.31673698 301.11436462 402.20967102 C283.63252554 419.68686624 258.86136022 428.17043934 234.34273666 428.29490072 C233.39761422 428.29471635 232.45249177 428.29453199 231.47872925 428.29434204 C230.45921553 428.29801873 229.43970181 428.30169542 228.38929373 428.30548352 C224.97985582 428.31647853 221.57044844 428.32035719 218.16099548 428.32417297 C215.71293034 428.33044108 213.26486614 428.33708819 210.81680298 428.34408569 C203.47360839 428.36328267 196.1304219 428.37391218 188.7872096 428.38281348 C185.3188074 428.38720732 181.85040671 428.39257148 178.38200569 428.39780235 C166.83272462 428.41481365 155.28344446 428.42930221 143.73415279 428.43655109 C140.74069149 428.43846063 137.74723019 428.44038101 134.75376892 428.44233704 C133.63791055 428.44306265 133.63791055 428.44306265 132.49950958 428.44380292 C120.48056336 428.45208222 108.46171734 428.47738387 96.44281476 428.50991771 C84.06884917 428.54313595 71.69493422 428.56101333 59.32092386 428.56419533 C52.38749988 428.56634746 45.45422175 428.57490289 38.5208416 428.60065651 C31.98479185 428.62487964 25.44893188 428.62809752 18.9128437 428.61789513 C16.53064731 428.61740398 14.14843729 428.62359804 11.76628113 428.63745117 C-18.62064088 428.80408771 -46.66192711 424.13020935 -69.26063538 402.14717102 C-70.52907288 400.98894836 -70.52907288 400.98894836 -71.82313538 399.80732727 C-88.45652356 384.1628143 -97.44222025 360.47468897 -98.35607862 337.77658391 C-98.39466065 335.09709605 -98.40353454 332.41913176 -98.40107727 329.73936462 C-98.40404839 328.71617422 -98.40701952 327.69298381 -98.41008067 326.63878763 C-98.41872596 323.22311667 -98.4202724 319.80748094 -98.42176819 316.39179993 C-98.42639943 313.93709743 -98.4314245 311.48239565 -98.43681335 309.0276947 C-98.44991253 302.36601394 -98.45641524 295.70434686 -98.46082401 289.04265642 C-98.46359456 284.87482992 -98.46783345 280.70700571 -98.47232819 276.53918076 C-98.48451709 264.9769817 -98.494816 253.41478446 -98.49820328 241.85257912 C-98.49842284 241.11355017 -98.49864241 240.37452122 -98.49886863 239.61309745 C-98.49919605 238.50204171 -98.49919605 238.50204171 -98.49953008 237.36854041 C-98.49997353 235.86783004 -98.50042009 234.36711967 -98.50086975 232.8664093 C-98.50109118 232.12201998 -98.50131261 231.37763066 -98.50154075 230.61068408 C-98.50548227 218.56971948 -98.52291823 206.52881563 -98.54622927 194.48787446 C-98.5700243 182.0958159 -98.58240888 169.7037877 -98.5835712 157.31170595 C-98.58448358 150.36615777 -98.59012458 143.42068871 -98.60839081 136.47516251 C-98.62553565 129.93338454 -98.62698394 123.39172916 -98.6182518 116.84992599 C-98.6174861 114.4612157 -98.6217618 112.07249708 -98.63171005 109.68380737 C-98.74209357 81.5055726 -95.06032397 55.49740613 -76.26063538 33.14717102 C-75.05407288 31.60029602 -75.05407288 31.60029602 -73.82313538 30.02217102 C-55.19018693 9.11691179 -27.40571326 -0.00534596 0 0 Z " fill="#000000" transform="translate(106.26063537597656,7.8528289794921875)"/>
<path d="M0 0 C5.61 0 11.22 0 17 0 C17 14.52 17 29.04 17 44 C20.63 41.36 24.26 38.72 28 36 C41.95212413 29.74559953 54.17805079 29.51399249 68.625 34.99609375 C81.00960024 40.5885148 89.17817566 50.25434794 94.09375 62.7890625 C97.91126792 75.0546062 96.69429068 88.16764222 90.875 99.625 C83.76377778 111.32136849 74.75081556 118.508366 61.6875 122.375 C47.55489593 125.76227066 36.90857127 124.16468063 24.4375 116.875 C21.98385841 115.35963096 20.04199904 114.04199904 18 112 C17.67 115.3 17.34 118.6 17 122 C11.39 122 5.78 122 0 122 C0 81.74 0 41.48 0 0 Z " fill="#FBFBFB" transform="translate(153,160)"/>
<path d="M0 0 C6.27 0 12.54 0 19 0 C19.01458252 2.43165527 19.02916504 4.86331055 19.04418945 7.36865234 C19.09468026 15.4313258 19.16130047 23.49380906 19.23571491 31.55629539 C19.28031259 36.44132185 19.31959176 41.32626694 19.34643555 46.21142578 C19.3725747 50.9318885 19.4130512 55.65203632 19.46318626 60.37230301 C19.47978352 62.16703987 19.49134203 63.96183111 19.49761391 65.75663376 C19.50257053 84.42655089 19.50257053 84.42655089 29 100 C37.5705486 106.52530405 46.53731243 107.10446359 57 106 C64.50978587 103.97339953 69.72493644 99.3686565 74 93 C79.08945381 83.49041521 78.60442686 73.45419976 78.609375 62.98828125 C78.62438005 61.16552783 78.64111202 59.34278789 78.65948486 57.52006531 C78.70290983 52.75757167 78.72310194 47.99526136 78.73822021 43.23260498 C78.75788154 38.35873688 78.79984101 33.4850642 78.83984375 28.61132812 C78.91487643 19.0742463 78.96326568 9.5373063 79 0 C84.94 0 90.88 0 97 0 C97 40.26 97 80.52 97 122 C91.06 122 85.12 122 79 122 C78.67 118.7 78.34 115.4 78 112 C76.9275 112.886875 75.855 113.77375 74.75 114.6875 C64.10422307 122.68130403 52.33422668 124.922969 39.33203125 123.76171875 C26.84344665 121.97763524 16.7420417 115.93495162 9 106 C0.19757061 91.90631435 -0.29473221 78.39401832 -0.1953125 62.20703125 C-0.19157526 60.40671446 -0.18873165 58.60639561 -0.18673706 56.80607605 C-0.17915657 52.10271437 -0.15955704 47.39947921 -0.1373291 42.69616699 C-0.11674936 37.88274852 -0.10770958 33.0693093 -0.09765625 28.25585938 C-0.07630505 18.83717548 -0.04116944 9.41861813 0 0 Z " fill="#F9F9F9" transform="translate(42,160)"/>
<path d="M0 0 C0.72316406 0.37382812 1.44632812 0.74765625 2.19140625 1.1328125 C12.19021199 6.86267841 19.03174487 15.87610006 22.875 26.6875 C24 32 24 32 24 47 C0.24 47 -23.52 47 -48 47 C-44.29347214 57.19295161 -41.6487936 63.53295276 -32.5625 69 C-24.69562562 72.50836254 -15.57604594 72.5338134 -7.48046875 69.8203125 C-2.18448046 67.29965716 2.25976603 64.54171267 6 60 C11.08938811 61.59043379 14.87456643 64.7446951 19 68 C14.85792553 77.03366717 6.91646551 81.38521669 -2 85 C-14.89401295 89.38594302 -27.48055842 89.32475936 -39.9921875 83.640625 C-52.16686002 77.23984866 -60.47433874 68.11468505 -65 55 C-68.28697375 42.3780208 -66.52532017 28.84609078 -60.0625 17.6875 C-53.55518728 7.48899766 -44.71263234 -0.31244149 -32.76953125 -3.6171875 C-21.71925138 -5.14458867 -10.04395016 -5.25375854 0 0 Z " fill="#FAFAFA" transform="translate(322,196)"/>
<path d="M0 0 C6.81696312 5.55706235 10.8775414 11.27297112 12.0625 20.078125 C12.71924761 30.2730575 10.52430616 38.56410074 3.69140625 46.45703125 C-2.84464692 52.65252855 -9.38490699 55.50248266 -18.3828125 55.8046875 C-27.17110602 55.52058318 -34.42042905 53.12371218 -40.9140625 47.07421875 C-43.73270085 43.81696575 -45.6330826 40.19107116 -47.4453125 36.3046875 C-48.095 34.9125 -48.095 34.9125 -48.7578125 33.4921875 C-50.64870185 24.72533688 -50.06574287 17.02946952 -45.4453125 9.3046875 C-45.0328125 8.60472656 -44.6203125 7.90476563 -44.1953125 7.18359375 C-40.11909385 1.05768561 -34.17677166 -3.45970852 -26.9921875 -5.3359375 C-16.89922235 -6.76009823 -8.47961433 -5.87883805 0 0 Z " fill="#020202" transform="translate(219.4453125,212.6953125)"/>
<path d="M0 0 C0 5.61 0 11.22 0 17 C-2.18625 17.0825 -4.3725 17.165 -6.625 17.25 C-14.18514296 17.8057809 -17.52423209 19.41169718 -22.75 24.875 C-27.66293794 31.69852491 -27.33404721 38.49811209 -27.4140625 46.6171875 C-27.43342865 47.82948029 -27.4527948 49.04177307 -27.4727478 50.290802 C-27.53239315 54.15213039 -27.57886945 58.01348883 -27.625 61.875 C-27.66319356 64.49740863 -27.70224609 67.11980491 -27.7421875 69.7421875 C-27.83808261 76.16135762 -27.92216975 82.58058646 -28 89 C-33.61 89 -39.22 89 -45 89 C-45 59.96 -45 30.92 -45 1 C-39.39 1 -33.78 1 -28 1 C-27.67 4.3 -27.34 7.6 -27 11 C-25.700625 9.3603125 -25.700625 9.3603125 -24.375 7.6875 C-17.59323444 -0.21126224 -9.71644632 -0.12955262 0 0 Z " fill="#FBFBFB" transform="translate(401,192)"/>
<path d="M0 0 C6.72496357 3.90446076 11.70083885 9.76168061 14.5625 17 C14.5625 17.99 14.5625 18.98 14.5625 20 C-3.2575 20 -21.0775 20 -39.4375 20 C-36.24111632 10.41084897 -33.56205706 5.08650051 -24.875 0 C-16.94509537 -3.5485418 -7.92990463 -3.5485418 0 0 Z " fill="#030303" transform="translate(313.4375,209)"/>
</svg>
