<?xml version="1.0" encoding="UTF-8"?>
<svg version="1.1" xmlns="http://www.w3.org/2000/svg" width="437" height="437">
<path d="M0 0 C1.55360965 -0.00339833 1.55360965 -0.00339833 3.13860536 -0.00686532 C6.5904823 -0.01316808 10.04231961 -0.01237836 13.49420166 -0.0115509 C15.97686819 -0.01454472 18.45953425 -0.01794776 20.94219971 -0.02172852 C26.97523641 -0.0296347 33.00825768 -0.03278219 39.04129812 -0.03334089 C43.94896344 -0.03381728 48.85662555 -0.03587812 53.76428986 -0.03904152 C67.70099674 -0.04784107 81.63769595 -0.05246199 95.57440564 -0.05171105 C96.32459848 -0.05167109 97.07479133 -0.05163113 97.84771729 -0.05158997 C98.59883389 -0.05154909 99.34995049 -0.0515082 100.1238282 -0.05146609 C112.29095631 -0.05105981 124.45805344 -0.06062644 136.62517259 -0.07472833 C149.14040982 -0.0891184 161.65563198 -0.09599707 174.1708777 -0.09513456 C181.1883311 -0.09480349 188.20575202 -0.09751061 195.22319794 -0.10831261 C201.82569487 -0.11841134 208.42813517 -0.11805546 215.03063965 -0.11079597 C217.44724884 -0.10975327 219.86386236 -0.11209427 222.28046417 -0.11815643 C245.68664268 -0.17304686 245.68664268 -0.17304686 256.36236572 2.13371277 C257.59470947 2.39410339 258.82705322 2.65449402 260.09674072 2.92277527 C275.33471568 7.14677351 288.43889756 13.77780545 300.36236572 24.13371277 C301.10873291 24.77953308 301.8551001 25.42535339 302.62408447 26.09074402 C319.75336013 42.07582445 329.58431642 66.43641989 330.45543706 89.60955179 C330.49321674 92.32836423 330.50049907 95.04554581 330.49607849 97.76461792 C330.49834405 98.79965212 330.5006096 99.83468632 330.50294381 100.9010852 C330.50924657 104.35062818 330.50845685 107.80013149 330.50762939 111.24967957 C330.51062323 113.73072358 330.51402627 116.21176712 330.51780701 118.69281006 C330.52571339 124.72217176 330.5288607 130.75151801 330.52941938 136.78088345 C330.5298958 141.6861565 330.53195682 146.59142635 330.53512001 151.49669838 C330.54391999 165.42833961 330.54854047 179.35997315 330.54778954 193.29161718 C330.5477296 194.41651236 330.5477296 194.41651236 330.54766846 195.56413269 C330.54762758 196.31498698 330.5475867 197.06584128 330.54754458 197.83944873 C330.5471384 209.99943475 330.55670256 222.15938977 330.57080682 234.31936684 C330.58520117 246.82895884 330.59207531 259.33853576 330.59121305 271.84813625 C330.59088211 278.86170914 330.59358365 285.87524953 330.6043911 292.88881493 C330.61449676 299.48885265 330.6141296 306.08883374 330.60687447 312.68887901 C330.60583252 315.10345561 330.6081682 317.51803654 330.61423492 319.93260574 C330.65128785 335.70866631 330.42105014 350.6118953 325.23736572 365.69621277 C324.93169678 366.59388367 324.62602783 367.49155457 324.31109619 368.41642761 C316.17245033 391.31589853 298.6670377 408.88575093 276.98736572 419.32121277 C257.78837641 427.82135562 239.36759785 428.43241841 218.74224854 428.40837097 C216.26695605 428.41272449 213.7916649 428.41790976 211.31637573 428.42385864 C205.31909408 428.43581071 199.32187824 428.43840829 193.32459071 428.43605838 C188.44330477 428.43426681 183.56203233 428.43604272 178.68074799 428.44028282 C177.9829001 428.44087801 177.28505222 428.4414732 176.56605743 428.44208642 C175.14782407 428.44329833 173.72959071 428.44451246 172.31135735 428.4457288 C159.04453247 428.45657705 145.77773308 428.4544549 132.51090679 428.44834395 C120.41212078 428.44317861 108.31341537 428.45442499 96.2146453 428.47344217 C83.75007079 428.49288201 71.28553429 428.50106576 58.82094455 428.49731892 C51.83972185 428.49541599 44.8585677 428.49780498 37.87735748 428.51203346 C31.30758461 428.52528942 24.73794529 428.52260437 18.1681633 428.50962257 C15.76977609 428.50727175 13.37137736 428.50993722 10.97300339 428.5182457 C-20.85604989 428.62047809 -48.70263014 422.83349214 -72.07122803 399.72746277 C-77.43042747 394.01580333 -81.73319495 387.91252578 -85.63763428 381.13371277 C-86.08880615 380.35640808 -86.53997803 379.57910339 -87.00482178 378.77824402 C-97.60027977 359.13387004 -97.93644202 338.17678369 -97.89642334 316.45011902 C-97.89913728 313.96833697 -97.90270047 311.48655573 -97.90704346 309.004776 C-97.91518157 302.99279023 -97.91403869 296.98087388 -97.90821818 290.96889091 C-97.90368117 286.07803676 -97.90309754 281.18719659 -97.90526581 276.29634094 C-97.90557227 275.59733817 -97.90587874 274.89833539 -97.90619449 274.17815071 C-97.90683401 272.75765442 -97.90748244 271.33715814 -97.90813968 269.91666186 C-97.91382782 256.63087974 -97.90730896 243.34512532 -97.89653894 230.05934775 C-97.88760481 218.68666129 -97.88915728 207.31401568 -97.89837646 195.94132996 C-97.90910598 182.69952568 -97.91327864 169.45774563 -97.90715194 156.21593761 C-97.90651491 154.80098661 -97.90588617 153.3860356 -97.90526581 151.97108459 C-97.90480298 150.92710828 -97.90480298 150.92710828 -97.9043308 149.86204153 C-97.90261189 144.98328315 -97.90550153 140.10454028 -97.91022491 135.2257843 C-97.91645561 128.64619341 -97.91195035 122.06666724 -97.9004364 115.48707962 C-97.89780477 113.08056388 -97.89852914 110.67404163 -97.90296173 108.26752853 C-97.95616863 76.43184531 -92.20473785 49.77417565 -69.82513428 25.88371277 C-50.70382958 7.75275453 -25.93212821 -0.04212946 0 0 Z " fill="#FEBA00" transform="translate(103.63763427734375,5.8662872314453125)"/>
<path d="M0 0 C1.98 0.99 3.96 1.98 6 3 C6 3.99 6 4.98 6 6 C7.32 6.66 8.64 7.32 10 8 C9.01 8 8.02 8 7 8 C7 8.66 7 9.32 7 10 C5.576875 10.0928125 5.576875 10.0928125 4.125 10.1875 C3.09375 10.455625 2.0625 10.72375 1 11 C0.71125 11.721875 0.4225 12.44375 0.125 13.1875 C-1.15035335 16.37588337 -1.98515027 16.87720556 -4.75 18.75 C-9.47501807 22.05751265 -12.07531959 26.11000887 -15 31 C-15.66 31.99 -16.32 32.98 -17 34 C-17.31254378 36.72283905 -17.13333428 39.24442486 -17 42 C-15.96580854 43.25717605 -15.96580854 43.25717605 -13.71580505 43.12025452 C-12.70542679 43.11803391 -11.69504852 43.11581329 -10.65405273 43.11352539 C-9.5129454 43.11344986 -8.37183807 43.11337433 -7.19615173 43.11329651 C-5.33368553 43.10555458 -5.33368553 43.10555458 -3.43359375 43.09765625 C-2.16983414 43.0962413 -0.90607452 43.09482635 0.39598083 43.09336853 C3.76124889 43.08870582 7.1264499 43.0797148 10.49169922 43.06866455 C13.9234967 43.05844846 17.35530109 43.05387049 20.78710938 43.04882812 C27.52475824 43.0377738 34.26237525 43.0210171 41 43 C42.37208921 40.25582158 42.2147293 37.92270319 42.32421875 34.85546875 C42.38416016 33.62119141 42.44410156 32.38691406 42.50585938 31.11523438 C42.62637384 28.50927095 42.72812384 25.90236805 42.81054688 23.29492188 C42.87693359 22.05677734 42.94332031 20.81863281 43.01171875 19.54296875 C43.05772217 18.40883545 43.10372559 17.27470215 43.15112305 16.10620117 C44.33971322 11.75692514 46.37492094 10.57987554 50 8 C50.02505615 9.02472412 50.0501123 10.04944824 50.07592773 11.10522461 C50.16984484 14.89409676 50.27010317 18.68277881 50.37231445 22.47143555 C50.41572297 24.11364303 50.45739358 25.75589739 50.49731445 27.39819336 C50.5548744 29.75388745 50.61860892 32.10934428 50.68359375 34.46484375 C50.70866249 35.57266457 50.70866249 35.57266457 50.73423767 36.7028656 C50.53548013 40.14300627 50.53548013 40.14300627 52 43 C53.50316769 43.1224331 55.01188167 43.17776285 56.51977539 43.20532227 C57.48069595 43.22526749 58.44161652 43.24521271 59.43165588 43.26576233 C60.476436 43.28247482 61.52121613 43.29918732 62.59765625 43.31640625 C63.66165146 43.33718735 64.72564667 43.35796844 65.82188416 43.37937927 C69.2353544 43.44499254 72.64890429 43.50381423 76.0625 43.5625 C78.37045109 43.60567403 80.678394 43.64928794 82.98632812 43.69335938 C88.65746682 43.80068584 94.32868552 43.90242992 100 44 C99.83242188 43.02417969 99.66484375 42.04835937 99.4921875 41.04296875 C99.18667969 39.13451172 99.18667969 39.13451172 98.875 37.1875 C98.56175781 35.29064453 98.56175781 35.29064453 98.2421875 33.35546875 C98 30 98 30 100 27 C104.20763224 28.5027258 105.8027758 31.23332995 108 35 C108 35.66 108 36.32 108 37 C108.61875 37.144375 109.2375 37.28875 109.875 37.4375 C112 38 112 38 114 39 C115.96562093 39.31542218 117.93870789 39.58478449 119.9140625 39.83203125 C121.13947754 39.98889404 122.36489258 40.14575684 123.62744141 40.30737305 C124.27980774 40.38966156 124.93217407 40.47195007 125.60430908 40.55673218 C136.31012413 41.91181473 146.98179188 43.39758889 157.625 45.1875 C158.61838379 45.35419189 159.61176758 45.52088379 160.63525391 45.69262695 C164.4633708 46.34746297 168.24069574 47.01705282 172 48 C172 48.66 172 49.32 172 50 C172.75796875 50.2371875 173.5159375 50.474375 174.296875 50.71875 C177.46300355 52.21945833 178.4297344 53.54925365 180.25 56.5 C180.75015625 57.2940625 181.2503125 58.088125 181.765625 58.90625 C183.61684479 62.04629369 184.2079161 64.14371034 184.53515625 67.76953125 C184.6228125 68.73487793 184.71046875 69.70022461 184.80078125 70.69482422 C185.22889401 75.79463759 185.62368216 80.89613363 186 86 C186.06171387 86.72977051 186.12342773 87.45954102 186.18701172 88.21142578 C186.78402251 95.5796452 186.13390346 100.26218695 181.703125 106.29296875 C179.91191916 108.08828286 178.25223924 108.88801577 176 110 C175.27840576 111.64363134 174.60648579 113.31050386 174 115 C171.12981559 116.43509221 168.66456277 116.11158506 165.4609375 116.09765625 C163.50800781 116.09282227 163.50800781 116.09282227 161.515625 116.08789062 C160.13541601 116.07953466 158.75520768 116.07106971 157.375 116.0625 C155.98698074 116.05748501 154.59895978 116.0529221 153.2109375 116.04882812 C149.80724868 116.03700976 146.40364561 116.02053434 143 116 C142.88398438 116.60714844 142.76796875 117.21429688 142.6484375 117.83984375 C141.67154625 121.0941863 139.45337591 122.72186523 137 125 C136.484375 125.5775 135.96875 126.155 135.4375 126.75 C131.53364739 130.14465445 125.12679057 129.44677132 120.26953125 129.4140625 C113.96557376 128.61571185 110.57488919 124.91540578 106.6875 120.1875 C106.130625 119.465625 105.57375 118.74375 105 118 C102.13208764 117.04402921 100.36234166 116.87641395 97.38728333 116.87974548 C96.44077408 116.87837082 95.49426483 116.87699615 94.51907349 116.87557983 C92.96432816 116.88097275 92.96432816 116.88097275 91.37817383 116.88647461 C90.28533585 116.88632858 89.19249786 116.88618256 88.06654358 116.8860321 C84.44668609 116.88672995 80.82687977 116.89451642 77.20703125 116.90234375 C74.70025155 116.90420838 72.19347148 116.90563207 69.68669128 116.90663147 C63.75814995 116.91006226 57.82962509 116.91794743 51.90109223 116.92798096 C44.48940331 116.94025246 37.07771211 116.94562534 29.66601562 116.95117188 C16.44400105 116.96190291 3.22200169 116.97878337 -10 117 C-10.30180176 117.79237061 -10.60360352 118.58474121 -10.91455078 119.40112305 C-12.53592972 123.28316957 -14.56683748 124.59678624 -18 127 C-19.32 127 -20.64 127 -22 127 C-22 127.66 -22 128.32 -22 129 C-27.57413253 130.85804418 -32.94275568 130.80631384 -38.3125 128.3125 C-42.43655953 125.98758198 -45.2603496 123.28058872 -46.75 118.6875 C-46.8325 118.130625 -46.915 117.57375 -47 117 C-47.66 117 -48.32 117 -49 117 C-49.33 115.68 -49.66 114.36 -50 113 C-50.73114014 113.00636475 -51.46228027 113.01272949 -52.21557617 113.01928711 C-55.54058194 113.027992 -58.86281673 112.98329454 -62.1875 112.9375 C-63.91323242 112.95393555 -63.91323242 112.95393555 -65.67382812 112.97070312 C-73.54591329 112.81097966 -73.54591329 112.81097966 -76.90112305 110.93969727 C-81.65410966 105.73686384 -80.63989313 97.83814197 -80.48706055 91.23950195 C-80.43769777 89.07118735 -80.42557434 86.90515407 -80.41992188 84.73632812 C-80.32946622 73.59970629 -79.60496687 65.05942365 -71.6875 56.5 C-70.800625 55.675 -69.91375 54.85 -69 54 C-68.54367188 53.5153125 -68.08734375 53.030625 -67.6171875 52.53125 C-62.10531946 47.10247545 -55.20921965 45.351944 -48 43 C-43.54010581 41.39917206 -41.67150571 40.00725857 -39 36 C-38.5875 34.948125 -38.175 33.89625 -37.75 32.8125 C-35.66447375 27.54625494 -31.86603241 23.07944397 -28 19 C-27.34 19 -26.68 19 -26 19 C-25.773125 18.278125 -25.54625 17.55625 -25.3125 16.8125 C-22.93894149 11.7263032 -18.95985856 8.47992928 -14 6 C-11.68529088 5.27129528 -9.3494053 4.60760482 -7 4 C-5.68644241 3.62872154 -4.37389465 3.25384734 -3.0625 2.875 C-2.051875 2.58625 -1.04125 2.2975 0 2 C0 1.34 0 0.68 0 0 Z " fill="#041B32" transform="translate(166,125)"/>
<path d="M0 0 C2.3125 2.875 2.3125 2.875 4 6 C6.35808866 8.35808866 7.0362346 8.2813765 10.25 8.5 C14.08354453 8.84062189 17.38722372 9.61047066 21 11 C21 11.66 21 12.32 21 13 C21.9590625 13.37125 21.9590625 13.37125 22.9375 13.75 C25 15 25 15 25.75 17.125 C25.8325 17.74375 25.915 18.3625 26 19 C24.02 19.33 22.04 19.66 20 20 C20.34444881 22.47266765 20.34444881 22.47266765 21 25 C21.66 25.33 22.32 25.66 23 26 C23 27.32 23 28.64 23 30 C23.66 30 24.32 30 25 30 C25.79423861 31.56119422 26.58527123 33.12401964 27.375 34.6875 C27.81585938 35.55761719 28.25671875 36.42773438 28.7109375 37.32421875 C30 40 30 40 30.9140625 42.70703125 C31.81415172 45.07507869 31.81415172 45.07507869 33.7421875 46.28515625 C37.53338072 47.48548213 41.37117022 47.40893188 45.3203125 47.55859375 C46.20460938 47.70425781 47.08890625 47.84992188 48 48 C48.66 48.99 49.32 49.98 50 51 C35.31547181 50.36817312 35.31547181 50.36817312 31 47 C29.30012613 44.68273853 27.76330179 42.33491996 26.296875 39.86328125 C25.86890625 39.24839844 25.4409375 38.63351563 25 38 C24.34 38 23.68 38 23 38 C22.12844331 41.48622676 22.09307988 43.57385733 23 47 C23.02257959 49.33322408 23.02436062 51.66679384 23 54 C16.20071581 54.0505894 9.4014799 54.08568667 2.60205078 54.10986328 C0.28757921 54.11993892 -2.02687959 54.13359975 -4.34130859 54.15087891 C-7.66246693 54.17505865 -10.9834574 54.1864673 -14.3046875 54.1953125 C-15.34430634 54.20563507 -16.38392517 54.21595764 -17.45504761 54.22659302 C-18.41589264 54.22674408 -19.37673767 54.22689514 -20.36669922 54.22705078 C-21.21497284 54.231492 -22.06324646 54.23593323 -22.93722534 54.24050903 C-25 54 -25 54 -27 52 C-27.24515697 49.49624532 -27.37333658 47.09450521 -27.4140625 44.5859375 C-27.43342865 43.85629791 -27.4527948 43.12665833 -27.4727478 42.37490845 C-27.53258422 40.04172498 -27.57894423 37.70849227 -27.625 35.375 C-27.66317614 33.79424918 -27.70222765 32.21351924 -27.7421875 30.6328125 C-27.83828878 26.7553777 -27.92230412 22.87784551 -28 19 C-30.72990368 21.23600888 -31.89160145 22.46748449 -32.60595703 25.97680664 C-32.65606934 27.10981201 -32.70618164 28.24281738 -32.7578125 29.41015625 C-32.82613281 30.64701172 -32.89445312 31.88386719 -32.96484375 33.15820312 C-33.01769531 34.44662109 -33.07054687 35.73503906 -33.125 37.0625 C-33.24472772 39.61626686 -33.37197422 42.16969564 -33.5078125 44.72265625 C-33.55566895 45.85453369 -33.60352539 46.98641113 -33.65283203 48.15258789 C-34 51 -34 51 -36 54 C-38.39099121 54.3742218 -38.39099121 54.3742218 -41.42773438 54.37231445 C-42.56231079 54.37854324 -43.69688721 54.38477203 -44.86584473 54.39118958 C-46.09605347 54.38197983 -47.32626221 54.37277008 -48.59375 54.36328125 C-50.48015198 54.36402901 -50.48015198 54.36402901 -52.40466309 54.36479187 C-55.0680986 54.36244751 -57.73074446 54.35426594 -60.39404297 54.33618164 C-63.81073454 54.31349391 -67.226984 54.31294978 -70.64373016 54.31969929 C-73.89793687 54.32384097 -77.15206479 54.3118695 -80.40625 54.30078125 C-82.25156311 54.30214836 -82.25156311 54.30214836 -84.13415527 54.30354309 C-85.26873169 54.29401108 -86.40330811 54.28447906 -87.57226562 54.2746582 C-88.57439087 54.27005081 -89.57651611 54.26544342 -90.60900879 54.26069641 C-93 54 -93 54 -95 52 C-95.9052452 45.55012795 -94.45380793 42.23611246 -90.64453125 37.03515625 C-87.69288147 33.38240201 -84.46184161 30.362275 -80.8125 27.4375 C-77.94181414 25.2980693 -77.94181414 25.2980693 -77 22.75 C-76.67 22.1725 -76.34 21.595 -76 21 C-72.875 20.25 -72.875 20.25 -70 20 C-70 19.34 -70 18.68 -70 18 C-70.66 17.34 -71.32 16.68 -72 16 C-72 15.34 -72 14.68 -72 14 C-73.9600281 12.36323743 -73.9600281 12.36323743 -76 11 C-76.51949219 11.27714844 -77.03898437 11.55429688 -77.57421875 11.83984375 C-81.36216005 13.80733267 -84.70699113 15.46337389 -89 16 C-84.56862988 9.35294482 -75.65004917 7.26301615 -68.17651367 5.60693359 C-58.03014491 3.88639072 -47.37644133 4.55871758 -37.12084961 4.56420898 C-34.01382852 4.56061927 -30.90765065 4.53322861 -27.80078125 4.50390625 C-26.86510818 4.51208878 -25.92943512 4.5202713 -24.96540833 4.52870178 C-19.06124346 4.46273919 -14.56276403 3.37802996 -9.186203 0.9183197 C-5.89222321 -0.46532424 -3.49345831 -0.69869166 0 0 Z " fill="#0E212C" transform="translate(243,115)"/>
<path d="M0 0 C3.625 -0.1875 3.625 -0.1875 7 0 C6.875 3.1875 6.875 3.1875 6 7 C3.1875 9.5 3.1875 9.5 1.66796875 10.46875 C-0.28678675 12.09224559 -0.28678675 12.09224559 -1.76953125 15.3359375 C-4.02761116 19.46739939 -6.98742262 21.5910589 -10.875 24.125 C-12.08235559 24.93769312 -13.28809929 25.75278623 -14.4921875 26.5703125 C-15.08225586 26.96774658 -15.67232422 27.36518066 -16.28027344 27.7746582 C-17.96482618 28.9749379 -19.51043233 30.25638874 -21.0703125 31.61328125 C-23.95931232 33.9668531 -26.63541726 35.48973281 -30 37.0625 C-34.25707219 39.10967405 -38.08166229 41.35740015 -42 44 C-44.31808364 45.03485877 -46.65175298 46.0355414 -49 47 C-49.86625 47.495 -50.7325 47.99 -51.625 48.5 C-55.80184373 50.35637499 -59.95648804 51.21184352 -64.4140625 52.17578125 C-69.24451683 53.28604907 -73.96771173 54.69984734 -78.7109375 56.1328125 C-85.17440964 57.83695836 -91.48548737 58.1684449 -98.125 58.203125 C-98.98955811 58.20882507 -99.85411621 58.21452515 -100.74487305 58.22039795 C-102.57030024 58.22980525 -104.39574408 58.23636485 -106.22119141 58.24023438 C-108.96418355 58.24987413 -111.70640405 58.28091099 -114.44921875 58.3125 C-128.66072063 58.40000865 -141.5307895 56.80486841 -154.875 51.5625 C-155.638125 51.27568359 -156.40125 50.98886719 -157.1875 50.69335938 C-176.43717464 43.36869504 -176.43717464 43.36869504 -184 37 C-186.09578221 35.29717695 -187.71313462 34.10255809 -190.26171875 33.19140625 C-193.57669235 31.74908536 -196.01307934 29.84475861 -198.8125 27.5625 C-199.78832031 26.78003906 -200.76414062 25.99757813 -201.76953125 25.19140625 C-202.50558594 24.46824219 -203.24164063 23.74507813 -204 23 C-204 22.01 -204 21.02 -204 20 C-204.58910156 19.73960937 -205.17820312 19.47921875 -205.78515625 19.2109375 C-208.13575944 17.92577526 -209.60327056 16.56513183 -211.4375 14.625 C-213.55759429 12.40895317 -215.40510958 10.71556136 -217.9375 8.9375 C-220 7 -220 7 -220.3125 3.75 C-220.209375 2.8425 -220.10625 1.935 -220 1 C-210.84851909 1.49917169 -204.88465522 5.78210398 -197.3125 10.625 C-190.16827926 15.18661463 -184.30245531 17.53339861 -176 19 C-174.30997401 19.29853753 -172.62219559 19.61021837 -170.9375 19.9375 C-170.20402344 20.07027344 -169.47054687 20.20304687 -168.71484375 20.33984375 C-168.14894531 20.55769531 -167.58304688 20.77554687 -167 21 C-166.505 22.485 -166.505 22.485 -166 24 C-164.081875 23.9690625 -164.081875 23.9690625 -162.125 23.9375 C-158.25 23.875 -158.25 23.875 -156 25 C-156 25.66 -156 26.32 -156 27 C-154.02 27 -152.04 27 -150 27 C-150 27.66 -150 28.32 -150 29 C-115.71791102 32.86326079 -83.51061143 33.43179461 -50 24 C-48.77023437 23.68160156 -47.54046875 23.36320312 -46.2734375 23.03515625 C-39.81797165 21.31415947 -34.06748666 19.26584807 -28.1875 16.09375 C-26.13787291 15.06893646 -24.27783014 14.42883254 -22.0625 13.875 C-19.05112396 13.28470597 -19.05112396 13.28470597 -17.58203125 11.5703125 C-15.72321314 9.72526342 -14.04068812 8.98936032 -11.625 8 C-4.89449515 5.19947167 -4.89449515 5.19947167 0 0 Z " fill="#091E2F" transform="translate(326,270)"/>
<path d="M0 0 C0.99457718 0.00212242 0.99457718 0.00212242 2.00924683 0.00428772 C4.12860613 0.00988871 6.24786009 0.02244125 8.3671875 0.03515625 C9.80338389 0.04017113 11.23958194 0.04473406 12.67578125 0.04882812 C16.19795095 0.05985843 19.72005895 0.07712366 23.2421875 0.09765625 C24.67727971 2.96784066 24.35377256 5.43309348 24.33984375 8.63671875 C24.33662109 9.93867188 24.33339844 11.240625 24.33007812 12.58203125 C24.32172216 13.96224024 24.31325721 15.34244857 24.3046875 16.72265625 C24.29967251 18.11067551 24.2951096 19.49869647 24.29101562 20.88671875 C24.27919726 24.29040757 24.26272184 27.69401064 24.2421875 31.09765625 C23.2521875 31.42765625 22.2621875 31.75765625 21.2421875 32.09765625 C21.2421875 32.75765625 21.2421875 33.41765625 21.2421875 34.09765625 C13.7491707 34.17359608 6.25625279 34.22620957 -1.23706055 34.26245117 C-3.78722848 34.2775563 -6.33737036 34.29804158 -8.88745117 34.32397461 C-12.54873069 34.36028129 -16.20966735 34.3773654 -19.87109375 34.390625 C-21.0149202 34.40610886 -22.15874664 34.42159271 -23.3372345 34.43754578 C-24.92854439 34.43788567 -24.92854439 34.43788567 -26.55200195 34.43823242 C-27.48687943 34.44489426 -28.4217569 34.45155609 -29.38496399 34.4584198 C-32.20995463 34.02891339 -33.08111588 33.37444045 -34.7578125 31.09765625 C-35.70503037 26.67730621 -34.42165338 24.17731055 -32.0703125 20.53515625 C-26.98696516 13.45393518 -19.86323873 5.44118947 -11.1953125 3.16015625 C-10.3909375 3.13953125 -9.5865625 3.11890625 -8.7578125 3.09765625 C-8.7578125 2.43765625 -8.7578125 1.77765625 -8.7578125 1.09765625 C-5.8358356 -0.3633322 -3.25887775 -0.01369276 0 0 Z " fill="#F9B803" transform="translate(182.7578125,133.90234375)"/>
<path d="M0 0 C4.04142215 -0.11662261 8.08240865 -0.1873935 12.125 -0.25 C13.26710937 -0.28351563 14.40921875 -0.31703125 15.5859375 -0.3515625 C22.01597014 -0.42633032 26.18288803 -0.47361672 31 4 C32.6875 6.4375 32.6875 6.4375 34 9 C34.474375 9.78375 34.94875 10.5675 35.4375 11.375 C36.30709873 12.83592586 37.16468161 14.30489245 37.97265625 15.80078125 C39.74953043 19.06401405 40.85546835 20.90364557 44 23 C44.73046875 25.3828125 44.73046875 25.3828125 45.1875 28.125 C45.34605469 29.03507812 45.50460937 29.94515625 45.66796875 30.8828125 C45.77753906 31.58148438 45.88710938 32.28015625 46 33 C39.78868226 33.07408447 33.57762095 33.12857114 27.3659668 33.16479492 C25.25231446 33.1798936 23.13869352 33.20037426 21.02514648 33.22631836 C17.98934185 33.26265397 14.95395094 33.27971544 11.91796875 33.29296875 C10.4975251 33.31619453 10.4975251 33.31619453 9.04838562 33.33988953 C7.72735588 33.34022942 7.72735588 33.34022942 6.37963867 33.34057617 C5.60464523 33.34723801 4.82965179 33.35389984 4.03117371 33.36076355 C1.4455675 32.90152539 0.56798784 32.07457295 -1 30 C-1.35644531 27.22851562 -1.35644531 27.22851562 -1.328125 23.90625 C-1.32296875 22.71128906 -1.3178125 21.51632813 -1.3125 20.28515625 C-1.291875 19.03605469 -1.27125 17.78695312 -1.25 16.5 C-1.24484375 15.25089844 -1.2396875 14.00179687 -1.234375 12.71484375 C-1.15453696 3.46361088 -1.15453696 3.46361088 0 0 Z " fill="#F8B804" transform="translate(219,135)"/>
<path d="M0 0 C15.18581844 -0.02335757 30.37163605 -0.04099324 45.55746841 -0.05181217 C52.60846812 -0.05696904 59.65945667 -0.06400018 66.71044922 -0.07543945 C73.51203263 -0.08646884 80.31360443 -0.09228062 87.11519623 -0.09487724 C89.71318494 -0.09672828 92.31117301 -0.10034276 94.9091568 -0.10573006 C98.54133997 -0.11296396 102.17347487 -0.11398994 105.80566406 -0.11352539 C107.42514702 -0.1189183 107.42514702 -0.1189183 109.0773468 -0.12442017 C110.06730148 -0.1230455 111.05725616 -0.12167084 112.07720947 -0.12025452 C113.36587606 -0.12163721 113.36587606 -0.12163721 114.68057632 -0.12304783 C116.95023497 -0.00264009 118.8555311 0.24602214 121 1 C122.01171875 2.99609375 122.01171875 2.99609375 122.6875 5.4375 C123.6372485 8.79858166 123.6372485 8.79858166 125 12 C120.78435883 10.43865142 118.80574467 7.38128204 116 4 C113.13208764 3.04402921 111.36234166 2.87641395 108.38728333 2.87974548 C107.44077408 2.87837082 106.49426483 2.87699615 105.51907349 2.87557983 C103.96432816 2.88097275 103.96432816 2.88097275 102.37817383 2.88647461 C101.28533585 2.88632858 100.19249786 2.88618256 99.06654358 2.8860321 C95.44668609 2.88672995 91.82687977 2.89451642 88.20703125 2.90234375 C85.70025155 2.90420838 83.19347148 2.90563207 80.68669128 2.90663147 C74.75814995 2.91006226 68.82962509 2.91794743 62.90109223 2.92798096 C55.48940331 2.94025246 48.07771211 2.94562534 40.66601562 2.95117188 C27.44400105 2.96190291 14.22200169 2.97878337 1 3 C0.69819824 3.79237061 0.39639648 4.58474121 0.08544922 5.40112305 C-1.53592972 9.28316957 -3.56683748 10.59678624 -7 13 C-8.32 13 -9.64 13 -11 13 C-11 13.66 -11 14.32 -11 15 C-16.39254202 16.79751401 -21.32507891 16.70522993 -26.5625 14.5 C-27.366875 14.005 -28.17125 13.51 -29 13 C-26.42410408 11.71205204 -24.6832846 12.00620891 -21.8125 12.125 C-16.65544804 12.1723124 -13.48485798 11.52273261 -9 9 C-8.443125 8.4225 -7.88625 7.845 -7.3125 7.25 C-6.879375 6.8375 -6.44625 6.425 -6 6 C-3.8125 6.3125 -3.8125 6.3125 -2 7 C-2 5.35 -2 3.7 -2 2 C-1.34 2 -0.68 2 0 2 C0 1.34 0 0.68 0 0 Z " fill="#48431A" transform="translate(155,239)"/>
<path d="M0 0 C2.64 0.66 5.28 1.32 8 2 C8 2.66 8 3.32 8 4 C8.639375 4.2475 9.27875 4.495 9.9375 4.75 C12 6 12 6 12.75 8.125 C12.8325 8.74375 12.915 9.3625 13 10 C11.02 10.33 9.04 10.66 7 11 C7.34444881 13.47266765 7.34444881 13.47266765 8 16 C8.66 16.33 9.32 16.66 10 17 C10 18.32 10 19.64 10 21 C10.66 21 11.32 21 12 21 C12.79423861 22.56119422 13.58527123 24.12401964 14.375 25.6875 C14.81585938 26.55761719 15.25671875 27.42773438 15.7109375 28.32421875 C17 31 17 31 17.9140625 33.70703125 C18.81415172 36.07507869 18.81415172 36.07507869 20.7421875 37.28515625 C24.53338072 38.48548213 28.37117022 38.40893188 32.3203125 38.55859375 C33.20460938 38.70425781 34.08890625 38.84992188 35 39 C35.66 39.99 36.32 40.98 37 42 C22.31547181 41.36817312 22.31547181 41.36817312 18 38 C16.30012613 35.68273853 14.76330179 33.33491996 13.296875 30.86328125 C12.86890625 30.24839844 12.4409375 29.63351563 12 29 C11.34 29 10.68 29 10 29 C9.12844331 32.48622676 9.09307988 34.57385733 10 38 C10.02257959 40.33322408 10.02436062 42.66679384 10 45 C3.50390094 45.07597206 -2.99208385 45.12856672 -9.48852539 45.16479492 C-11.69918092 45.17989525 -13.90980643 45.20037709 -16.12036133 45.22631836 C-19.29515993 45.26264655 -22.46956297 45.27971384 -25.64453125 45.29296875 C-26.63524124 45.30845261 -27.62595123 45.32393646 -28.64668274 45.33988953 C-29.56741074 45.34011612 -30.48813873 45.34034271 -31.43676758 45.34057617 C-32.2472908 45.34723801 -33.05781403 45.35389984 -33.89289856 45.36076355 C-36.53812594 44.90786574 -37.4151652 44.13653761 -39 42 C-39.34057617 38.99731445 -39.34057617 38.99731445 -39.29296875 35.36328125 C-39.2784668 33.41518555 -39.2784668 33.41518555 -39.26367188 31.42773438 C-39.23860585 30.05598361 -39.21321101 28.68423882 -39.1875 27.3125 C-39.1724502 25.92905076 -39.1587623 24.54558599 -39.14648438 23.16210938 C-39.11107223 19.77434793 -39.06168054 16.38736861 -39 13 C-38.34 12.67 -37.68 12.34 -37 12 C-37.01047363 12.86802246 -37.02094727 13.73604492 -37.03173828 14.63037109 C-37.06579716 17.84699528 -37.09088767 21.06352767 -37.10986328 24.28027344 C-37.11992877 25.67320781 -37.13358234 27.06612102 -37.15087891 28.45898438 C-37.1751022 30.4595436 -37.18540814 32.46025615 -37.1953125 34.4609375 C-37.20578613 35.66540527 -37.21625977 36.86987305 -37.22705078 38.11083984 C-37.30460814 41.12841495 -37.30460814 41.12841495 -35 43 C-33.02239739 43.32956935 -33.02239739 43.32956935 -30.73388672 43.31884766 C-29.41274368 43.34865219 -29.41274368 43.34865219 -28.06491089 43.37905884 C-27.11278717 43.39061005 -26.16066345 43.40216125 -25.1796875 43.4140625 C-24.20589142 43.43342865 -23.23209534 43.4527948 -22.22879028 43.4727478 C-19.11094997 43.53264558 -15.99307294 43.57896971 -12.875 43.625 C-10.76430659 43.66317039 -8.65362892 43.70222156 -6.54296875 43.7421875 C-1.36211856 43.83835527 3.81882597 43.92337264 9 44 C8.54759401 42.37817431 8.08625143 40.75883948 7.62109375 39.140625 C7.36513428 38.23860352 7.1091748 37.33658203 6.84545898 36.40722656 C5.80232618 33.43717475 4.38253466 32.02154456 2 30 C-0.86247866 26.12723475 -2.67678152 22.63126468 -4 18 C-1.24200902 19.37899549 -0.56147404 21.37672362 1 24 C1.556875 24.556875 2.11375 25.11375 2.6875 25.6875 C3.120625 26.120625 3.55375 26.55375 4 27 C4 27.66 4 28.32 4 29 C4.66 29 5.32 29 6 29 C6.25002209 27.25285767 6.47423194 25.50200859 6.6875 23.75 C6.87892578 22.28820312 6.87892578 22.28820312 7.07421875 20.796875 C6.98544319 17.45143816 6.04435304 16.54361664 4 14 C4 12.68 4 11.36 4 10 C6.31 9.34 8.62 8.68 11 8 C8.36 6.68 5.72 5.36 3 4 C3 3.34 3 2.68 3 2 C2.01 1.67 1.02 1.34 0 1 C0 0.67 0 0.34 0 0 Z " fill="#534E21" transform="translate(256,124)"/>
<path d="M0 0 C1.64630328 0.14042877 3.29204179 0.28749329 4.9375 0.4375 C6.31228516 0.55931641 6.31228516 0.55931641 7.71484375 0.68359375 C10 1 10 1 11 2 C13.32986123 2.20968751 15.66444036 2.36815389 18 2.5 C24.88888889 2.88888889 24.88888889 2.88888889 26 4 C27.34986698 4.10132403 28.70496895 4.13396267 30.05862522 4.1386652 C31.37833532 4.14687687 31.37833532 4.14687687 32.72470623 4.15525442 C33.70231236 4.15623253 34.67991849 4.15721064 35.68714905 4.15821838 C37.23201348 4.16562535 37.23201348 4.16562535 38.80808729 4.17318195 C42.28750243 4.18864046 45.76689901 4.19694005 49.24633789 4.20532227 C51.72921413 4.21489424 54.21208871 4.2249039 56.69496155 4.23532104 C62.05500305 4.25681847 67.41504188 4.27524836 72.77510262 4.29092598 C80.52493423 4.31359868 88.27473828 4.34174506 96.02454656 4.37124526 C108.59683725 4.41895313 121.16913918 4.46220862 133.74145508 4.50268555 C145.9572843 4.54202424 158.17310351 4.58344654 170.38891602 4.62768555 C171.14137618 4.63040982 171.89383634 4.63313409 172.66909833 4.63594092 C176.44381377 4.64962013 180.21852907 4.66334045 183.99324429 4.67708123 C215.3288089 4.79109617 246.66439446 4.89782057 278 5 C278 5.33 278 5.66 278 6 C245.94830485 6.06857882 213.89663075 6.12160157 181.84487928 6.15319599 C178.0526733 6.15694768 174.26046748 6.16083069 170.46826172 6.16479492 C169.71336715 6.16558185 168.95847259 6.16636878 168.18070243 6.16717956 C155.99050445 6.18019955 143.80034933 6.20383441 131.6101767 6.23145839 C119.08277498 6.25960777 106.55539556 6.27619631 94.02796352 6.28226548 C86.31067431 6.28636226 78.59350629 6.29925604 70.87625442 6.3237494 C64.93812687 6.34162509 59.00006001 6.34334177 53.06190491 6.33932304 C50.64094679 6.34014253 48.21998372 6.34603106 45.79905319 6.35761642 C30.23965068 6.42836929 14.82378535 6.30732403 0 1 C0 0.67 0 0.34 0 0 Z " fill="#EDBC32" transform="translate(69,428)"/>
<path d="M0 0 C0 0.66 0 1.32 0 2 C-6.37339317 5.44050428 -12.71076828 8.05277384 -19.62890625 10.203125 C-21.92862706 10.78029247 -21.92862706 10.78029247 -23 12 C-25.26202739 12.5384386 -27.5350802 13.0309125 -29.8125 13.5 C-34.39951723 14.418332 -34.39951723 14.418332 -38.9385376 15.53782654 C-41.15938366 16.03573332 -43.12674966 16.12021544 -45.40136719 16.11352539 C-46.6922525 16.11341209 -46.6922525 16.11341209 -48.00921631 16.11329651 C-48.92914368 16.10813522 -49.84907104 16.10297394 -50.796875 16.09765625 C-52.22003021 16.09553383 -52.22003021 16.09553383 -53.67193604 16.09336853 C-56.69798962 16.08777742 -59.72396883 16.07522652 -62.75 16.0625 C-64.80338435 16.05748385 -66.85676986 16.05292115 -68.91015625 16.04882812 C-73.94013276 16.03781089 -78.97005378 16.02055233 -84 16 C-84 15.67 -84 15.34 -84 15 C-82.99735107 14.98018066 -81.99470215 14.96036133 -80.96166992 14.93994141 C-77.1910975 14.86305094 -73.4208698 14.77447314 -69.65063477 14.68261719 C-68.02830888 14.64466804 -66.40590855 14.60976028 -64.78344727 14.578125 C-52.33512974 14.33245978 -40.9390437 13.0306773 -28.9375 9.5625 C-28.1645459 9.34223145 -27.3915918 9.12196289 -26.59521484 8.89501953 C-25.07794785 8.46146917 -23.56131273 8.02569953 -22.04541016 7.58740234 C-20.28795425 7.08269491 -18.52528928 6.59618898 -16.76171875 6.11328125 C-15.45654297 5.74783203 -15.45654297 5.74783203 -14.125 5.375 C-13.04605469 5.07722656 -13.04605469 5.07722656 -11.9453125 4.7734375 C-9.63574616 3.85517618 -7.9552598 2.5193998 -6 1 C-3.86604641 0.30960325 -2.23825902 0 0 0 Z " fill="#AD8A15" transform="translate(286,313)"/>
<path d="M0 0 C0.33 0 0.66 0 1 0 C1.4109848 3.66216809 1.72406473 7.32524293 2 11 C2.13728516 12.63775391 2.13728516 12.63775391 2.27734375 14.30859375 C2.61522696 21.30524842 1.88086069 25.60660629 -2.296875 31.29296875 C-4.08808084 33.08828286 -5.74776076 33.88801577 -8 35 C-8.72159424 36.64363134 -9.39351421 38.31050386 -10 40 C-12.87018441 41.43509221 -15.33543723 41.11158506 -18.5390625 41.09765625 C-19.84101563 41.09443359 -21.14296875 41.09121094 -22.484375 41.08789062 C-23.86458399 41.07953466 -25.24479232 41.07106971 -26.625 41.0625 C-28.01301926 41.05748501 -29.40104022 41.0529221 -30.7890625 41.04882812 C-34.19275132 41.03700976 -37.59635439 41.02053434 -41 41 C-41.66 42.32 -42.32 43.64 -43 45 C-42.505 42.03 -42.505 42.03 -42 39 C-32.1 39 -22.2 39 -12 39 C-12 36.69 -12 34.38 -12 32 C-10.906875 31.95875 -9.81375 31.9175 -8.6875 31.875 C-4.75003667 31.39434602 -4.75003667 31.39434602 -3.0625 27.9375 C-2.5365625 26.4834375 -2.5365625 26.4834375 -2 25 C-1.34 25 -0.68 25 0 25 C0 16.75 0 8.5 0 0 Z " fill="#36371B" transform="translate(350,200)"/>
<path d="M0 0 C3.63 0 7.26 0 11 0 C11.495 1.7015625 11.495 1.7015625 12 3.4375 C12.72187368 5.40493425 12.72187368 5.40493425 14 7 C16.79200866 7.969218 18.99397579 7.95072091 22 8 C22 8.99 22 9.98 22 11 C17.56356484 11.43494462 15.67136622 11.54001196 12.125 8.6875 C10 6 10 6 9 3 C4.43146259 2.60273588 1.59595538 3.04254499 -2.57397461 4.98193359 C-8.12465034 7.27272495 -12.99080912 7.57072554 -18.94140625 7.5390625 C-19.94912582 7.55085541 -20.9568454 7.56264832 -21.99510193 7.57479858 C-25.18439488 7.60979095 -28.37303155 7.61919965 -31.5625 7.625 C-34.75534102 7.64142433 -37.94789583 7.66362489 -41.14060974 7.69662476 C-43.11731105 7.71602231 -45.09414271 7.72561534 -47.07093811 7.72354126 C-52.36385042 7.76410537 -57.10068782 8.27560516 -62.21592712 9.66976929 C-64 10 -64 10 -66 9 C-59.43304977 6.0664611 -53.96049393 5.57221534 -46.81640625 5.59375 C-45.23399391 5.57749573 -45.23399391 5.57749573 -43.61961365 5.56091309 C-40.26717947 5.52682332 -36.91508424 5.51109568 -33.5625 5.5 C-29.14681305 5.48536272 -24.73187343 5.45156384 -20.31640625 5.40625 C-19.31613907 5.40927124 -18.31587189 5.41229248 -17.28529358 5.41540527 C-11.00225678 5.34884972 -5.82354249 4.37985138 0 2 C0 1.34 0 0.68 0 0 Z " fill="#B18E19" transform="translate(234,113)"/>
<path d="M0 0 C6.59110674 -0.37308151 12.87327009 0.38348793 19 3 C19.33 3.99 19.66 4.98 20 6 C21.918125 5.9690625 21.918125 5.9690625 23.875 5.9375 C27.75 5.875 27.75 5.875 30 7 C30 7.66 30 8.32 30 9 C31.98 9 33.96 9 36 9 C36 9.66 36 10.32 36 11 C37.65 11 39.3 11 41 11 C41 11.33 41 11.66 41 12 C38.69 12.33 36.38 12.66 34 13 C34 12.34 34 11.68 34 11 C33.06027344 11.061875 32.12054688 11.12375 31.15234375 11.1875 C26.02670706 11.1875 21.40246839 9.54711732 16.5625 8 C15.64017578 7.71382813 14.71785156 7.42765625 13.76757812 7.1328125 C11.50882178 6.43060845 9.25328753 5.71952111 7 5 C7 4.34 7 3.68 7 3 C4.69 2.67 2.38 2.34 0 2 C0 1.34 0 0.68 0 0 Z " fill="#21271E" transform="translate(140,288)"/>
<path d="M0 0 C0.99457718 0.00212242 0.99457718 0.00212242 2.00924683 0.00428772 C4.12860613 0.00988871 6.24786009 0.02244125 8.3671875 0.03515625 C9.80338389 0.04017113 11.23958194 0.04473406 12.67578125 0.04882812 C16.19795095 0.05985843 19.72005895 0.07712366 23.2421875 0.09765625 C24.67727971 2.96784066 24.35377256 5.43309348 24.33984375 8.63671875 C24.33662109 9.93867188 24.33339844 11.240625 24.33007812 12.58203125 C24.32172216 13.96224024 24.31325721 15.34244857 24.3046875 16.72265625 C24.29967251 18.11067551 24.2951096 19.49869647 24.29101562 20.88671875 C24.27919726 24.29040757 24.26272184 27.69401064 24.2421875 31.09765625 C23.2521875 31.42765625 22.2621875 31.75765625 21.2421875 32.09765625 C21.5721875 22.52765625 21.9021875 12.95765625 22.2421875 3.09765625 C12.0121875 3.09765625 1.7821875 3.09765625 -8.7578125 3.09765625 C-8.7578125 2.43765625 -8.7578125 1.77765625 -8.7578125 1.09765625 C-5.8358356 -0.3633322 -3.25887775 -0.01369276 0 0 Z " fill="#C49B17" transform="translate(182.7578125,133.90234375)"/>
<path d="M0 0 C0.99 0.33 1.98 0.66 3 1 C3.04946113 5.21751282 3.08574827 9.43487168 3.10986328 13.65258789 C3.119917 15.08718812 3.13356194 16.52176789 3.15087891 17.95629883 C3.17515549 20.01909438 3.18648919 22.08161885 3.1953125 24.14453125 C3.21102295 26.00621948 3.21102295 26.00621948 3.22705078 27.90551758 C3 31 3 31 1 34 C-1.40444946 34.36076355 -1.40444946 34.36076355 -4.45947266 34.34057617 C-5.60050446 34.34034958 -6.74153625 34.34012299 -7.91714478 34.33988953 C-9.77186905 34.31666374 -9.77186905 34.31666374 -11.6640625 34.29296875 C-12.92640717 34.28872391 -14.18875183 34.28447906 -15.48934937 34.28010559 C-18.84661351 34.26613137 -22.20326932 34.23917302 -25.56036377 34.20599365 C-28.98550148 34.17531352 -32.41070201 34.1616047 -35.8359375 34.14648438 C-42.5574605 34.11334641 -49.27869511 34.06309539 -56 34 C-56.66 32.68 -57.32 31.36 -58 30 C-56.515 30.99 -56.515 30.99 -55 32 C-52.55631026 32.32783829 -52.55631026 32.32783829 -49.79418945 32.31884766 C-48.73331619 32.33871735 -47.67244293 32.35858704 -46.579422 32.37905884 C-44.86368233 32.39638565 -44.86368233 32.39638565 -43.11328125 32.4140625 C-41.94113571 32.43342865 -40.76899017 32.4527948 -39.56132507 32.4727478 C-35.8117911 32.53260197 -32.06222652 32.57895283 -28.3125 32.625 C-25.77277295 32.66317436 -23.23305893 32.70222576 -20.69335938 32.7421875 C-14.46235503 32.83830835 -8.23127249 32.92333885 -2 33 C-2 32.34 -2 31.68 -2 31 C-1.34 30.67 -0.68 30.34 0 30 C0 20.1 0 10.2 0 0 Z " fill="#534C1C" transform="translate(206,135)"/>
<path d="M0 0 C8.57142857 -0.28571429 8.57142857 -0.28571429 12 2 C12 2.66 12 3.32 12 4 C12.94101563 4.13277344 13.88203125 4.26554687 14.8515625 4.40234375 C16.09679687 4.57894531 17.34203125 4.75554687 18.625 4.9375 C19.85476562 5.11152344 21.08453125 5.28554688 22.3515625 5.46484375 C24.49327354 5.77899194 26.63186843 6.12029996 28.75830078 6.52514648 C32.38442729 7.05631203 35.85086279 7.12962417 39.515625 7.1328125 C40.56118561 7.13424759 40.56118561 7.13424759 41.62786865 7.13571167 C43.09012951 7.13638817 44.55239346 7.13457112 46.01464844 7.13037109 C48.25722919 7.12498263 50.49961263 7.13035058 52.7421875 7.13671875 C54.16666711 7.13605851 55.59114659 7.13477847 57.015625 7.1328125 C58.30758789 7.13168457 59.59955078 7.13055664 60.93066406 7.12939453 C63.91439128 7.21328089 63.91439128 7.21328089 66 6 C68.71262116 5.7677354 71.40773126 5.58063765 74.125 5.4375 C74.87910156 5.39431641 75.63320312 5.35113281 76.41015625 5.30664062 C78.27321888 5.2005168 80.13658524 5.09974999 82 5 C75.86970911 11.13029089 62.34754972 9.30950943 54.19140625 9.32226562 C53.29566895 9.32009033 52.39993164 9.31791504 51.47705078 9.31567383 C48.76944339 9.31252263 46.06294114 9.33600856 43.35546875 9.36132812 C30.23326275 9.41003033 17.82449821 8.41018465 5.5625 3.3125 C4.49128906 2.87550781 3.42007813 2.43851562 2.31640625 1.98828125 C1.55199219 1.66214844 0.78757813 1.33601563 0 1 C0 0.67 0 0.34 0 0 Z " fill="#756219" transform="translate(168,319)"/>
<path d="M0 0 C0.74991211 0.0407666 1.49982422 0.0815332 2.27246094 0.12353516 C3.5225293 0.18831055 3.5225293 0.18831055 4.79785156 0.25439453 C5.69181641 0.30660156 6.58578125 0.35880859 7.50683594 0.41259766 C8.41111328 0.46222656 9.31539062 0.51185547 10.24707031 0.56298828 C30.54604138 1.70435391 30.54604138 1.70435391 35.25683594 3.03759766 C34.92683594 4.02759766 34.59683594 5.01759766 34.25683594 6.03759766 C33.59683594 5.70759766 32.93683594 5.37759766 32.25683594 5.03759766 C29.84844916 4.95119896 27.46949712 4.92192002 25.06152344 4.93994141 C24.3540799 4.94135635 23.64663635 4.9427713 22.91775513 4.94422913 C20.65573925 4.94983165 18.39382195 4.96238448 16.13183594 4.97509766 C14.59928528 4.98011234 13.06673308 4.9846753 11.53417969 4.98876953 C7.77502706 4.99980189 4.01594822 5.01706814 0.25683594 5.03759766 C0.25683594 5.69759766 0.25683594 6.35759766 0.25683594 7.03759766 C-2.38316406 7.69759766 -5.02316406 8.35759766 -7.74316406 9.03759766 C-7.41316406 8.04759766 -7.08316406 7.05759766 -6.74316406 6.03759766 C-4.76316406 5.70759766 -2.78316406 5.37759766 -0.74316406 5.03759766 C-0.74316406 4.37759766 -0.74316406 3.71759766 -0.74316406 3.03759766 C-1.40316406 2.37759766 -2.06316406 1.71759766 -2.74316406 1.03759766 C-1.74316406 0.03759766 -1.74316406 0.03759766 0 0 Z " fill="#091B25" transform="translate(173.7431640625,129.96240234375)"/>
<path d="M0 0 C-0.125 3.1875 -0.125 3.1875 -1 7 C-3.8125 9.5 -3.8125 9.5 -5.484375 10.703125 C-7.31260521 12.09111986 -7.31260521 12.09111986 -8.5625 15.25 C-11.54968657 21.15915073 -18.56542679 24.53663759 -24 28 C-24.33 27.34 -24.66 26.68 -25 26 C-23.87851562 25.22076172 -23.87851562 25.22076172 -22.734375 24.42578125 C-21.74953125 23.72839844 -20.7646875 23.03101563 -19.75 22.3125 C-18.77546875 21.62800781 -17.8009375 20.94351562 -16.796875 20.23828125 C-12.40477529 16.72337464 -9.64967184 13.68462857 -9 8 C-8.01 8 -7.02 8 -6 8 C-6 7.01 -6 6.02 -6 5 C-8.97 5.99 -11.94 6.98 -15 8 C-13 6 -13 6 -11 4 C-10.401875 3.2575 -9.80375 2.515 -9.1875 1.75 C-6.1265115 -0.6987908 -3.80447605 -0.292652 0 0 Z " fill="#524B1A" transform="translate(333,270)"/>
<path d="M0 0 C34.32 0 68.64 0 104 0 C104.99 1.98 104.99 1.98 106 4 C105.21337982 3.67657623 104.42675964 3.35315247 103.61630249 3.01992798 C99.0419696 1.72980081 94.8680645 1.69233493 90.13916016 1.68115234 C89.16292694 1.67110672 88.18669373 1.6610611 87.18087769 1.65071106 C83.96694506 1.61991895 80.75309559 1.60285481 77.5390625 1.5859375 C75.30560594 1.56722268 73.07215643 1.54764903 70.8387146 1.5272522 C64.96978919 1.47595832 59.10084088 1.43631778 53.23181152 1.39910889 C47.23911889 1.35905214 41.24652137 1.30796738 35.25390625 1.2578125 C23.502671 1.16108564 11.75138202 1.07667038 0 1 C0 0.67 0 0.34 0 0 Z " fill="#EEB514" transform="translate(167,242)"/>
<path d="M0 0 C4.29 0 8.58 0 13 0 C13 0.33 13 0.66 13 1 C12.24074219 1.00257813 11.48148438 1.00515625 10.69921875 1.0078125 C7.69697804 1.1246312 4.93066612 1.32838901 2 2 C0.05852742 4.71592342 0.05852742 4.71592342 -1 8 C-2.86160792 10.07682271 -4.67194602 11.38461561 -7 13 C-8.32 13 -9.64 13 -11 13 C-11 13.66 -11 14.32 -11 15 C-16.39254202 16.79751401 -21.32507891 16.70522993 -26.5625 14.5 C-27.366875 14.005 -28.17125 13.51 -29 13 C-26.42410408 11.71205204 -24.6832846 12.00620891 -21.8125 12.125 C-16.65544804 12.1723124 -13.48485798 11.52273261 -9 9 C-8.443125 8.4225 -7.88625 7.845 -7.3125 7.25 C-6.879375 6.8375 -6.44625 6.425 -6 6 C-3.8125 6.3125 -3.8125 6.3125 -2 7 C-2 5.35 -2 3.7 -2 2 C-1.34 2 -0.68 2 0 2 C0 1.34 0 0.68 0 0 Z " fill="#2A311F" transform="translate(155,239)"/>
<path d="M0 0 C2.77117304 0.14080555 5.54182641 0.28743118 8.3125 0.4375 C9.49102539 0.49647461 9.49102539 0.49647461 10.69335938 0.55664062 C11.8293457 0.61948242 11.8293457 0.61948242 12.98828125 0.68359375 C14.03302612 0.73858032 14.03302612 0.73858032 15.09887695 0.79467773 C17 1 17 1 20 2 C21.51834207 2.11400952 23.04089591 2.17612677 24.56323242 2.20532227 C25.94432442 2.2352401 25.94432442 2.2352401 27.35331726 2.26576233 C28.34402725 2.28247482 29.33473724 2.29918732 30.35546875 2.31640625 C31.88062859 2.3475779 31.88062859 2.3475779 33.43659973 2.37937927 C36.68683063 2.44480048 39.93714277 2.50372537 43.1875 2.5625 C45.38998238 2.60569227 47.59245653 2.64930679 49.79492188 2.69335938 C55.19652853 2.80047427 60.59821612 2.90225457 66 3 C66 3.33 66 3.66 66 4 C59.29161557 5.0090831 52.71630899 5.19254413 45.9375 5.1875 C44.80513916 5.18669434 43.67277832 5.18588867 42.50610352 5.18505859 C34.78589768 5.1302253 27.12917955 4.7868201 19.4375 4.125 C18.51767334 4.04660889 17.59784668 3.96821777 16.65014648 3.88745117 C10.96633721 3.34212755 5.5503692 2.34110444 0 1 C0 0.67 0 0.34 0 0 Z " fill="#BF961A" transform="translate(176,298)"/>
<path d="M0 0 C12.45657461 -0.88975533 23.88860609 3.1636059 35 8.375 C35.77649902 8.73779053 36.55299805 9.10058105 37.35302734 9.47436523 C42.70864206 12.09462247 47.35322887 15.27277043 52 19 C51.01 19.33 50.02 19.66 49 20 C47.57533095 18.77412198 46.15400982 17.54378095 44.76171875 16.28125 C41.7608986 14.09883535 38.60901109 13.68446762 35 13 C35 12.01 35 11.02 35 10 C33.43840941 9.51787786 31.87568072 9.03944127 30.3125 8.5625 C29.44238281 8.29566406 28.57226562 8.02882813 27.67578125 7.75390625 C25.12974079 7.03655471 22.5996577 6.482459 20 6 C20 5.34 20 4.68 20 4 C19.09121094 4.05220703 19.09121094 4.05220703 18.1640625 4.10546875 C11.57816697 4.31824384 6.18882796 3.2121768 0 1 C0 0.67 0 0.34 0 0 Z " fill="#EAB831" transform="translate(347,7)"/>
<path d="M0 0 C2.36790504 1.12163923 3.75607465 2.08004166 5.375 4.125 C5.375 4.785 5.375 5.445 5.375 6.125 C0.375 4.45833333 -4.625 2.79166667 -9.625 1.125 C-8.63662639 8.86725995 -3.46810405 12.42867338 2.375 17.125 C3.14070313 17.66640625 3.90640625 18.2078125 4.6953125 18.765625 C5.24960938 19.21421875 5.80390625 19.6628125 6.375 20.125 C6.375 20.785 6.375 21.445 6.375 22.125 C3.5625 22 3.5625 22 0.375 21.125 C-0.625 19.125 -1.625 17.125 -2.625 15.125 C-4.5611615 13.88743651 -4.5611615 13.88743651 -6.75 12.8125 C-9.30995945 11.36248607 -10.40382615 10.67793464 -11.5078125 7.91796875 C-11.87326735 5.51140967 -11.98593686 3.53124573 -11.625 1.125 C-8.20812355 -3.34322305 -4.67407372 -1.55802457 0 0 Z " fill="#C29A14" transform="translate(115.625,269.875)"/>
<path d="M0 0 C0.99417761 3.19030582 0.96764158 5.64506481 0.5703125 8.94921875 C-0.08075025 15.24945462 -0.14780841 21.48316659 -0.125 27.8125 C-0.12886719 28.90498047 -0.13273437 29.99746094 -0.13671875 31.12304688 C-0.13542969 32.18201172 -0.13414063 33.24097656 -0.1328125 34.33203125 C-0.13168457 35.27796143 -0.13055664 36.2238916 -0.12939453 37.19848633 C0.0090812 40.19661648 0.45202951 43.05146166 1 46 C-1.95074952 43.67126877 -2.92326874 42.51560322 -3.48583984 38.73535156 C-3.47762207 37.4665918 -3.4694043 36.19783203 -3.4609375 34.890625 C-3.46002106 34.20498474 -3.45910461 33.51934448 -3.4581604 32.81292725 C-3.45213052 31.36382111 -3.43640248 29.91472709 -3.41162109 28.46582031 C-3.37534716 26.27100551 -3.37060047 24.07789449 -3.37109375 21.8828125 C-3.29302681 6.58605362 -3.29302681 6.58605362 0 0 Z " fill="#3F3E1A" transform="translate(89,188)"/>
<path d="M0 0 C1.98 0 3.96 0 6 0 C3.58749553 1.60833632 1.43119979 2.81347408 -1.1875 4 C-1.90292969 4.33 -2.61835938 4.66 -3.35546875 5 C-6.83085873 6.31417996 -10.39351847 7.13838043 -14 8 C-15.38095182 8.35388209 -16.76117018 8.7106392 -18.140625 9.0703125 C-19.51041667 9.421875 -20.88020833 9.7734375 -22.25 10.125 C-22.94351562 10.30675781 -23.63703125 10.48851562 -24.3515625 10.67578125 C-27.71621478 11.53305856 -30.49963583 12 -34 12 C-34 11.34 -34 10.68 -34 10 C-31.96040523 9.49161436 -29.91820862 8.99366114 -27.875 8.5 C-26.73804688 8.2215625 -25.60109375 7.943125 -24.4296875 7.65625 C-21.18533302 7.03546235 -18.29185543 6.87993232 -15 7 C-15 6.34 -15 5.68 -15 5 C-13.329375 4.5359375 -13.329375 4.5359375 -11.625 4.0625 C-8.2054845 3.17673517 -8.2054845 3.17673517 -6 2 C-4.00039988 1.960008 -1.99952758 1.95653201 0 2 C0 1.34 0 0.68 0 0 Z " fill="#BE961B" transform="translate(290,287)"/>
<path d="M0 0 C2.64 0.66 5.28 1.32 8 2 C8 2.66 8 3.32 8 4 C8.639375 4.2475 9.27875 4.495 9.9375 4.75 C12 6 12 6 12.75 8.125 C12.87375 9.053125 12.87375 9.053125 13 10 C11.02 10.33 9.04 10.66 7 11 C7.34444881 13.47266765 7.34444881 13.47266765 8 16 C8.66 16.33 9.32 16.66 10 17 C10 18.32 10 19.64 10 21 C10.66 21 11.32 21 12 21 C12.66 23.31 13.32 25.62 14 28 C13.01 27.34 12.02 26.68 11 26 C11 24.68 11 23.36 11 22 C10.34 22 9.68 22 9 22 C7.7109375 20.390625 7.7109375 20.390625 6.375 18.25 C5.92898438 17.55390625 5.48296875 16.8578125 5.0234375 16.140625 C4 14 4 14 4 10 C6.31 9.34 8.62 8.68 11 8 C8.36 6.68 5.72 5.36 3 4 C3 3.34 3 2.68 3 2 C2.01 1.67 1.02 1.34 0 1 C0 0.67 0 0.34 0 0 Z " fill="#A2801C" transform="translate(256,124)"/>
<path d="M0 0 C2.64 0.33 5.28 0.66 8 1 C8 1.66 8 2.32 8 3 C8.75796875 3.2371875 9.5159375 3.474375 10.296875 3.71875 C13.46300355 5.21945833 14.4297344 6.54925365 16.25 9.5 C16.75015625 10.2940625 17.2503125 11.088125 17.765625 11.90625 C19.85877479 15.45665598 20.11064578 17.48446293 20.0625 21.625 C20.05347656 22.62789062 20.04445313 23.63078125 20.03515625 24.6640625 C20.02355469 25.43492187 20.01195312 26.20578125 20 27 C19.67 27 19.34 27 19 27 C18.96261719 26.40832031 18.92523438 25.81664062 18.88671875 25.20703125 C18.48945103 20.43202901 18.04332 16.8954496 15 13 C14.34 12.67 13.68 12.34 13 12 C12.375 9.4375 12.375 9.4375 12 7 C11.01 6.67 10.02 6.34 9 6 C9 5.34 9 4.68 9 4 C6.36 3.67 3.72 3.34 1 3 C0.67 2.01 0.34 1.02 0 0 Z " fill="#4F481A" transform="translate(330,172)"/>
<path d="M0 0 C6.64692597 0.3625596 11.52470684 2.15411575 17 6 C17.33 6.66 17.66 7.32 18 8 C17.15695313 7.84402344 16.31390625 7.68804687 15.4453125 7.52734375 C14.34960938 7.33269531 13.25390625 7.13804687 12.125 6.9375 C10.48917969 6.64166016 10.48917969 6.64166016 8.8203125 6.33984375 C6.05346717 5.74368101 6.05346717 5.74368101 4 7 C3.67 7.66 3.34 8.32 3 9 C1.5 7.875 1.5 7.875 0 6 C-0.1875 2.8125 -0.1875 2.8125 0 0 Z " fill="#2B3225" transform="translate(106,271)"/>
<path d="M0 0 C-6.0235657 4.82135716 -12.0355324 8.77628739 -19 12.0625 C-19.64654541 12.37324463 -20.29309082 12.68398926 -20.95922852 13.00415039 C-25.62151296 15.12616235 -25.62151296 15.12616235 -29 14 C-28.34 14 -27.68 14 -27 14 C-26.67 13.01 -26.34 12.02 -26 11 C-25.030625 10.87625 -24.06125 10.7525 -23.0625 10.625 C-22.051875 10.41875 -21.04125 10.2125 -20 10 C-19.67 9.34 -19.34 8.68 -19 8 C-16.67843403 7.59270772 -14.3431213 7.25561323 -12 7 C-12 5.68 -12 4.36 -12 3 C-9.525 3.495 -9.525 3.495 -7 4 C-7 2.68 -7 1.36 -7 0 C-3.98968256 -0.93423645 -3.13349732 -1.04449911 0 0 Z " fill="#EDB729" transform="translate(400,413)"/>
<path d="M0 0 C10.89 0 21.78 0 33 0 C29.41577704 2.38948197 27.62767404 2.30233168 23.36328125 2.4140625 C22.06455078 2.45273437 20.76582031 2.49140625 19.42773438 2.53125 C18.05599427 2.56270517 16.68424939 2.59395251 15.3125 2.625 C13.92901215 2.66319197 12.54554777 2.70224442 11.16210938 2.7421875 C7.7748755 2.83660517 4.38764931 2.92218118 1 3 C0.67 2.01 0.34 1.02 0 0 Z " fill="#EBB413" transform="translate(203,329)"/>
<path d="M0 0 C-4.85980368 3.90897253 -8.88063097 5.81211053 -14.9609375 7.2265625 C-15.63382812 7.48179687 -16.30671875 7.73703125 -17 8 C-17.33 8.99 -17.66 9.98 -18 11 C-20.50390625 11.94921875 -20.50390625 11.94921875 -23.5625 12.6875 C-25.08037109 13.06455078 -25.08037109 13.06455078 -26.62890625 13.44921875 C-27.41136719 13.63097656 -28.19382812 13.81273437 -29 14 C-29 13.01 -29 12.02 -29 11 C-27.01432292 10.51171875 -25.02864583 10.0234375 -23.04296875 9.53515625 C-21.34316798 9.08989295 -19.66698046 8.55566015 -18 8 C-18 7.34 -18 6.68 -18 6 C-17.01 6 -16.02 6 -15 6 C-15 5.34 -15 4.68 -15 4 C-14.195625 3.87625 -13.39125 3.7525 -12.5625 3.625 C-11.716875 3.41875 -10.87125 3.2125 -10 3 C-9.67 2.34 -9.34 1.68 -9 1 C-2.49462366 -1.24731183 -2.49462366 -1.24731183 0 0 Z " fill="#C69917" transform="translate(325,273)"/>
<path d="M0 0 C4.45859862 0.13835803 8.91679786 0.28694579 13.375 0.4375 C14.64601563 0.47681641 15.91703125 0.51613281 17.2265625 0.55664062 C18.43828125 0.59853516 19.65 0.64042969 20.8984375 0.68359375 C22.01911621 0.72025146 23.13979492 0.75690918 24.29443359 0.79467773 C27 1 27 1 29 2 C29 3.98 29 5.96 29 8 C28.34 8 27.68 8 27 8 C26.67 6.68 26.34 5.36 26 4 C17.75 3.67 9.5 3.34 1 3 C0.67 2.01 0.34 1.02 0 0 Z " fill="#5D5318" transform="translate(90,234)"/>
<path d="M0 0 C18.315 2.475 18.315 2.475 37 5 C37 5.33 37 5.66 37 6 C30.03503496 6.10994346 23.18540921 5.824835 16.25 5.1875 C15.34378906 5.11724609 14.43757813 5.04699219 13.50390625 4.97460938 C8.36888159 4.50608523 4.50569465 3.72281217 0 1 C0 0.67 0 0.34 0 0 Z " fill="#554D18" transform="translate(293,166)"/>
<path d="M0 0 C4.04142215 -0.11662261 8.08240865 -0.1873935 12.125 -0.25 C13.26710937 -0.28351563 14.40921875 -0.31703125 15.5859375 -0.3515625 C22.02069996 -0.42638532 26.12683384 -0.40492599 31 4 C30.01 4.33 29.02 4.66 28 5 C28 4.34 28 3.68 28 3 C18.76 3 9.52 3 0 3 C0 2.01 0 1.02 0 0 Z " fill="#C89F1C" transform="translate(219,135)"/>
<path d="M0 0 C0.66 0.33 1.32 0.66 2 1 C1.38125 1.556875 0.7625 2.11375 0.125 2.6875 C-2.06106379 5.06645178 -2.98785699 6.96357096 -4 10 C-4.66 10 -5.32 10 -6 10 C-6 11.32 -6 12.64 -6 14 C-6.886875 14.33 -7.77375 14.66 -8.6875 15 C-12.54043384 17.32629968 -13.8280256 19.48184736 -15.921875 23.35546875 C-16.27765625 23.89816406 -16.6334375 24.44085938 -17 25 C-17.66 25 -18.32 25 -19 25 C-17.59983383 20.95264468 -15.6818763 18.01519578 -13 14.6875 C-12.29875 13.80449219 -11.5975 12.92148438 -10.875 12.01171875 C-10.25625 11.34785156 -9.6375 10.68398437 -9 10 C-8.34 10 -7.68 10 -7 10 C-6.773125 9.278125 -6.54625 8.55625 -6.3125 7.8125 C-4.75168987 4.46790687 -2.6968713 2.48396041 0 0 Z " fill="#61531C" transform="translate(147,134)"/>
<path d="M0 0 C3.63 0 7.26 0 11 0 C11.33 1.134375 11.66 2.26875 12 3.4375 C12.72187368 5.40493425 12.72187368 5.40493425 14 7 C16.79200866 7.969218 18.99397579 7.95072091 22 8 C22 8.99 22 9.98 22 11 C17.56356484 11.43494462 15.67136622 11.54001196 12.125 8.6875 C10 6 10 6 9 3 C6.03 3 3.06 3 0 3 C0 2.01 0 1.02 0 0 Z " fill="#AB8B18" transform="translate(234,113)"/>
<path d="M0 0 C-4.82677903 4.82677903 -13.99888987 4.13096497 -20.41796875 4.1953125 C-23.00788535 4.182199 -25.59776837 4.15861609 -28.1875 4.125 C-29.53449847 4.1149393 -30.88150431 4.10581897 -32.22851562 4.09765625 C-35.48587021 4.07430604 -38.74283549 4.0415577 -42 4 C-42 3.67 -42 3.34 -42 3 C-41.28344238 2.97494385 -40.56688477 2.9498877 -39.82861328 2.92407227 C-36.59388486 2.80830249 -33.35946159 2.68549031 -30.125 2.5625 C-28.99707031 2.52318359 -27.86914062 2.48386719 -26.70703125 2.44335938 C-25.63066406 2.40146484 -24.55429688 2.35957031 -23.4453125 2.31640625 C-21.95281982 2.26141968 -21.95281982 2.26141968 -20.43017578 2.20532227 C-17.99220499 2.15040468 -17.99220499 2.15040468 -16 1 C-14.23422528 0.76968156 -12.46179635 0.58875936 -10.6875 0.4375 C-9.74261719 0.35371094 -8.79773438 0.26992188 -7.82421875 0.18359375 C-5.20564723 0.01336849 -2.62304081 -0.03344496 0 0 Z " fill="#3E3D1C" transform="translate(250,324)"/>
<path d="M0 0 C0 0.66 0 1.32 0 2 C-6.37339317 5.44050428 -12.71076828 8.05277384 -19.62890625 10.203125 C-21.92862706 10.78029247 -21.92862706 10.78029247 -23 12 C-24.66617115 12.04063832 -26.33388095 12.042721 -28 12 C-26.29453566 9.05912863 -25.3781974 8.11714526 -22.07421875 7.09375 C-20.95660156 6.8978125 -19.83898437 6.701875 -18.6875 6.5 C-13.41248775 5.4332753 -10.21490375 4.24223365 -6 1 C-3.81415715 0.27138572 -2.2889001 0 0 0 Z " fill="#CC9F17" transform="translate(286,313)"/>
<path d="M0 0 C3.88433735 3.50843373 3.88433735 3.50843373 4.5 6.125 C4.81507419 8.1398677 4.81507419 8.1398677 6.6484375 9.08984375 C10.43992106 10.55731164 14.2926167 10.40595491 18.3203125 10.55859375 C19.20460938 10.70425781 20.08890625 10.84992188 21 11 C21.99 12.485 21.99 12.485 23 14 C8.54276405 13.37795276 8.54276405 13.37795276 4 10 C1.00115659 6.2909042 0 4.8295217 0 0 Z " fill="#7A6619" transform="translate(270,152)"/>
<path d="M0 0 C10.23 0 20.46 0 31 0 C31 0.33 31 0.66 31 1 C21.1 1.33 11.2 1.66 1 2 C1 2.66 1 3.32 1 4 C-1.64 4.66 -4.28 5.32 -7 6 C-6.67 5.01 -6.34 4.02 -6 3 C-4.02 2.67 -2.04 2.34 0 2 C0 1.34 0 0.68 0 0 Z " fill="#39391C" transform="translate(173,133)"/>
<path d="M0 0 C0.66 0 1.32 0 2 0 C2 0.66 2 1.32 2 2 C2.99 2.33 3.98 2.66 5 3 C5.79706768 6.49992696 6.11863027 9.7142231 6.09765625 13.30078125 C6.09443359 14.27724609 6.09121094 15.25371094 6.08789062 16.25976562 C6.07951172 17.26716797 6.07113281 18.27457031 6.0625 19.3125 C6.05798828 20.33923828 6.05347656 21.36597656 6.04882812 22.42382812 C6.03708184 24.94927882 6.02065565 27.47460905 6 30 C5.67 30 5.34 30 5 30 C4.95512451 29.33991943 4.91024902 28.67983887 4.86401367 27.99975586 C4.65129242 24.97794848 4.41955594 21.95788163 4.1875 18.9375 C4.11724609 17.89916016 4.04699219 16.86082031 3.97460938 15.79101562 C3.50708535 9.90021289 2.72495931 5.26327757 0 0 Z " fill="#CEA01B" transform="translate(346,181)"/>
<path d="M0 0 C-0.78503906 0.29132813 -1.57007812 0.58265625 -2.37890625 0.8828125 C-9.00366802 3.46768887 -13.9083419 6.0240614 -19 11 C-19.33 10.34 -19.66 9.68 -20 9 C-19.01 8.34 -18.02 7.68 -17 7 C-16.27617533 4.94074861 -16.27617533 4.94074861 -16 3 C-15.01 3 -14.02 3 -13 3 C-13 2.34 -13 1.68 -13 1 C-11.58622218 0.63447197 -10.16879424 0.28304505 -8.75 -0.0625 C-7.96109375 -0.25972656 -7.1721875 -0.45695313 -6.359375 -0.66015625 C-3.89605178 -1.01497267 -2.34395868 -0.76877544 0 0 Z " fill="#B08D17" transform="translate(114,170)"/>
<path d="M0 0 C0.66 0.33 1.32 0.66 2 1 C1.67 1.66 1.34 2.32 1 3 C1.66 3 2.32 3 3 3 C2.34 4.32 1.68 5.64 1 7 C-0.65 6.67 -2.3 6.34 -4 6 C-4 7.32 -4 8.64 -4 10 C-5.65 10.66 -7.3 11.32 -9 12 C-7.54718935 6.67302761 -3.91888622 3.63597198 0 0 Z " fill="#162521" transform="translate(152,131)"/>
<path d="M0 0 C3.26008643 3.16952847 6.22237877 6.39937989 9 10 C8.67 10.66 8.34 11.32 8 12 C4.625 11.3125 4.625 11.3125 1 10 C-0.88746148 7.09016356 -1.08221595 5.61661964 -0.625 2.1875 C-0.41875 1.465625 -0.2125 0.74375 0 0 Z " fill="#F3B917" transform="translate(409,36)"/>
<path d="M0 0 C0.55429687 0.42152344 1.10859375 0.84304687 1.6796875 1.27734375 C2.40414063 1.82519531 3.12859375 2.37304688 3.875 2.9375 C4.59429687 3.48277344 5.31359375 4.02804688 6.0546875 4.58984375 C10.1082159 7.52824486 13.79015271 7.11351706 18.625 7.0625 C19.82769531 7.05573242 19.82769531 7.05573242 21.0546875 7.04882812 C23.03649006 7.03703168 25.01825433 7.01909605 27 7 C24.2366266 9.7633734 22.34452557 9.28850252 18.57226562 9.32226562 C17.32993164 9.31743164 17.32993164 9.31743164 16.0625 9.3125 C15.23814453 9.32861328 14.41378906 9.34472656 13.56445312 9.36132812 C12.77103516 9.36197266 11.97761719 9.36261719 11.16015625 9.36328125 C10.43449463 9.36626221 9.70883301 9.36924316 8.96118164 9.37231445 C6.47441814 8.90022254 5.70609767 7.80431588 4 6 C1.37429296 5.74930087 1.37429296 5.74930087 -1 6 C-0.67 4.02 -0.34 2.04 0 0 Z " fill="#CDA014" transform="translate(273,246)"/>
<path d="M0 0 C3.73487777 0.4979837 5.81237635 0.87491756 9 3 C10.03125 3.309375 11.0625 3.61875 12.125 3.9375 C13.07375 4.288125 14.0225 4.63875 15 5 C15.33 5.99 15.66 6.98 16 8 C9.74040306 6.92692624 5.16372854 4.72268802 0 1 C0 0.67 0 0.34 0 0 Z " fill="#B8911A" transform="translate(128,280)"/>
<path d="M0 0 C0.66 0.33 1.32 0.66 2 1 C-5.11389522 9.6309795 -5.11389522 9.6309795 -10 12 C-9.67 11.01 -9.34 10.02 -9 9 C-8.34 9 -7.68 9 -7 9 C-7 7.35 -7 5.7 -7 4 C-5.125 2.9375 -5.125 2.9375 -3 2 C-2.34 2.33 -1.68 2.66 -1 3 C-0.67 2.01 -0.34 1.02 0 0 Z " fill="#EDBA27" transform="translate(410,400)"/>
<path d="M0 0 C2.68826864 0.11490912 5.37513469 0.24163199 8.0625 0.375 C8.81466797 0.4059375 9.56683594 0.436875 10.34179688 0.46875 C15.18961281 0.72058459 19.38308043 1.49168365 24 3 C24 3.33 24 3.66 24 4 C18.26861756 4.15490223 13.10650794 3.65244885 7.5 2.5 C6.77296875 2.35691406 6.0459375 2.21382813 5.296875 2.06640625 C3.52990929 1.71766302 1.76474691 1.35980277 0 1 C0 0.67 0 0.34 0 0 Z " fill="#AB8819" transform="translate(176,298)"/>
<path d="M0 0 C0.99 0.33 1.98 0.66 3 1 C3 1.66 3 2.32 3 3 C4.32 3 5.64 3 7 3 C7.061875 3.721875 7.12375 4.44375 7.1875 5.1875 C8.24456647 8.84657625 10.20550071 10.49211602 13 13 C12.67 13.99 12.34 14.98 12 16 C10.56041153 14.41856529 9.12341355 12.83477221 7.6875 11.25 C6.88699219 10.36828125 6.08648437 9.4865625 5.26171875 8.578125 C0 2.58031088 0 2.58031088 0 0 Z " fill="#EBB82B" transform="translate(22,392)"/>
<path d="M0 0 C0.33 0.66 0.66 1.32 1 2 C1.99 2 2.98 2 4 2 C2.44811689 5.491737 0.74866528 8.32366802 -2 11 C-4.73114658 11.72202726 -7.15143615 11.85757181 -10 12 C-9.34 11.67 -8.68 11.34 -8 11 C-8 10.34 -8 9.68 -8 9 C-6.02 8.67 -4.04 8.34 -2 8 C-1.34 5.36 -0.68 2.72 0 0 Z " fill="#B89517" transform="translate(124,157)"/>
<path d="M0 0 C4.93446488 0.43539396 7.47991362 2.63296086 11 6 C12.875 8.8125 12.875 8.8125 14 11 C10.50004453 9.43810398 7.72827143 7.33666309 4.75 4.9375 C3.85796875 4.22464844 2.9659375 3.51179688 2.046875 2.77734375 C1.37140625 2.19082031 0.6959375 1.60429687 0 1 C0 0.67 0 0.34 0 0 Z " fill="#4C4619" transform="translate(122,292)"/>
<path d="M0 0 C2.31 0 4.62 0 7 0 C6.63076923 6.4 6.63076923 6.4 3.4375 9.4375 C2.2309375 10.2109375 2.2309375 10.2109375 1 11 C1.99 8.03 2.98 5.06 4 2 C2.35 2 0.7 2 -1 2 C-0.67 1.34 -0.34 0.68 0 0 Z " fill="#6A5916" transform="translate(326,270)"/>
<path d="M0 0 C-0.99 0.33 -1.98 0.66 -3 1 C-3.45375 1.474375 -3.9075 1.94875 -4.375 2.4375 C-7.5892954 5.52816865 -11.71519548 6.26546208 -16 7 C-13.83366982 3.75050472 -12.53835071 2.97186831 -9.125 1.25 C-8.26132813 0.80140625 -7.39765625 0.3528125 -6.5078125 -0.109375 C-3.78395707 -1.07672553 -2.65602626 -1.01299606 0 0 Z " fill="#38361B" transform="translate(170,124)"/>
<path d="M0 0 C2.00401011 0.30830925 4.00291344 0.64963394 6 1 C6.78117188 1.1340625 7.56234375 1.268125 8.3671875 1.40625 C9.57761719 1.63828125 9.57761719 1.63828125 10.8125 1.875 C11.58207031 2.01679688 12.35164062 2.15859375 13.14453125 2.3046875 C13.75683594 2.53414063 14.36914062 2.76359375 15 3 C15.33 3.99 15.66 4.98 16 6 C9.93861976 5.13408854 4.7553357 4.0237456 0 0 Z " fill="#A18219" transform="translate(144,288)"/>
<path d="M0 0 C0.67095703 0.58007812 0.67095703 0.58007812 1.35546875 1.171875 C1.96003906 1.69265625 2.56460938 2.2134375 3.1875 2.75 C3.82171875 3.2965625 4.4559375 3.843125 5.109375 4.40625 C6.68220486 5.73210658 8.30440766 6.99912076 9.9375 8.25 C10.618125 8.8275 11.29875 9.405 12 10 C12 10.66 12 11.32 12 12 C9.1875 11.875 9.1875 11.875 6 11 C4.3125 8.125 4.3125 8.125 3 5 C2.01834406 3.98198643 1.02408568 2.9753197 0 2 C0 1.34 0 0.68 0 0 Z " fill="#997A16" transform="translate(110,280)"/>
<path d="M0 0 C-0.58007812 0.25394531 -1.16015625 0.50789062 -1.7578125 0.76953125 C-2.53898437 1.11371094 -3.32015625 1.45789063 -4.125 1.8125 C-4.94613281 2.1734375 -5.76726562 2.534375 -6.61328125 2.90625 C-8.55189731 3.79465016 -10.4417525 4.78888345 -12.3125 5.8125 C-15.30759032 7.135912 -16.0129773 6.93623099 -19 6 C-16.58967749 4.79783666 -14.17316521 3.61325022 -11.75 2.4375 C-11.06808594 2.09525391 -10.38617188 1.75300781 -9.68359375 1.40039062 C-5.97831091 -0.38030356 -3.92128522 -1.3058334 0 0 Z " fill="#EABA37" transform="translate(72,12)"/>
<path d="M0 0 C4.56395988 1.27366322 7.36559917 3.01792753 11 6 C13.6794645 7.24016669 13.6794645 7.24016669 16 8 C13.30234372 9.34882814 11.84835666 8.80338265 9 8 C8.67 7.34 8.34 6.68 8 6 C5.6859378 5.26924352 3.35171131 4.59861742 1 4 C0.67 2.68 0.34 1.36 0 0 Z " fill="#34371A" transform="translate(124,279)"/>
<path d="M0 0 C2.48262432 2.48262432 3.07286975 4.61775287 4.1875 7.9375 C4.55230469 8.99839844 4.91710937 10.05929688 5.29296875 11.15234375 C6 14 6 14 5 17 C4.01 14.36 3.02 11.72 2 9 C1.01 9 0.02 9 -1 9 C-0.67 6.03 -0.34 3.06 0 0 Z " fill="#EEBA2D" transform="translate(425,61)"/>
<path d="M0 0 C1.32 0 2.64 0 4 0 C4 0.66 4 1.32 4 2 C5.98 2 7.96 2 10 2 C11 5 11 5 11 8 C6.99698968 6.23867546 3.3971023 3.73867517 0 1 C0 0.67 0 0.34 0 0 Z " fill="#EFB820" transform="translate(37,410)"/>
<path d="M0 0 C4.32353795 0.46740951 8.43711936 1.70658154 11.8125 4.5 C13 6 13 6 13 8 C7.35424354 6.36900369 7.35424354 6.36900369 5.5 4.4375 C3.27674907 2.30688452 0.98041933 2.3311577 -2 2 C-1.34 1.34 -0.68 0.68 0 0 Z " fill="#DAAB11" transform="translate(108,268)"/>
<path d="M0 0 C5.94 0.66 11.88 1.32 18 2 C13.95878094 4.69414604 10.74629425 4.5569631 6 4 C2.4375 2.5 2.4375 2.5 0 1 C0 0.67 0 0.34 0 0 Z " fill="#7E6A19" transform="translate(126,251)"/>
<path d="M0 0 C0.99 0.33 1.98 0.66 3 1 C2.67 2.32 2.34 3.64 2 5 C2.99 5.33 3.98 5.66 5 6 C5 6.66 5 7.32 5 8 C1.08788267 6.84414715 -1.8745041 5.64465038 -5 3 C-3.35 3 -1.7 3 0 3 C0 2.01 0 1.02 0 0 Z " fill="#F1B91D" transform="translate(58,418)"/>
<path d="M0 0 C3.63 0 7.26 0 11 0 C11.33 2.31 11.66 4.62 12 7 C10 6 10 6 9 3 C6.03 3 3.06 3 0 3 C0 2.01 0 1.02 0 0 Z " fill="#5E4E13" transform="translate(234,113)"/>
<path d="M0 0 C1.41655793 -0.0272415 2.83327045 -0.04650467 4.25 -0.0625 C5.43335938 -0.07990234 5.43335938 -0.07990234 6.640625 -0.09765625 C8.96285143 -0.00153761 10.8300721 0.15987305 13 1 C13.33 1.99 13.66 2.98 14 4 C9.03083364 3.48594831 4.70973649 2.76615118 0 1 C0 0.67 0 0.34 0 0 Z " fill="#F1B62B" transform="translate(347,7)"/>
<path d="M0 0 C0.99 0 1.98 0 3 0 C3.20496094 0.62648437 3.40992188 1.25296875 3.62109375 1.8984375 C3.89050781 2.71570313 4.15992188 3.53296875 4.4375 4.375 C4.83775391 5.59316406 4.83775391 5.59316406 5.24609375 6.8359375 C5.95179729 9.01031799 5.95179729 9.01031799 7 11 C4.13496932 9.7156759 1.84572295 8.58401213 0 6 C-0.1875 2.8125 -0.1875 2.8125 0 0 Z " fill="#2D321F" transform="translate(273,240)"/>
<path d="M0 0 C-2.61071299 2.06681445 -5.33837839 3.93109607 -8.125 5.75 C-8.80820313 6.19859375 -9.49140625 6.6471875 -10.1953125 7.109375 C-11.08863281 7.55023438 -11.08863281 7.55023438 -12 8 C-12.66 7.67 -13.32 7.34 -14 7 C-10.07546495 1.4765803 -6.79267819 -0.38815304 0 0 Z " fill="#C59F19" transform="translate(166,123)"/>
<path d="M0 0 C0.66 0.33 1.32 0.66 2 1 C1.071875 2.1446875 1.071875 2.1446875 0.125 3.3125 C-2.05597052 5.99625809 -2.05597052 5.99625809 -4 9 C-4.66 8.34 -5.32 7.68 -6 7 C-8.06874034 6.3574765 -8.06874034 6.3574765 -10 6 C-9.36191406 5.65066406 -8.72382813 5.30132812 -8.06640625 4.94140625 C-7.24011719 4.48636719 -6.41382813 4.03132813 -5.5625 3.5625 C-4.73878906 3.11003906 -3.91507812 2.65757812 -3.06640625 2.19140625 C-1.07691202 1.16337603 -1.07691202 1.16337603 0 0 Z " fill="#D9A814" transform="translate(304,301)"/>
<path d="M0 0 C6.15234375 0.5859375 6.15234375 0.5859375 8 1 C8.33 1.66 8.66 2.32 9 3 C6.69 2.67 4.38 2.34 2 2 C2.66 4.31 3.32 6.62 4 9 C2 7.875 2 7.875 0 6 C-0.25 2.8125 -0.25 2.8125 0 0 Z " fill="#453E14" transform="translate(106,271)"/>
<path d="M0 0 C0.66 0.33 1.32 0.66 2 1 C1.44570312 1.67546875 0.89140625 2.3509375 0.3203125 3.046875 C-0.40414062 3.93890625 -1.12859375 4.8309375 -1.875 5.75 C-2.59429687 6.63171875 -3.31359375 7.5134375 -4.0546875 8.421875 C-5.68442588 10.58176924 -6.90784005 12.539766 -8 15 C-8.66 15 -9.32 15 -10 15 C-8.59601721 10.89889238 -6.62912962 8.01910841 -3.875 4.6875 C-3.15054688 3.80449219 -2.42609375 2.92148438 -1.6796875 2.01171875 C-1.12539062 1.34785156 -0.57109375 0.68398437 0 0 Z " fill="#8D7518" transform="translate(138,144)"/>
<path d="M0 0 C3.3125 0.1875 3.3125 0.1875 7 1 C8.6875 3.4375 8.6875 3.4375 10 6 C12.06700655 7.32793606 12.06700655 7.32793606 14 8 C12.375 8.8125 12.375 8.8125 10 9 C6.31679852 6.31433225 3.16252673 3.28416237 0 0 Z " fill="#424119" transform="translate(138,303)"/>
<path d="M0 0 C7.75 -0.125 7.75 -0.125 10 1 C10 1.66 10 2.32 10 3 C11.98 3 13.96 3 16 3 C16 3.33 16 3.66 16 4 C9.79029227 4.33266291 5.71735105 3.45029331 0 1 C0 0.67 0 0.34 0 0 Z " fill="#8F771A" transform="translate(160,294)"/>
<path d="M0 0 C0.495 0.309375 0.99 0.61875 1.5 0.9375 C4.97986781 2.41644382 8.24028509 2.62402851 12 3 C11.01 4.485 11.01 4.485 10 6 C7.36 5.67 4.72 5.34 2 5 C1.34 3.35 0.68 1.7 0 0 Z " fill="#1B2823" transform="translate(276,162)"/>
<path d="M0 0 C0 3.61186134 -0.52269616 4.44011936 -3 7 C-6.04552502 8.3607665 -8.05495016 9.1492184 -11.375 8.625 C-11.91125 8.41875 -12.4475 8.2125 -13 8 C-12.01 8 -11.02 8 -10 8 C-10 7.34 -10 6.68 -10 6 C-8.906875 5.566875 -7.81375 5.13375 -6.6875 4.6875 C-3.90591207 3.50504359 -1.93638061 2.39199957 0 0 Z " fill="#D4A216" transform="translate(154,246)"/>
<path d="M0 0 C0.99 0 1.98 0 3 0 C2.71125 0.845625 2.4225 1.69125 2.125 2.5625 C0.99227296 6.02361041 -0.01824316 9.49372557 -1 13 C-1.66 13 -2.32 13 -3 13 C-3.125 10.125 -3.125 10.125 -3 7 C-2.34 6.34 -1.68 5.68 -1 5 C-0.35232207 2.42938689 -0.35232207 2.42938689 0 0 Z " fill="#463F1E" transform="translate(149,152)"/>
<path d="M0 0 C2.75799098 1.37899549 3.43852596 3.37672362 5 6 C5.804375 6.7115625 5.804375 6.7115625 6.625 7.4375 C8.64057463 9.72792572 8.67063865 12.03574786 9 15 C4.37823627 10.84041265 1.69497775 5.93242211 0 0 Z " fill="#61541A" transform="translate(252,142)"/>
<path d="M0 0 C0.99 0 1.98 0 3 0 C2.67 2.97 2.34 5.94 2 9 C1.34 9 0.68 9 0 9 C-0.66 7.02 -1.32 5.04 -2 3 C-1.34 3 -0.68 3 0 3 C0 2.01 0 1.02 0 0 Z " fill="#041B33" transform="translate(260,144)"/>
<path d="M0 0 C0.66 0.33 1.32 0.66 2 1 C0.90081184 1.98475214 -0.2045602 2.96260473 -1.3125 3.9375 C-1.92738281 4.48277344 -2.54226562 5.02804688 -3.17578125 5.58984375 C-5 7 -5 7 -8 8 C-8 6.68 -8 5.36 -8 4 C-7.01 4 -6.02 4 -5 4 C-5 3.34 -5 2.68 -5 2 C-2.625 0.9375 -2.625 0.9375 0 0 Z " fill="#4F491A" transform="translate(164,139)"/>
<path d="M0 0 C0 0.33 0 0.66 0 1 C-0.92619141 1.07347656 -0.92619141 1.07347656 -1.87109375 1.1484375 C-7.11803306 1.61163762 -12.08824683 2.36586435 -17.1875 3.6953125 C-19 4 -19 4 -21 3 C-13.93924474 -0.32270836 -7.7276932 -0.31806054 0 0 Z " fill="#C49F18" transform="translate(189,119)"/>
<path d="M0 0 C0.66 0.33 1.32 0.66 2 1 C-1.80264136 4.34994596 -5.25086953 7.0571739 -10 9 C-10.66 8.67 -11.32 8.34 -12 8 C-8.19735864 4.65005404 -4.74913047 1.9428261 0 0 Z " fill="#574C15" transform="translate(306,298)"/>
<path d="M0 0 C0.33 0.66 0.66 1.32 1 2 C-0.125 5.0625 -0.125 5.0625 -2 8 C-4.6875 8.875 -4.6875 8.875 -7 9 C-5.44499019 5.18315774 -2.96404505 2.80804268 0 0 Z " fill="#EDB927" transform="translate(35,31)"/>
<path d="M0 0 C0.66 0.33 1.32 0.66 2 1 C0.7934375 2.175625 0.7934375 2.175625 -0.4375 3.375 C-2.98690417 5.71982856 -2.98690417 5.71982856 -4 8 C-7.0625 8.625 -7.0625 8.625 -10 9 C-6.83047153 5.73991357 -3.60062011 2.77762123 0 0 Z " fill="#EDB932" transform="translate(46,22)"/>
<path d="M0 0 C-4.79482068 2.75702189 -8.58609132 3.53328373 -14 4 C-10.47578071 0.47578071 -4.83672379 -2.41836189 0 0 Z " fill="#564D16" transform="translate(277,317)"/>
<path d="M0 0 C7.38461538 -0.36923077 7.38461538 -0.36923077 10.5 1.5 C10.995 1.995 11.49 2.49 12 3 C4.61538462 3.36923077 4.61538462 3.36923077 1.5 1.5 C1.005 1.005 0.51 0.51 0 0 Z " fill="#3D3C19" transform="translate(168,319)"/>
<path d="M0 0 C0 0.66 0 1.32 0 2 C-0.99 2.495 -0.99 2.495 -2 3 C-2.72159424 4.64363134 -3.39351421 6.31050386 -4 8 C-4.99 8 -5.98 8 -7 8 C-3.8 0 -3.8 0 0 0 Z " fill="#CCA219" transform="translate(346,233)"/>
<path d="M0 0 C9.1 4.2 9.1 4.2 11 8 C10.46375 7.71125 9.9275 7.4225 9.375 7.125 C6.92449903 5.88011094 6.92449903 5.88011094 3.8125 5.125 C2.884375 4.75375 1.95625 4.3825 1 4 C0.125 1.875 0.125 1.875 0 0 Z " fill="#B18C1B" transform="translate(136,303)"/>
<path d="M0 0 C-3.74525799 3.74525799 -7.98270909 3.68909949 -13 4 C-13 3.34 -13 2.68 -13 2 C-4.57142857 -0.28571429 -4.57142857 -0.28571429 0 0 Z " fill="#D3A615" transform="translate(269,295)"/>
<path d="M0 0 C2.31 0.33 4.62 0.66 7 1 C7.33 2.65 7.66 4.3 8 6 C7.01 6.495 7.01 6.495 6 7 C6 6.34 6 5.68 6 5 C5.38125 4.731875 4.7625 4.46375 4.125 4.1875 C2 3 2 3 0 0 Z " fill="#152023" transform="translate(116,285)"/>
<path d="M0 0 C-1.6232687 0.6708712 -3.24867578 1.33657029 -4.875 2 C-6.23238281 2.556875 -6.23238281 2.556875 -7.6171875 3.125 C-10 4 -10 4 -12 4 C-12 3.01 -12 2.02 -12 1 C-3.96428571 -1.27678571 -3.96428571 -1.27678571 0 0 Z " fill="#B38D18" transform="translate(308,283)"/>
<path d="M0 0 C0.8125 1.625 0.8125 1.625 1 4 C-0.45145896 6.29767635 -2.10430963 8.01403866 -4 10 C-4.33 10 -4.66 10 -5 10 C-5 8.35 -5 6.7 -5 5 C-4.01 5 -3.02 5 -2 5 C-1.7834375 4.0409375 -1.7834375 4.0409375 -1.5625 3.0625 C-1 1 -1 1 0 0 Z " fill="#172423" transform="translate(329,273)"/>
<path d="M0 0 C3.48331435 3.01887244 4.79157144 5.56909529 6 10 C5.34 10 4.68 10 4 10 C1.1605948 6.32547562 0 4.73113419 0 0 Z " fill="#4C4417" transform="translate(270,152)"/>
<path d="M0 0 C2.97 0 5.94 0 9 0 C5.55549263 2.29633824 3.06187717 2.54016485 -1 3 C-0.67 2.01 -0.34 1.02 0 0 Z " fill="#1C2A1C" transform="translate(252,321)"/>
<path d="M0 0 C3.3 0 6.6 0 10 0 C10.66 1.32 11.32 2.64 12 4 C6.06 2.515 6.06 2.515 0 1 C0 0.67 0 0.34 0 0 Z " fill="#E1AF14" transform="translate(261,242)"/>
<path d="M0 0 C0.33 0 0.66 0 1 0 C1 1.98 1 3.96 1 6 C0.01 6.33 -0.98 6.66 -2 7 C-2 7.66 -2 8.32 -2 9 C-2.66 9 -3.32 9 -4 9 C-2.94124926 5.59687262 -1.99097846 2.98646769 0 0 Z " fill="#EAB924" transform="translate(22,46)"/>
<path d="M0 0 C-1.44390925 3.80666984 -3.34952803 5.26602582 -7 7 C-7.66 6.67 -8.32 6.34 -9 6 C-7.8803014 4.99406757 -6.7540588 3.9954151 -5.625 3 C-4.68527344 2.1646875 -4.68527344 2.1646875 -3.7265625 1.3125 C-2 0 -2 0 0 0 Z " fill="#D6A814" transform="translate(315,294)"/>
<path d="M0 0 C4.455 2.97 4.455 2.97 9 6 C7 7 7 7 3.875 6.0625 C2.92625 5.711875 1.9775 5.36125 1 5 C0.67 3.35 0.34 1.7 0 0 Z " fill="#D8AA17" transform="translate(123,294)"/>
<path d="M0 0 C-3.03525486 2.02350324 -4.19426202 2.32124018 -7.6875 2.625 C-8.49574219 2.69976562 -9.30398437 2.77453125 -10.13671875 2.8515625 C-10.75160156 2.90054688 -11.36648437 2.94953125 -12 3 C-11 1 -11 1 -7.6875 -0.1875 C-4.42437937 -0.90649268 -3.00717118 -1.20286847 0 0 Z " fill="#3C391A" transform="translate(122,169)"/>
<path d="M0 0 C2.64 0.66 5.28 1.32 8 2 C8.33 3.32 8.66 4.64 9 6 C7.02 5.34 5.04 4.68 3 4 C3 3.34 3 2.68 3 2 C2.01 1.67 1.02 1.34 0 1 C0 0.67 0 0.34 0 0 Z " fill="#554B19" transform="translate(256,124)"/>
<path d="M0 0 C3 1 3 1 4.625 3.9375 C5.07875 4.948125 5.5325 5.95875 6 7 C6.33 7.66 6.66 8.32 7 9 C3.17475764 7.549046 1.80909034 5.61818068 0 2 C0 1.34 0 0.68 0 0 Z " fill="#625116" transform="translate(119,242)"/>
<path d="M0 0 C-0.625 1.9375 -0.625 1.9375 -2 4 C-5.125 4.75 -5.125 4.75 -8 5 C-3.16129032 0 -3.16129032 0 0 0 Z " fill="#C29A17" transform="translate(294,308)"/>
<path d="M0 0 C0.99 0 1.98 0 3 0 C2.67 2.31 2.34 4.62 2 7 C1.34 6.67 0.68 6.34 0 6 C-0.6875 3.5 -0.6875 3.5 -1 1 C-0.67 0.67 -0.34 0.34 0 0 Z " fill="#082027" transform="translate(123,242)"/>
<path d="M0 0 C3.63 0 7.26 0 11 0 C11 0.33 11 0.66 11 1 C8.03 1 5.06 1 2 1 C2 1.66 2 2.32 2 3 C1.01 3.33 0.02 3.66 -1 4 C-0.67 2.68 -0.34 1.36 0 0 Z " fill="#DAAA1C" transform="translate(232,112)"/>
<path d="M0 0 C1.8125 0.1875 1.8125 0.1875 4 1 C5.8125 3.4375 5.8125 3.4375 7 6 C6.67 6.66 6.34 7.32 6 8 C4.9970458 6.85675161 3.99770973 5.71032809 3 4.5625 C2.443125 3.92441406 1.88625 3.28632813 1.3125 2.62890625 C0 1 0 1 0 0 Z " fill="#192020" transform="translate(109,277)"/>
<path d="M0 0 C-4.75 3 -4.75 3 -7 3 C-7 2.01 -7 1.02 -7 0 C-3.86650268 -1.04449911 -3.01031744 -0.93423645 0 0 Z " fill="#1B231E" transform="translate(305,248)"/>
<path d="M0 0 C0.33 0 0.66 0 1 0 C1 3.63 1 7.26 1 11 C0.01 11.33 -0.98 11.66 -2 12 C-1.34 8.04 -0.68 4.08 0 0 Z " fill="#D3A314" transform="translate(352,216)"/>
<path d="M0 0 C2.97 0.495 2.97 0.495 6 1 C6 2.65 6 4.3 6 6 C3.97945196 4.35830472 1.97956942 2.69088222 0 1 C0 0.67 0 0.34 0 0 Z " fill="#292F1A" transform="translate(248,137)"/>
<path d="M0 0 C2.31 0.33 4.62 0.66 7 1 C6.67 1.66 6.34 2.32 6 3 C4.35 3 2.7 3 1 3 C0.67 2.01 0.34 1.02 0 0 Z " fill="#F5B712" transform="translate(162,120)"/>
</svg>
